<?xml version="1.0" encoding="utf-8"?>
<!-- Generator: Adobe Illustrator 22.1.0, SVG Export Plug-In . SVG Version: 6.00 Build 0)  -->
<svg version="1.1" xmlns="http://www.w3.org/2000/svg" xmlns:xlink="http://www.w3.org/1999/xlink" x="0px" y="0px"
	 viewBox="0 0 150 150" style="enable-background:new 0 0 150 150;" xml:space="preserve">
<style type="text/css">
	.st0{fill:#5C8CC1;}
	.st1{fill:#FFFFFF;}
</style>
<g id="Layer_5">
	<circle class="st0" cx="75" cy="75" r="65.5"/>
</g>
<g id="Layer_4">
	<polygon class="st1" points="47.3,36.6 47.3,49.4 34.3,49.4 34.3,58 47.3,58 47.3,70.9 55.9,70.9 55.9,58 68.7,58 68.7,49.4 
		55.8,49.4 55.8,36.6 	"/>
	<rect x="81.3" y="49.4" class="st1" width="34.4" height="8.6"/>
	<polygon class="st1" points="36.3,87.6 45.5,96.6 36.3,105.7 42.4,111.8 51.4,102.6 60.6,111.8 66.7,105.7 57.5,96.6 66.7,87.6 
		60.6,81.4 51.5,90.5 42.2,81.4 	"/>
	<rect x="81.3" y="90.5" class="st1" width="34.4" height="8.6"/>
	<circle class="st1" cx="98.5" cy="108.3" r="5.2"/>
	<circle class="st1" cx="98.5" cy="81.3" r="5.2"/>
</g>
</svg>
