<?xml version="1.0" encoding="utf-8"?>
<!-- Generator: Adobe Illustrator 22.1.0, SVG Export Plug-In . SVG Version: 6.00 Build 0)  -->
<svg version="1.1" xmlns="http://www.w3.org/2000/svg" xmlns:xlink="http://www.w3.org/1999/xlink" x="0px" y="0px"
	 viewBox="0 0 150 150" style="enable-background:new 0 0 150 150;" xml:space="preserve">
<style type="text/css">
	.st0{fill:#5CBA47;}
	.st1{fill:#FFFFFF;}
	.st2{fill:#5CBA47;stroke:#FFFFFF;stroke-width:1.5;stroke-miterlimit:10;}
</style>
<g id="Layer_1">
	<circle class="st0" cx="75" cy="75" r="65.5"/>
</g>
<g id="Layer_2">
	<rect x="28.3" y="50.5" class="st1" width="91.9" height="56.7"/>
</g>
<g id="Layer_3">
	<path class="st2" d="M74.3,54.8v52.4c0,0-9.7-13.8-36.6-8.6c0-20.9,0.2-45.9,0-57.5C65.7,35.3,74.3,54.8,74.3,54.8z"/>
	<path class="st2" d="M74.3,54.8v52.4c0,0,9.7-13.8,36.6-8.6c0-20.9-0.2-45.9,0-57.5C82.9,35.3,74.3,54.8,74.3,54.8z"/>
</g>
<g id="Layer_5">
	<path class="st2" d="M74.3,107.2V54.8c0,0-8.4-23.3-26-21.5c0.1,13.3,0,47.8,0,55.4C67.4,87.4,74.3,107.2,74.3,107.2"/>
</g>
<g id="Layer_4">
	<rect x="70.6" y="107.2" class="st0" width="7.1" height="4.5"/>
</g>
</svg>
