<?xml version="1.0" encoding="utf-8"?>
<!-- Generator: Adobe Illustrator 22.1.0, SVG Export Plug-In . SVG Version: 6.00 Build 0)  -->
<svg version="1.1" xmlns="http://www.w3.org/2000/svg" xmlns:xlink="http://www.w3.org/1999/xlink" x="0px" y="0px"
	 viewBox="0 0 150 150" style="enable-background:new 0 0 150 150;" xml:space="preserve">
<style type="text/css">
	.st0{fill:#D36B28;}
	.st1{fill:#FFFFFF;}
	.st2{fill:none;stroke:#FFFFFF;stroke-width:1.5;stroke-miterlimit:10;}
	.st3{fill:none;stroke:#D36B28;stroke-width:1.5;stroke-miterlimit:10;}
</style>
<g id="Layer_1">
	<circle class="st0" cx="75" cy="75" r="65.5"/>
</g>
<g id="Layer_3">
	<path class="st1" d="M62.5,36.5v30c0,0-21.2,36.3-18,44.9c3.1,8.7,57.7,8.2,61.8,0S86.4,66.5,86.4,66.5v-30H62.5z"/>
	<path class="st1" d="M89.3,32.5c0,1.6-1.3,3-3,3H62.2c-1.6,0-3-1.3-3-3c0-1.6,1.3-3,3-3h24.1C87.9,29.5,89.3,30.8,89.3,32.5z"/>
</g>
<g id="Layer_4">
	<path class="st0" d="M55.3,84.6c0,0-7.9,15.8-7.4,25.4c5.7,8.7,51.6,7.5,55.2,0c-0.3-9.7-8.6-25.4-8.6-25.4H55.3z"/>
</g>
<g id="Layer_5">
	<circle class="st2" cx="65.9" cy="97.6" r="4.2"/>
	<circle class="st3" cx="71.8" cy="79" r="3.6"/>
	<circle class="st3" cx="71.8" cy="62.9" r="2.9"/>
</g>
</svg>
