<?xml version="1.0" encoding="utf-8"?>
<!-- Generator: Adobe Illustrator 22.1.0, SVG Export Plug-In . SVG Version: 6.00 Build 0)  -->
<svg version="1.1" id="Layer_1" xmlns="http://www.w3.org/2000/svg" xmlns:xlink="http://www.w3.org/1999/xlink" x="0px" y="0px"
	 viewBox="0 0 150 150" style="enable-background:new 0 0 150 150;" xml:space="preserve">
<style type="text/css">
	.st0{fill:#713888;}
	.st1{fill:#FFFFFF;stroke:#FFFFFF;stroke-width:2;stroke-miterlimit:10;}
	.st2{fill:none;stroke:#713888;stroke-width:2;stroke-miterlimit:10;}
	.st3{fill:#713888;stroke:#FFFFFF;stroke-width:1.5;stroke-miterlimit:10;}
	.st4{fill:#FFFFFF;}
</style>
<g id="Layer_1_1_">
	<circle class="st0" cx="75" cy="75" r="65.5"/>
</g>
<g id="Layer_2_1_">
	<path class="st1" d="M87.8,112.5h-46c-3.3,0-6-2.7-6-6V45.6c0-3.3,2.7-6,6-6h46c3.3,0,6,2.7,6,6v60.9
		C93.8,109.8,91.1,112.5,87.8,112.5z"/>
</g>
<g id="Layer_3">
	<line class="st2" x1="43" y1="62.9" x2="83.6" y2="62.9"/>
	<line class="st2" x1="43" y1="73.7" x2="83.6" y2="73.7"/>
	<line class="st2" x1="43" y1="83.9" x2="83.6" y2="83.9"/>
	<line class="st2" x1="43" y1="94.3" x2="76.1" y2="94.3"/>
	<line class="st2" x1="43" y1="104.8" x2="70.5" y2="104.8"/>
</g>
<g id="Layer_5">
	<path class="st2" d="M74.8,92.7l3.9-12c0-0.1,26.5-28.2,26.5-28.2c0.1-0.2,0.4-0.2,0.5,0l9.1,8.4c0.2,0.1,0.2,0.4,0,0.5L88.6,89.8
		l-0.1,0.1l-11.8,4.5C75.5,94.9,74.4,93.8,74.8,92.7z"/>
	<line class="st2" x1="88.1" y1="89.2" x2="79.3" y2="81"/>
</g>
<g id="Layer_4">
	
		<rect x="78.7" y="65.1" transform="matrix(0.6808 -0.7325 0.7325 0.6808 -21.0347 93.4669)" class="st3" width="36.1" height="11.5"/>
	
		<rect x="109.5" y="48.3" transform="matrix(0.6808 -0.7325 0.7325 0.6808 -4.5387 99.2809)" class="st4" width="4.3" height="13.1"/>
	<path class="st3" d="M121.4,52.9l-2.9,3.1l-8.5-7.9l2.9-3.1c0.7-0.8,1.9-0.8,2.7-0.1l5.7,5.3C122,50.9,122.1,52.1,121.4,52.9z"/>
	<path class="st3" d="M78.9,82.4l7.6,7.1l-10.1,3.9c-0.5,0.2-1.1-0.3-0.9-0.8L78.9,82.4z"/>
	<polygon class="st4" points="76.7,89.3 79.8,92.1 75.2,93.9 	"/>
	<path class="st4" d="M100.2,64.8L85.9,80.1c-0.4,0.4-1,0.4-1.5,0.1l-0.1-0.1c-0.4-0.4-0.4-1-0.1-1.5l14.3-15.4
		c0.4-0.4,1-0.4,1.5-0.1l0.1,0.1C100.6,63.7,100.6,64.3,100.2,64.8z"/>
	<path class="st4" d="M103.8,60.9l-0.7,0.8c-0.4,0.4-1,0.4-1.5,0.1l-0.1-0.1c-0.4-0.4-0.4-1-0.1-1.5l0.7-0.8c0.4-0.4,1-0.4,1.5-0.1
		l0.1,0.1C104.1,59.9,104.2,60.5,103.8,60.9z"/>
</g>
<g>
	<path class="st0" d="M77.6,42l5.1,12.3L80,54.6L79,52l-3.4,0.5l-0.2,2.8l-2.7,0.4l1.6-13.2L77.6,42z M78.3,50l-2-5.6l0,0l-0.4,5.9
		L78.3,50z"/>
	<path class="st0" d="M83,50.7l-0.3-2.2l3.4-0.5l-0.5-3.4l2.2-0.3l0.5,3.4l3.4-0.5l0.3,2.2L88.7,50l0.5,3.4l-2.2,0.3l-0.5-3.4
		L83,50.7z"/>
</g>
</svg>
