<svg id="Layer_1" data-name="Layer 1" xmlns="http://www.w3.org/2000/svg" viewBox="0 0 131 131"><defs><style>.cls-1,.cls-2{fill:#713888;}.cls-2{stroke:#fff;stroke-miterlimit:10;}.cls-3{fill:none;}.cls-4,.cls-5{isolation:isolate;}.cls-5{font-size:14px;font-family:HelveticaNeue-CondensedBlack, Helvetica Neue;}.cls-5,.cls-8{fill:#fff;}.cls-6{letter-spacing:-0.04em;}.cls-7{letter-spacing:0em;}</style></defs><title>test1</title><g id="Layer_1-2" data-name="Layer 1"><circle class="cls-1" cx="65.5" cy="65.5" r="65.5"/></g><g id="Layer_3" data-name="Layer 3"><circle class="cls-2" cx="42.4" cy="47.9" r="7.2"/><circle class="cls-2" cx="42.4" cy="65" r="7.2"/><circle class="cls-2" cx="42.4" cy="82.1" r="7.2"/><circle class="cls-2" cx="63.9" cy="47.9" r="7.2"/><circle class="cls-2" cx="63.9" cy="65" r="7.2"/><circle class="cls-2" cx="63.9" cy="82.1" r="7.2"/><circle class="cls-2" cx="85.1" cy="47.9" r="7.2"/><circle class="cls-2" cx="85.1" cy="65" r="7.2"/><circle class="cls-2" cx="85.1" cy="82.1" r="7.2"/><circle class="cls-2" cx="106.6" cy="47.9" r="7.2"/><circle class="cls-2" cx="106.6" cy="65" r="7.2"/><circle class="cls-2" cx="106.6" cy="82.1" r="7.2"/></g><g id="Layer_2" data-name="Layer 2"><rect class="cls-3" x="13.5" y="42.8" width="114.5" height="54.9"/><g class="cls-4"><text class="cls-5" transform="translate(13.5 52.81)"><tspan xml:space="preserve">1.   </tspan><tspan class="cls-6" x="21.84" y="0"> </tspan><tspan class="cls-7" x="24.96" y="0" xml:space="preserve">T    </tspan></text><text class="cls-5" transform="translate(13.5 69.61)"><tspan xml:space="preserve">2.    P</tspan></text><text class="cls-5" transform="translate(13.5 86.41)"><tspan xml:space="preserve">3.   </tspan><tspan class="cls-6" x="21.84" y="0"> </tspan><tspan x="24.96" y="0">A</tspan></text></g><rect class="cls-3" x="59.9" y="42.8" width="9.3" height="46.7"/><g class="cls-4"><text class="cls-5" transform="translate(59.95 52.81)">E</text><text class="cls-5" transform="translate(59.95 69.61)">R</text><text class="cls-5" transform="translate(59.95 86.41)">B</text></g><rect class="cls-3" x="81.5" y="42.8" width="17.2" height="48.1"/><g class="cls-4"><text class="cls-5" transform="translate(81.45 52.81)">S</text><text class="cls-5" transform="translate(81.45 69.61)">E</text><text class="cls-5" transform="translate(81.45 86.41)">C</text></g><rect class="cls-3" x="103.2" y="42.8" width="13.1" height="50.6"/><g class="cls-4"><text class="cls-5" transform="translate(103.23 52.81)">T</text><text class="cls-5" transform="translate(103.23 69.61)">P</text><text class="cls-5" transform="translate(103.23 86.41)">D</text></g></g><g id="Layer_4" data-name="Layer 4"><path class="cls-8" d="M59.2,93.2c.3,0,.2-.4.2-.5A.33.33,0,0,0,59.2,93.2Z" transform="translate(-9.5 -9.5)"/><polygon class="cls-8" points="47.9 85 47.9 84.9 47.8 85.3 47.9 85"/><path class="cls-8" d="M55.9,94.9c.3.7.5-.3.8-.1l.1.1v-.6C56.5,94.6,56.2,95.1,55.9,94.9Z" transform="translate(-9.5 -9.5)"/><path class="cls-8" d="M54.7,93.6c.1.3-.1.3.2,0l-.1-.1C54.8,93.6,54.8,93.6,54.7,93.6Z" transform="translate(-9.5 -9.5)"/><path class="cls-8" d="M54.9,93.6c.1,0-.2-.2,0,0Z" transform="translate(-9.5 -9.5)"/><path class="cls-8" d="M54.2,94l.1-.3c-.1-.1-.3-.1-.2-.3C53.9,93.6,54,93.7,54.2,94Z" transform="translate(-9.5 -9.5)"/><path class="cls-8" d="M54.1,94.5l.1-.1C54.2,94.3,54.1,94.3,54.1,94.5Z" transform="translate(-9.5 -9.5)"/><path class="cls-8" d="M54.4,94.1l-.2.3c.1.1.1.3.1-.1C54.3,94.5,54.3,94.3,54.4,94.1Z" transform="translate(-9.5 -9.5)"/><path class="cls-8" d="M54.5,94.2c.2.1.3.2.2.5C55.1,94.4,54.9,94,54.5,94.2Z" transform="translate(-9.5 -9.5)"/><path class="cls-8" d="M56,95.7l.2.2.1-.3C56.3,95.7,55.9,95.4,56,95.7Z" transform="translate(-9.5 -9.5)"/><path class="cls-8" d="M52.8,93.9c0,.2.2.4.2.6l.1-.2C53.1,94.2,52.9,94.1,52.8,93.9Z" transform="translate(-9.5 -9.5)"/><path class="cls-8" d="M53.1,94.5l-.2.3C53.1,94.8,53.1,94.6,53.1,94.5Z" transform="translate(-9.5 -9.5)"/><polygon class="cls-8" points="44.8 85.8 45 85.2 44.7 85.8 44.8 85.8"/><polygon class="cls-8" points="42.5 84.6 42.5 84.2 42.4 84.8 42.5 84.6"/><path class="cls-8" d="M51.5,94.3c0-.3-.2-.5-.2-.6a3.33,3.33,0,0,0-.3.6C51.1,94.1,51.3,94.1,51.5,94.3Z" transform="translate(-9.5 -9.5)"/><path class="cls-8" d="M50.9,94.6c0-.1.1-.2.1-.4C51,94.3,50.9,94.4,50.9,94.6Z" transform="translate(-9.5 -9.5)"/><path class="cls-8" d="M52.5,94.8a.54.54,0,0,0-.3-.4l.3.4Z" transform="translate(-9.5 -9.5)"/><path class="cls-8" d="M52.4,94.8Z" transform="translate(-9.5 -9.5)"/><path class="cls-8" d="M52.5,94.8Z" transform="translate(-9.5 -9.5)"/><path class="cls-8" d="M53.6,95.1c-.1.3-.3.6.1.9C53.7,95.6,53.5,95.5,53.6,95.1Z" transform="translate(-9.5 -9.5)"/><path class="cls-8" d="M52.8,95.3h.3c0-.1-.1-.3-.1-.4Z" transform="translate(-9.5 -9.5)"/><polygon class="cls-8" points="43.2 86 43.3 85.8 43.2 85.8 43.2 86"/><path class="cls-8" d="M51.4,94.9c-.1.2-.2.2-.3.3a.3.3,0,0,0,.4,0C51.5,95.1,51.5,94.9,51.4,94.9Z" transform="translate(-9.5 -9.5)"/><path class="cls-8" d="M51.9,94.9Z" transform="translate(-9.5 -9.5)"/><path class="cls-8" d="M50,95.4Z" transform="translate(-9.5 -9.5)"/><path class="cls-8" d="M51.6,95.3c.1.1.2-.1.2-.2-.1.1-.2.1-.2.2S51.5,95.4,51.6,95.3Z" transform="translate(-9.5 -9.5)"/><path class="cls-8" d="M50.6,94.9l.2.2C50.8,94.9,50.6,94.8,50.6,94.9Z" transform="translate(-9.5 -9.5)"/><path class="cls-8" d="M51.8,94.8Z" transform="translate(-9.5 -9.5)"/><path class="cls-8" d="M51.8,94.8c0,.1-.1.2-.1.3s.1-.1.1-.2S51.8,94.9,51.8,94.8Z" transform="translate(-9.5 -9.5)"/><path class="cls-8" d="M49.9,98.2c0-.4.2-.8.5-.4.2-.3-.2-1.6-.4-2.3a1.49,1.49,0,0,1-.1.6c.1.2.5.4.4.8-.3.2-.3-.1-.4-.3.2.5-.3.7-.3,1.5l.3-.3C49.9,97.9,49.8,98.1,49.9,98.2Z" transform="translate(-9.5 -9.5)"/><path class="cls-8" d="M50.4,95.5h0a.91.91,0,0,0-.3-.5.6.6,0,0,0-.1.4.6.6,0,0,1,.4.1Z" transform="translate(-9.5 -9.5)"/><path class="cls-8" d="M50.9,95.3c0,.4-.2.7,0,1.1.3-.1.1-.4.2-.6-.3.2.2-.3-.2-.5a.35.35,0,0,0,.2-.1c-.1,0-.2-.1-.3-.1h0v.1h0a.1.1,0,0,1,.1.1c-.1-.1,0-.1,0-.2V95h0l-.4.3C50.6,95.4,50.7,95.4,50.9,95.3Z" transform="translate(-9.5 -9.5)"/><path class="cls-8" d="M53.7,96.9c-.1,0-.1-.1,0,0Z" transform="translate(-9.5 -9.5)"/><path class="cls-8" d="M53.4,96.7c0-.1,0-.2.1-.2a.37.37,0,0,1,.1.3c0-.1.2-.4-.1-.5v.1a3.29,3.29,0,0,1-.6-.6C53.1,96.1,53.2,96.4,53.4,96.7Z" transform="translate(-9.5 -9.5)"/><path class="cls-8" d="M52.1,96.1l-.3.3.3.3-.1-.2C52.3,96.6,52.1,96.3,52.1,96.1Z" transform="translate(-9.5 -9.5)"/><polygon class="cls-8" points="40.5 85.7 40.4 85.2 40.4 85.9 40.5 85.7"/><path class="cls-8" d="M49.7,95.3v0Z" transform="translate(-9.5 -9.5)"/><path class="cls-8" d="M43,92.6a.76.76,0,0,0,.1-.4C43.1,92.3,43,92.4,43,92.6Z" transform="translate(-9.5 -9.5)"/><path class="cls-8" d="M45.5,96.5v-.2C45.5,96.4,45.4,96.5,45.5,96.5Z" transform="translate(-9.5 -9.5)"/><path class="cls-8" d="M61.6,89.1c.4-.3,1-.7.6-.4l-.4.3C61.8,88.9,61.7,89,61.6,89.1Z" transform="translate(-9.5 -9.5)"/><path class="cls-8" d="M52.1,92.2l-.2.2c.3-.2.6-.5.9-.7C52.6,91.9,52.3,92,52.1,92.2Z" transform="translate(-9.5 -9.5)"/><path class="cls-8" d="M48.8,95l.4-.4Z" transform="translate(-9.5 -9.5)"/><path class="cls-8" d="M47.8,88.6l-.1-.5C47.5,88.2,47.7,88.4,47.8,88.6Z" transform="translate(-9.5 -9.5)"/><path class="cls-8" d="M59.4,91.7c.5-.3.8-.4.9-.5C59.5,91.6,58.4,92.1,59.4,91.7Z" transform="translate(-9.5 -9.5)"/><path class="cls-8" d="M45.3,93.8h0c.1,0,0,.1,0,0Z" transform="translate(-9.5 -9.5)"/><path class="cls-8" d="M60.4,91c-.1.1-.2.1-.3.2.2,0,.3-.1.2,0C60.8,90.9,61.1,90.7,60.4,91Z" transform="translate(-9.5 -9.5)"/><path class="cls-8" d="M50.9,91.2Z" transform="translate(-9.5 -9.5)"/><path class="cls-8" d="M45.6,87.3h.2C45.7,87.2,45.7,87.2,45.6,87.3Z" transform="translate(-9.5 -9.5)"/><path class="cls-8" d="M58.3,94.1c0,.2.2,0,0,0Z" transform="translate(-9.5 -9.5)"/><path class="cls-8" d="M52.4,96.3a1.34,1.34,0,0,0-.5.1A1.09,1.09,0,0,1,52.4,96.3Z" transform="translate(-9.5 -9.5)"/><path class="cls-8" d="M54.1,93.7h0C53.9,93.9,53.9,93.8,54.1,93.7Z" transform="translate(-9.5 -9.5)"/><path class="cls-8" d="M57.4,94.6c.2-.1.5-.3.7-.4A3.22,3.22,0,0,1,57.4,94.6Z" transform="translate(-9.5 -9.5)"/><path class="cls-8" d="M58.1,94.4c-.1.1-.2.2-.3.2C57.9,94.5,58.1,94.5,58.1,94.4Z" transform="translate(-9.5 -9.5)"/><path class="cls-8" d="M58.5,93.9a1.38,1.38,0,0,1-.4.3.31.31,0,0,1,.2-.1C58.4,94.1,58.4,94,58.5,93.9Z" transform="translate(-9.5 -9.5)"/><path class="cls-8" d="M55.7,86.8Z" transform="translate(-9.5 -9.5)"/><path class="cls-8" d="M51.3,94.2c0-.1.1-.1,0,0l.1-.1Z" transform="translate(-9.5 -9.5)"/><path class="cls-8" d="M50.1,94.9c1.7-1.1,1.6-1,1.3-.8l3.9-2.5Z" transform="translate(-9.5 -9.5)"/><path class="cls-8" d="M45.4,90.2l-.5-.2c0-.8.4-.7-.2-1,.3.6.1.8-.2,1s-.6.5-.2,1H44c.1,0,0-.1.1-.1-.4-.1-.4.2-.3.5s.3.6-.1,1c-.3.2-.7.8-.7.2a3.08,3.08,0,0,0-.1,1c0,.3.1.5.1.8,0,.1.1.2.2.4a1.38,1.38,0,0,1,.3.4c.3.4.5.6.4.6s-.4-.2-.7-.7a2.65,2.65,0,0,0,.5.6c.2.2.4.3.5.4s.5.2.7.3h.7c0-.2.2-.5.2-.7.1.2-.1.2-.1.3.1-.1.1-.2.2-.4,0,.3-.2.7-.3.7v.4c.1-.2.2-.4.2,0l-.1.2a8.38,8.38,0,0,0-.2,1,3.39,3.39,0,0,0,.3-.8,3.39,3.39,0,0,1,.3-.8c0,.1,0,.1.2-.2-.2.5-.1.4,0,.3l-.4.7a7,7,0,0,0,.6-.9c.1,0-.3.6-.6,1.1a1.73,1.73,0,0,1,.3-.4c.2-.3.3-.5.5-.6-.1.2.2-.1.8-.6a3.74,3.74,0,0,1-.6.7l.6-.7-.3.3a11.41,11.41,0,0,1,1.1-1.1c.4-.5.2-.2,0,.1s-.4.6.2,0l-.9.9c1.1-.9.8-.7,2.1-1.7-.2.2-.3.4-.5.5a26.43,26.43,0,0,1,2.9-2.4l.8-.8,1.1-.7a8.4,8.4,0,0,1-1.2,1c.1-.1.3-.2.4-.3-.3.3-1.1.9-1.8,1.5l.6-.6a21.54,21.54,0,0,0-2.2,1.9c.1-.1.3-.2.4-.3-.2.2-.4.3-.5.4s.2-.1.5-.4L49,95.1l.5-.4-.6.6a61.33,61.33,0,0,1,5.4-3.8c-1.4,1-2,1.5-3.4,2.6,1.4-1.1-.9.6-.8.4-.1.1-.7.6-.9.8l1.6-1.1c-1.2.9-.8.6-1.2,1a32.41,32.41,0,0,1,2.7-1.9c-.8.6-1.7,1.2-1.7,1.2-.8.6-.1.1.8-.5s1.7-1.2,1-.7c-.1,0,0-.1-.4.3.9-.6.5-.3-.3.3h-.1a23.67,23.67,0,0,0,3.4-2c-.3.2-3.2,2.1-3.7,2.4l4.7-3,1.2-.8.6-.4.3-.2,1-.6c-.7.5-2,1.3-3.2,2-1.9,1.2-3.7,2.3-4.4,2.8-.3.2-.6.4.3-.1.3-.2,3.4-2.2,3.7-2.3-2.4,1.6-1.3.9-3.5,2.3.3-.2,1.4-.9,2.4-1.5a8.51,8.51,0,0,0,1.4-.9,2.19,2.19,0,0,0,.5-.3.31.31,0,0,1,.2-.1c-.6.4-3.9,2.4-4.4,2.7,1.4-.8,2.8-1.6,4.3-2.4-.8.4-3.4,2-4.6,2.7.4-.2.4-.2.3-.1s-.3.2-.1.1l1-.6c-.8.5,5.4-2.9,4.8-2.5s-4.9,2.6-5.4,3c.9-.5,3.2-1.7,5.4-2.9l.6-.3.3-.1c.2-.1.3-.2.5-.2s.5-.3.6-.3l-.5.3.4-.1c-.3.1-.6.3-1.1.5l-.6.3c-.4.2-.7.4-1.1.6-2,1-3.9,2.1-5,2.6a6.36,6.36,0,0,0-1,.6,1.24,1.24,0,0,0-.3.2c-.8.4-1.3.7-1.5.8l-.8.5c1.8-1,2.2-1.2,3.7-1.9l-1.9,1c1-.5,2.5-1.3,3.7-2s1.8-.9,1.5-.7c-.9.5-3.6,1.9-4.3,2.3.7-.4,1.1-.6.6-.3l-1,.5.4-.2c-.2.1-2.5,1.3-1.4.8,1.9-1,7.7-4,9.2-4.7-.1.1-1.7,1-2.7,1.5-1.6.8-3.6,1.8-4.9,2.5l1.2-.6a8.33,8.33,0,0,0-1.4.7c1.7-.9-.4.3,1.4-.7.3-.1-.5.3-.6.3.5-.2,1.3-.7,2.2-1.1.7-.3,1.3-.6,1.5-.7a13.92,13.92,0,0,1-1.3.6c-.6.4-1.5.8-1.8,1s-.9.5-1.4.7c.2-.1.6-.3.5-.2a9.33,9.33,0,0,0-1.5.7l1.1-.4c1.2-.5.6-.3.2-.2l1.2-.5c.4-.2.9-.4,1.3-.6a15.86,15.86,0,0,1,2.1-.8c.4,0-1.7.8-1.4.7-1,.6,4.1-1.5,1.9-.2-1.9.8-3.4,1.3-4.7,1.8-.4.1,1.5-.7,1.5-.8l-1,.5c-.5.2-.7.2-.1-.1-.2.1-.3.2-.5.2s-.2.1-.3.2-.3.2-.5.3a10.54,10.54,0,0,1-1.1.7h.4a1.69,1.69,0,0,0,.5-.2l-.1-.1c1.5-.6,1.5-.3,2.4-.7.7-.1,1.6,0,.2.6l-1.7.4c.4-.1,1.3-.5,1-.5.3,0-.5.3-1.1.5s-.8.4-.1.4l1.4-.5.2.2v.3h-.1l-.2-.1c-.2-.1-.3-.1-.5-.2s-.4-.1-.5-.2l-.3-.1H51l-1.6,1.1a.1.1,0,0,0,.1-.1v-.1c0-.1.1-.1.1-.2s0-.2.1-.4.1-.4.1-.6a2.18,2.18,0,0,1-.1.6c-.1.2,0,.3-.2.6,0-.1.1-.1,0-.1a.1.1,0,0,1-.1.1l-.1.1h0l1.9-1.3h0l.2.1a2.35,2.35,0,0,0,.8.2,2.35,2.35,0,0,0,.8.2l.4.1.2.1h.1l.2-.2c.7-.5,1.1-.8-.4-.3a9.71,9.71,0,0,0,2.3-.9,17,17,0,0,1,2.3-1.1c-.6.2-1.3.5-.5-.1h-.4c-.4.2-.8.3-1.2.5-.6.1-.6,0-.7-.1s-.1-.2-.4-.1c.4-.2.7-.2,1.4-.5l-.9.2c1.4-.5,2.7-1.3,3.2-1.1l.3-.4c1-.5,1.4-.9.9-.8.4-.2-1.4.4-.4,0h-.6l.3-.1c.4-.4-1.6.3.8-1-.3.1-.6.2-.1-.1l1-.5c-.3.1,1.1-.7.1-.2,1.3-.6,1.4-.8,1.3-.8s-.4.1-.2-.1l-1,.5c.1-.1-.1,0-.4.1l-.8.4c-.5.2.8-.5.9-.6.3-.1.2-.1,0,.1.9-.5.6-.4.4-.3s-.4.1.1-.2c-.2.1-.1,0,.1-.1h0c.1-.1.2-.1.3-.2-.1.1-.2.2-.3.2h-.1l.5-.3h0c.2-.2-.2.1-.6.3-.1,0-.1,0-.2.1.8-.5-.1-.1.5-.6h-.6a2.18,2.18,0,0,0-1,.4L60,89s0-.1-.4.1l.6-.4-1.1.6a11.85,11.85,0,0,1,1.2-.8c-.6.3-.7.3-.9.4s-.3.1-.9.5l.5-.3c-.1,0-1,.5-.6.3s.2-.3-.1-.3-.7.1-.4-.3c-1.9,1.5.6-.7-1,.6a3.78,3.78,0,0,1,1.2-.9c-.8.4.3-.6-1.3.5.5-.4.8-.6,1.1-.8-.1.1-.6.4-.3.1a3.51,3.51,0,0,1,.8-.5c-.4,0-2.1,1.4-3.6,2.6.5-.6.3-.5-.8.4a5.3,5.3,0,0,1,1.2-1c-.1,0-.1-.2-.3-.1s-.6.2-1.2.8c.2-.3-.2,0-.4.1a3.09,3.09,0,0,0-.8.2v.1c-1.4,1.3-.6.4-1.1.7l.1-.1c0-.3-.2-.2-.4,0s-.3.2-.3-.1l-.5.7c-.6.8-.6.6-.6.3s0-.6-.4-.2l-.1.3c-.3.3-.1-.1,0-.6s.2-1,.1-1,.2-.2.4-.4c-.5-.4-.6.9-1.3,1.3.1-.4.7-1.1.2-1-.1-.1-.5.3-1,.7s-.9.7-1.1.4a.68.68,0,0,1-.2.8H46c-.1,0-.1-.1-.2-.1h-.1a.1.1,0,0,1,.1-.1h0l-.3,1.3h0v.1c0,.1,0,.1-.1.2l-.1.1h.1a2.59,2.59,0,0,1,1,.5l.1.1-.1-.1c0-.1-.1-.2-.1-.3.6.6.6.3.7,0s.2-.7.6,0l.5-.4.1.1c.4-.1.3-.5.3-.9.1,0,.1.2.2.3.7,0,.7-.1.8-1l.3.4c0-.3,1.1.3,1.4-.4v.2c.4-.8,2,.6,1.5-1.1l.2-.6c-.6.1-.2-.8-.6-.9.2-.2.7.3.5.5l-.1-.1c.3.9.8,0,1,.6,1-.5,2.2-.4,3.2-.7l-.4-.6.4-.1c.2.1.3.5.1.6.3.3.3-.5.2-.6.6.1.1.9.3.8l.2-.1-.1-.1c.1-.3,0-.6.3-.7.2.1.2.4.3.4s.1.1.1,0h.3l-.3-1a2.92,2.92,0,0,1-.2-.9A.1.1,0,0,0,58,88v-.1a.1.1,0,0,1-.1-.1v0c.1,0-.1,0,0,.1s.1.2.1.3l.1.3.3.8.1.3h0c0-.1-.1-.2-.1-.3v-.1h0l-.1-.2-.3-.7a1.09,1.09,0,0,1-.1-.5c0-.1,0-.2-.1-.2s-.1-.1,0-.1a.1.1,0,0,1-.1-.1v-.2a3.55,3.55,0,0,1-.4-.9l-.1-.1h0c0,.1,0,.1.2.4a.55.55,0,0,0-.5-.3h-.5c-.3.1-.7.2-.8.1-.2.5-.4.5-.8.5.1.1.3.7,0,.7-.1-1.3-.6-.5-1-1.4.3.6-.8.3-.3,1.1-.3-.1-.1-.5-.3-.8-.5.6-1.3-.2-2,.1,0,.2.2.4,0,.7l-.5-.8c-.1.1,0,1-.4.4.1.1.1.4,0,.4-1.5-.7-2.9,1-4.5-.5.2.3.1.4-.1.4.1.1,0,.4.1.7l-.7-.6c-.1.7-.7.1-.7.7l.2-.1c-.2.8.5,1.6.5,2.6.2-.9.9,1.2,1.3-.1.1.2-.1.3,0,.5.1-.4.2-.5.5-.4v.1c.8-.2,1.1.2,2,.4l-.1-.5c.2,0,.2.2.3.3.1-.7-.5,0-.4-.8.3.9,1.3-.1,1.6,1,.3,0-.1-.5.1-.6l.1.3v-.4c.2,0,.3.4.4.6a.35.35,0,0,1-.2.1c.3.3.7-.2.8-.1l-.3-.1c.8-.4,1.8-.1,2.4-.8l-.1-.2c.5-.5.5.2,1.1-.1v.1c.1-.2.2-.4.4-.4-.1.3.4.4.2.8.6-.5.3-.4.5-1.3l.2.3c.1-.4.1-.5.4-.7-.2.4.3.5.1,1,.9.6.8-1.1,1.6-.1,0-1.1-.9-.3-.8-.6a.49.49,0,0,1,.3-.8c.1,0,.1,0,.2.1a.35.35,0,0,0,.2.1.31.31,0,0,1,.2.1h0a.1.1,0,0,0,.1-.1,1,1,0,0,0,.5-.6.85.85,0,0,0,0-.7,1.07,1.07,0,0,0-.6-.8,1.57,1.57,0,0,0-.9-.1h-.1c-.4-.2-.6-.5-.9-.4.1,0,0-.1.1-.1-.3-.2-.3.5-.6.2.1.6-.3.1-.1.8l.4-.3c-.2.3-.1,1.3-.7,1a1.27,1.27,0,0,1,.1-.6c-.2-.2-.2.2-.4.1-.3-.8.5-.4.6-1.1-.3-.3-.3.7-.5-.1.2,1.1-.5.1-.6,1l-.2-.4a.76.76,0,0,1-.2.4v-.6c-.1.6-.7-.2-.9.2.5-.2.3.5.7.7-.4.9-.9-1-1.5-.5.1-.1.5.1.4.4a.86.86,0,0,1-.6-.3c-.5.3.3.4.2.8-.4-.5-.2.3-.3.6l-.2-.4c-.7,0,.2,1-.4.9v-.7l-.2.3-.2-.5c-.1.5-.3.4-.6.4.2.3.3.8.1.9-.3-.2-.1-.5-.4-.2,0-.3-.1-.7.2-.4a.9.9,0,0,0-.1-.5c-.3-.2-.5.1-.6.2h.2l-.2.8a.25.25,0,0,1-.1-.4c-.1.1-.1.3-.2.4-.1-.4-.3-.7-.2-1l-.3.6c-.1-.1-.5-.3-.4-.5-.4-.1-.4,1-.8.9v.3c-.4.1-.9-.2-1.1.5l-.6-.5c-.3.3.7.6.3,1.1s-.4-.4-.7-.5c0,.4,0,1.2-.6,1C45.2,90.3,45.3,90.3,45.4,90.2Zm.6,6c-.1.1-.2.5-.2.2C46.1,95.8,46,96.1,46,96.2Zm4.9-2.7c-.4.2-.3.1,0,0Zm7.5-.4Zm-1,.6a1.42,1.42,0,0,0,.6-.2c-.4.1-.3,0-.1-.1C57.5,93.6,57.1,93.7,57.4,93.7Zm.6-4.3-.1-.1C58,89.1,58,89.2,58,89.4Z" transform="translate(-9.5 -9.5)"/><path class="cls-8" d="M49.2,94.7l.4-.4C49.5,94.4,49.3,94.5,49.2,94.7Z" transform="translate(-9.5 -9.5)"/><path class="cls-8" d="M47.8,88.6Z" transform="translate(-9.5 -9.5)"/><path class="cls-8" d="M50.4,95.5a4.35,4.35,0,0,0,.7-.4A1.61,1.61,0,0,0,50.4,95.5Z" transform="translate(-9.5 -9.5)"/><path class="cls-8" d="M55.6,96.4a2.65,2.65,0,0,1,.6-.5,10.91,10.91,0,0,1-1.1.6C55.4,96.4,55.9,96.2,55.6,96.4Z" transform="translate(-9.5 -9.5)"/><path class="cls-8" d="M50.9,97.7h0v-.3C50.8,97.5,50.7,97.7,50.9,97.7Z" transform="translate(-9.5 -9.5)"/><path class="cls-8" d="M51.5,97.2a2.49,2.49,0,0,1-.8-.1c-.2,0-.3-.1-.4-.1h-.2l-.8.5h0c.1,0,0-.1.1-.2a.6.6,0,0,0,.1-.4V97c0-.1,0,0-.1.2a.31.31,0,0,0-.1.2h0l1.1-.7h0l.2.1A1.8,1.8,0,0,0,51.5,97.2Z" transform="translate(-9.5 -9.5)"/><path class="cls-8" d="M49.6,96.8v-.1h0v.1Z" transform="translate(-9.5 -9.5)"/><path class="cls-8" d="M57.8,93.9c-.4.2,1.6-.5,1-.2C60.4,93.2,57.4,93.7,57.8,93.9Z" transform="translate(-9.5 -9.5)"/><path class="cls-8" d="M49.2,97.7h0c.1-.1.1-.2.1-.1h0l.2-.1h.1c0,.1-.1.1-.3.2C49.2,97.6,49.1,97.6,49.2,97.7Z" transform="translate(-9.5 -9.5)"/><path class="cls-8" d="M51,96.4l-.7.3a.76.76,0,0,1,.4-.1C50.9,96.5,51.4,96.3,51,96.4Z" transform="translate(-9.5 -9.5)"/><path class="cls-8" d="M50.7,96.7c-.1.1-.2.1,0,.1S50.8,96.7,50.7,96.7Z" transform="translate(-9.5 -9.5)"/><path class="cls-8" d="M49,97.4l.1-.1c0-.1.1-.1.2-.1C49.2,97.2,49.1,97.3,49,97.4Z" transform="translate(-9.5 -9.5)"/><path class="cls-8" d="M53.6,94.4h-.2c-.5.2-.8.4-.7.4A4.93,4.93,0,0,0,53.6,94.4Z" transform="translate(-9.5 -9.5)"/><path class="cls-8" d="M50.1,96.1a4.88,4.88,0,0,1,.7-.3l-1,.4Z" transform="translate(-9.5 -9.5)"/><path class="cls-8" d="M50.3,95.8a3.39,3.39,0,0,0-.8.3A2.61,2.61,0,0,0,50.3,95.8Z" transform="translate(-9.5 -9.5)"/><polygon class="cls-8" points="45.7 83.5 45.6 83.5 47.8 82.4 45.7 83.5"/><path class="cls-8" d="M49.5,95.7c-.9.5,2.2-1.2,1-.5.8-.4.9-.5,1.6-.9C51.4,94.7,51.9,94.4,49.5,95.7Z" transform="translate(-9.5 -9.5)"/><path class="cls-8" d="M52.2,94.2a2.19,2.19,0,0,1,.5-.3C52.4,94.1,52.3,94.2,52.2,94.2Z" transform="translate(-9.5 -9.5)"/><polygon class="cls-8" points="35.2 77.3 35 77.1 35.1 77.4 35.2 77.3"/><path class="cls-8" d="M44.3,87.6l-.1-.6-.1.6C44.2,87.5,44.3,87.4,44.3,87.6Z" transform="translate(-9.5 -9.5)"/><path class="cls-8" d="M45.6,97.6l.1-.2.1-.2Z" transform="translate(-9.5 -9.5)"/><path class="cls-8" d="M43,91.4l-.1.1a1.42,1.42,0,0,1,.6.2A2.19,2.19,0,0,0,43,91.4Z" transform="translate(-9.5 -9.5)"/><path class="cls-8" d="M45.6,88.7c-.1,0-.2.2-.3.3C45.4,88.7,45.9,89.3,45.6,88.7Z" transform="translate(-9.5 -9.5)"/></g></svg>