<svg id="Layer_6" data-name="Layer 6" xmlns="http://www.w3.org/2000/svg" viewBox="0 0 567.21 72.01"><title>clubregistration</title><path d="M621.89,58.17c-.25-9.48-.52-19-.75-28.44q-.1-4.5,0-9a5.15,5.15,0,0,1,.57-2.86,4,4,0,0,1,2.71-1.69,3.44,3.44,0,0,1,2.51,1.91,15.63,15.63,0,0,1,.62,4.9c.19,9.83.16,19.66.53,29.47.25,6.81,1.08,13.6,1.53,20.41a48.08,48.08,0,0,1,0,8c-.2,2-1.09,4-3.59,4.15-2.28.15-3.2-1.55-3.81-3.32-1.46-4.25-2.62-8.61-4.23-12.79C613.4,57.08,608.69,45.36,604,33.62a23.05,23.05,0,0,0-2-2.95c.55,11,1,20.77,1.55,30.54.36,6.31,1,12.61,1.36,18.92.18,3.61-1,5.36-3,5.48s-3.05-1.48-3.24-5.23Q597.32,53.7,595.94,27a13.24,13.24,0,0,1,0-4c.34-1.33.93-3,2-3.65a3.8,3.8,0,0,1,5,.83,35.88,35.88,0,0,1,4.81,6.94c3,6.14,5.62,12.42,8.29,18.69,1.74,4.11,3.29,8.29,4.93,12.44Z" transform="translate(-62.54 -15.01)"/><path d="M178.2,38.2c.9.33,1.47.59,2.07.74,13.89,3.51,18.31,18.72,8.45,29.16a53.82,53.82,0,0,1-20.06,13.64,12,12,0,0,1-3.83,1c-1.88.07-3.51-1.58-2.85-3.22,2-4.86-.07-9.52-.34-14.23-.6-10.45-1.71-20.87-2.63-31.31-.27-3.14-.67-6.28-.85-9.43-.23-3.92.39-4.57,4.12-5.34,2.27-.46,4.48-1.21,6.76-1.64,3.82-.73,7.62-.75,11.2,1.12,5.37,2.8,6.82,7.87,3.45,12.9A85.6,85.6,0,0,1,178.2,38.2Zm-11.67,6.92c.6,10.11,1,19.47,2.82,29.12a46.73,46.73,0,0,0,15.19-11.11c3-3.16,4-6.73,2.36-11s-4.72-6.79-9.35-7C174.1,45,170.62,45.12,166.53,45.12ZM165.3,25.9c-.54,5.41-.31,7.54,1.35,11.7,4.84-3.09,9.88-5.81,12.52-11.24C175,22.9,170.91,22.85,165.3,25.9Z" transform="translate(-62.54 -15.01)"/><path d="M226.35,52.44c0,4.64-.19,9.29.06,13.91.25,4.81.93,9.59,1.38,14.39a4.21,4.21,0,0,1-.19,2.42c-.57.9-1.52,2-2.43,2.1a3.42,3.42,0,0,1-2.84-1.39,12.12,12.12,0,0,1-1.24-4.76c-.69-9.79-1.33-19.58-1.84-29.39-.44-8.3-.68-16.62-1-24.94-.16-4.24,0-4.52,4.22-6,3.45-1.19,6.89-2.45,10.41-3.35,4.61-1.17,8.91,0,12.85,2.54a11.89,11.89,0,0,1,4.52,15.62c-2.84,6.19-7.79,10.24-13.48,13.58-1.12.66-2.29,1.24-3.64,2,5.39,7.67,10.62,15.12,15.86,22.56,1.05,1.49,2.2,2.92,3.16,4.47a2.9,2.9,0,0,1-1,4.33,2.81,2.81,0,0,1-4-.84c-2.66-3.41-5.28-6.85-7.81-10.35-3.69-5.13-7.31-10.31-10.93-15.49a18.8,18.8,0,0,1-1.16-2.23Zm-1.11-9.86c2.19.07,4.3.7,5.93.08,5.9-2.24,10.64-6,13.39-11.9,1.27-2.73.69-5.47-1.86-7a14.31,14.31,0,0,0-6.45-2.05,17.45,17.45,0,0,0-11,3.17Z" transform="translate(-62.54 -15.01)"/><path d="M432,50.94c3.1,3.37,5.54,6.28,8.25,8.93,4.64,4.53,9.44,8.9,14.17,13.33.49.46,1.05.84,1.5,1.33,1.62,1.74,1.91,3.65.67,4.85-1.46,1.41-3.14,1.1-4.53,0-2.35-1.85-4.6-3.83-6.8-5.86C439,67.78,432.84,62,426.79,56.33a18.46,18.46,0,0,0-.16,2.33c.1,6,.26,12,.36,18a8.09,8.09,0,0,1-.27,3.43c-.43.88-1.67,2-2.46,1.93a4.26,4.26,0,0,1-3-1.94c-.58-1.08-.37-2.59-.41-3.92-.31-11.48-.55-23-.93-34.43-.19-5.66-.71-11.3-.95-16.95-.19-4.45-.09-4.65,4.3-5.73A86.58,86.58,0,0,1,435,16.78a16.22,16.22,0,0,1,11.64,3.63c7.14,5.41,8.07,13.68,2.19,20.42A29.72,29.72,0,0,1,437.1,49.1C435.73,49.64,434.33,50.1,432,50.94ZM426,44.78a23.6,23.6,0,0,0,17.63-7.72c4-4.27,3.33-9-1.7-12.11-5.54-3.39-11-2.11-15.93,0Z" transform="translate(-62.54 -15.01)"/><path d="M466.16,17.37c7.57-2,8.79,0,11.36,4.54a126.41,126.41,0,0,1,10.16,24.38c3,9.5,6.28,18.94,9.44,28.41a19.5,19.5,0,0,1,.93,2.83c.28,1.57,0,3-1.68,3.75a2.83,2.83,0,0,1-3.8-1.45,30.3,30.3,0,0,1-2.22-5c-2.18-6.1-4.29-12.23-6.43-18.38H471.41c-.46,5.73-.92,11.14-1.31,16.55-.16,2.16-.05,4.34-.29,6.49-.2,1.75-1.07,3.3-3.06,3.4-2.3.12-3.1-1.6-3.52-3.5a9.38,9.38,0,0,1-.13-2c0-16.8-.61-33.64,2.53-50.3a39.79,39.79,0,0,0,.13-5.47C465.83,20.19,466,18.77,466.16,17.37Zm6.2,10.54V50.09l9.36-.64A64,64,0,0,0,472.36,27.91Z" transform="translate(-62.54 -15.01)"/><path d="M555,57.12a84.71,84.71,0,0,1,5.31-29.76,29,29,0,0,1,1.1-2.77c1.62-3.24,2.75-7.18,7.17-7.46,5-.33,9,2,11.91,6a7.93,7.93,0,0,1,.72,1.31c8,17.22,7.93,34.45-.6,51.39-4.9,9.72-15.3,10-21.41.9-2.78-4.13-3.8-8.81-4.18-13.66C554.89,61.12,555,59.11,555,57.12Zm13.9-33.42c-1.2,3-2.57,5.77-3.5,8.72C562,43.47,560,54.74,562,66.3a19.1,19.1,0,0,0,3.62,8c2.8,3.63,6.47,3.11,8.91-.76a22.15,22.15,0,0,0,1.6-3.1c6-13.85,6.12-27.69.06-41.59C575,26,573,24.34,568.92,23.7Z" transform="translate(-62.54 -15.01)"/><path d="M148.19,47.33c0-7,0-14,0-21a11.56,11.56,0,0,1,.63-4.37,3.51,3.51,0,0,1,2.6-1.81,3.64,3.64,0,0,1,2.63,1.76,8.72,8.72,0,0,1,.67,3.86c0,12.83.08,25.65,0,38.47a39,39,0,0,1-.93,9.42A20,20,0,0,1,150,81.59c-4.05,4.71-10.63,4.32-14.09-.88a27.4,27.4,0,0,1-3.77-9.62,106.78,106.78,0,0,1-1.78-14.84c-.63-9.8-1-19.62-1.45-29.43-.06-1.16-.3-2.49.16-3.44s1.69-2.31,2.62-2.35,2.19,1.11,3,2c.45.52.31,1.58.36,2.41.68,11.63,1.25,23.27,2.08,34.88A114.84,114.84,0,0,0,139,72.66a10,10,0,0,0,1.52,3.64c1.74,2.63,4.51,2.58,5.86-.3A17.26,17.26,0,0,0,148,69.3c.19-7.32.07-14.65.07-22Z" transform="translate(-62.54 -15.01)"/><path d="M306,24.25c-.82,3.15-1.89,6-2.26,8.89-1.16,9.39-2.59,18.83-.69,28.28a28.76,28.76,0,0,0,2.66,7.46c1.85,3.57,3.43,4.25,8.08,4.49,3.36-3.78,5.71-16.16,4.53-24.63l-5.27.52c-1.15.11-2.44.61-3.4.24a4.32,4.32,0,0,1-2.57-2.5c-.17-1,.82-3,1.58-3.11a61.09,61.09,0,0,1,12.23-1.47c2.75,0,4.48,2.36,4.24,5.22-.65,7.77-1.38,15.56-2.6,23.25-.63,4-2.53,7.89-7,8.86a13,13,0,0,1-13.08-4.37,26.32,26.32,0,0,1-6.2-16c-.65-10.14-.41-20.29,1.79-30.29.1-.49.18-1,.31-1.47,2.57-9.83,9.27-12.95,18.52-8.62.74.35,1.7.74,2,1.38.53,1.09,1.1,2.53.8,3.58-.44,1.58-2,2.08-3.66,1.65-2.25-.57-4.5-1.12-6.78-1.55A15.33,15.33,0,0,0,306,24.25Z" transform="translate(-62.54 -15.01)"/><path d="M266.35,26.23c.34,5.54.66,10.78,1,16.65,3.21-.49,6.11-1,9-1.37a35.21,35.21,0,0,1,4.46-.41,2.92,2.92,0,0,1,3.25,2.48c.34,2-.7,3.2-2.53,3.71a30.22,30.22,0,0,1-3.42.61L268,49.5c-1,6,0,23.87,1.73,28.52l8.58-.63c1.49-.1,3.08-.58,4.43-.2a4.24,4.24,0,0,1,2.53,2.54c.23.79-.59,2.28-1.38,2.88-3,2.31-15.17,2.44-18.42.48-2.86-1.73-3.06-4.67-3.3-7.43-.49-5.79-.75-11.61-1-17.43-.41-9.3-.69-18.6-1.12-27.9-.11-2.31-.7-4.6-.94-6.91-.32-3.12.75-4.29,3.9-4.28,5.49,0,11,.11,16.46.17.34,0,.67,0,1,0,3.22.23,4.67,1.29,4.62,3.37s-1.52,3.08-4.79,3.16-6.66,0-10,0C269.06,25.92,267.78,26.11,266.35,26.23Z" transform="translate(-62.54 -15.01)"/><path d="M371.86,29.78c-6.16-4-6.16-4-10-3.71a13.69,13.69,0,0,0,1.86,16.07,42.69,42.69,0,0,0,6,5.23c7,5.4,9.93,12.72,10.3,21.24.26,5.91-3,9.72-8.11,12s-10,2.14-14.32-2c-3.8-3.65-6.21-8.18-8.22-12.95-.74-1.75-.38-3.35,1.42-4.23,1.61-.79,3,0,3.91,1.29.79,1,1.23,2.34,1.94,3.46a57,57,0,0,0,4.71,7c2.64,3,4.85,3.22,8.47,1.37a6.65,6.65,0,0,0,3.79-7.4c-.89-6.32-3.29-11.77-8.85-15.49a31,31,0,0,1-5.26-4.58c-5.9-6.32-6.62-13.84-4.73-21.88a7.35,7.35,0,0,1,5.72-5.62c4.74-1.31,11.14.72,13.46,4.33C375.62,26.51,375.26,27.63,371.86,29.78Z" transform="translate(-62.54 -15.01)"/><path d="M78.27,78c2.43-2.88,2.64-6.47,3.52-9.8.26-1,.17-2,.41-3,.6-2.44,1.92-3.59,3.7-3.2,2.31.51,2.84,2.35,2.4,4.25a98.05,98.05,0,0,1-3.73,13.89c-1.6,4.15-4.62,5.08-9,3.93-4.54-1.19-7.45-4.24-9.43-8.3a36,36,0,0,1-3.58-15.46,70.45,70.45,0,0,1,6.3-30.57c3.91-8.61,11-9.44,16.72-6.09a10,10,0,0,1,3.33,3.56c.79,1.34.73,3.19-.86,3.93a4.4,4.4,0,0,1-3.58-.26c-6.17-3.79-7.95-3.35-10.58,3.3-3.42,8.6-5.54,17.53-4.81,26.81A52,52,0,0,0,72,73,6.86,6.86,0,0,0,78.27,78Z" transform="translate(-62.54 -15.01)"/><path d="M509.82,25.58c-3.05.41-5.51.83-8,1.06a51.85,51.85,0,0,1-6.47.25,3,3,0,0,1-3.08-2.73c-.21-1.75.88-2.78,2.46-3.27a12.15,12.15,0,0,1,1.95-.43l27.65-4,.49-.09c2.95-.28,4.81.74,5.07,2.76s-1.15,3.26-4.32,3.8c-2.76.47-5.53.87-8.4,1.32,0,3.77-.09,7.21,0,10.65.22,7.48.53,15,.84,22.45.27,6.64.58,13.29.86,19.94.16,4-.78,5.8-3,5.84-2.07,0-3.13-1.41-3.49-5.2-.27-3-.34-6-.44-9-.35-11.48-.61-23-1-34.45C510.81,31.61,510.22,28.7,509.82,25.58Z" transform="translate(-62.54 -15.01)"/><path d="M400.75,26.94c.49,8.31,1,16.76,1.49,25.22.29,5.14.47,10.3.76,15.44.24,4.15.58,8.29.86,12.43.09,1.33.47,2.75.13,4a4.72,4.72,0,0,1-2.22,2.83c-1.62.67-3-.48-3.44-2a34,34,0,0,1-1.21-6.86c-.4-6.14-.57-12.3-.9-18.45-.57-10.62-1.2-21.23-1.83-32.17-1.72-.17-3-.34-4.25-.41s-2.33,0-3.49,0c-3.92-.09-5.75-1.18-5.69-3.36s1.81-3.06,5.89-3.18c4.32-.12,8.65-.19,13-.39,2.15-.1,4.29-.52,6.45-.65,3.33-.21,5.36.92,5.56,2.94s-1.44,3.23-5,3.57c-1.66.16-3.32.26-5,.41C401.68,26.23,401.55,26.39,400.75,26.94Z" transform="translate(-62.54 -15.01)"/><path d="M107.58,77.57a20.43,20.43,0,0,0,11.21-.87c2-.67,3.63-.56,4.64,1.47.86,1.72-.1,3.69-2.61,4.62a26.82,26.82,0,0,1-14.76,1.09c-3.46-.7-4.84-2.69-4.92-6.56-.14-6,0-12-.12-18-.22-11.48-.55-23-.83-34.44,0-.83-.27-1.87.13-2.44a5.44,5.44,0,0,1,2.75-2.33,3.15,3.15,0,0,1,2.69,1.57,24.7,24.7,0,0,1,1.17,6.82c.29,14.48.45,29,.65,43.46C107.6,73.76,107.58,75.55,107.58,77.57Z" transform="translate(-62.54 -15.01)"/><path d="M546,80.58c.25,3.39-.53,5-2.42,5.19s-3.31-1.3-3.61-4.49c-1.07-11.42-2.11-22.85-2.9-34.29-.55-8-.65-16-1-23.94-.16-3.69.58-5.49,2.52-5.72s3.24,1.46,3.84,5a45.67,45.67,0,0,1,.54,6c.4,11.14.61,22.3,1.18,33.44C544.48,68,545.37,74.29,546,80.58Z" transform="translate(-62.54 -15.01)"/><path d="M342.06,53q0,10.23,0,20.45a29.77,29.77,0,0,1-.09,3c-.17,1.67-1.09,2.91-2.79,3-2,.1-3-1.21-3.17-3.11-.3-4.65-.53-9.29-.74-13.94q-.93-20.41-1.8-40.82c0-.66-.19-1.51.14-1.93.74-1,1.65-2.16,2.7-2.41.75-.19,2.23.79,2.68,1.62a10.57,10.57,0,0,1,1,4.29c.63,10,1.17,19.9,1.74,29.86Z" transform="translate(-62.54 -15.01)"/></svg>