<svg id="Layer_2" data-name="Layer 2" xmlns="http://www.w3.org/2000/svg" viewBox="0 0 538.34 69.42"><title>clubdescriptions</title><path d="M176.39,81.39c-2.74-19.54-1.18-38.76-3.12-59.12l4-3.43c4.08,0,8.05-.15,12,0,8.45.41,16.2,12.17,8.39,21.1-.64.73-1.2,1.52-1.82,2.31,11,7,13.85,20.08,6.76,30.33-3.5,5.08-8.56,7.12-14.39,7.93-2.93.41-5.81,1.14-8.73,1.54C178.62,82.19,177.65,81.69,176.39,81.39Zm5.31-7.28c2.55,0,4.2.12,5.83,0,8.61-.75,13.58-7.19,12.36-16-1.13-8.08-6.19-11.37-15.25-9.85a31,31,0,0,0-3.94,1.24C181,57.7,181.36,65.65,181.7,74.11ZM180,25c.38,6,.72,11.34,1.07,16.73,5.31-.68,8-2.06,11.13-5.27A6.29,6.29,0,0,0,194,29.7a6.39,6.39,0,0,0-5.86-4.63C185.71,24.85,183.23,25,180,25Z" transform="translate(-80.97 -17.97)"/><path d="M573.21,20.11c2.74.53,3.33,2.43,3.48,4.51s-.05,4,.07,6c.61,10.8,1.27,21.6,1.91,32.4.21,3.49.51,7,.59,10.47.06,2.48-.61,4.66-4.19,5.42a20.09,20.09,0,0,1-3.33-3.51c-1.71-2.84-3.11-5.88-4.6-8.85q-6.81-13.61-13.62-27.23c-.5-1-1.17-1.91-2.31-3.75-.12,2.19-.26,3.27-.24,4.35.21,12.16.49,24.31.62,36.46a15.75,15.75,0,0,1-1,4.16c-3,.7-4.24-.5-4.52-2.6a90.8,90.8,0,0,1-.91-9.44c-.41-13.15-.71-26.31-1-39.46a12.18,12.18,0,0,1,0-2.49c.63-3.55,4-4.91,6.67-2.41a27.6,27.6,0,0,1,5.16,6.67c4.31,7.89,8.35,15.92,12.48,23.9a23.36,23.36,0,0,0,3.51,5.49c0-1.43.06-2.86,0-4.28q-.72-15-1.5-29.95C570.29,23.6,570,21.19,573.21,20.11Z" transform="translate(-80.97 -17.97)"/><path d="M373.75,60.47V83.54c-1.91,2.15-3.58,2.22-5.95-.16V22.31c3.08-1,6.12-2.53,9.32-3.09,6-1.06,11.45.76,15.05,5.74,3.83,5.31,4.73,11.37,1.68,17.46a22.24,22.24,0,0,1-11.24,10.9c-1,.44-2.05,1-3.48,1.61,3.49,4.35,6.92,8.35,10,12.6s7.65,7.3,10.07,11.88c-2.49,3.26-3.54,3.66-5.78,1.88A38.88,38.88,0,0,1,388.13,76c-3.34-3.93-6.51-8-9.8-12-1.14-1.38-2.42-2.64-3.64-3.95Zm.33-11.56a16.21,16.21,0,0,0,13.08-7.63c2.67-4.06,2.52-9.73-.33-12.94-3-3.4-7.52-3.83-12.75-1.1Z" transform="translate(-80.97 -17.97)"/><path d="M608.89,31.29c-1.32-1.3-2.46-2.46-3.63-3.57-3.8-3.64-7.84-4.47-11.23-2.33-3.8,2.38-6.26,8.1-4.74,12.18a9.78,9.78,0,0,0,3.85,4.23c1.3.85,3.14,1,4.77,1.19s3.33.12,5,.27c11.64,1.08,18.74,11,15.71,22.35-2.28,8.51-7.77,14.18-16.32,16.64-6.15,1.76-11.43.16-14.83-5.18A35.45,35.45,0,0,1,583.41,67c-.88-3.47.68-4.8,5.19-4.81.39,1.38.94,2.89,1.24,4.44,2,10.45,9.2,13,17.22,6,4.7-4.12,7-9.2,5.06-15.6-1.35-4.49-3.84-6.67-8.49-7.17-2.48-.27-5-.41-7.44-.75-13-1.78-18.09-14.36-10.08-25a15.3,15.3,0,0,1,24.83.34C612.91,27.25,612.6,28.65,608.89,31.29Z" transform="translate(-80.97 -17.97)"/><path d="M242.36,82.91c-3.51-.66-4-1.08-4.27-4.62-.38-5.47-.52-11-1-16.43-.82-10.43-1.78-20.85-2.66-31.27-.24-2.79-.41-5.59-.63-8.76a21.87,21.87,0,0,1,4.3-1.59c7.95-1.13,14.9,1,20.18,7.19,10.25,12.07,12.83,28.89-.84,42.58-2.57,2.58-5.51,4.79-8.3,7.16C247.06,79,244.91,80.77,242.36,82.91Zm1.47-10.07c6.41-4.15,10.55-8.22,13.25-12.4,7.62-11.79.78-26.64-6.73-31.62-2.81-1.87-5.79-3.08-9.59-1.91C241.78,42.1,242.78,57.16,243.83,72.84Z" transform="translate(-80.97 -17.97)"/><path d="M517.35,23.65c2.89,1.32,6.14,2.33,8.83,4.17s5.46,4.1,7.05,6.84c5.5,9.42,7.28,19.66,4.3,30.3a30.2,30.2,0,0,1-4.71,9.25c-4,5.59-9.47,8-16.57,6.3-7.33-1.76-10.84-6.69-12.18-13.59-1.78-9.23-.48-18.26,2.43-27.06a75.89,75.89,0,0,1,4.86-10.92A9.21,9.21,0,0,1,517.35,23.65Zm.45,7.27c-3.27,4.23-4.9,9.09-6.2,14-2,7.44-2.91,15.06-.73,22.6,2.3,7.94,10.75,9.7,16.32,3.64a18.41,18.41,0,0,0,4.69-9.72A37,37,0,0,0,529.5,41C527.29,35.66,523.38,32.54,517.8,30.92Z" transform="translate(-80.97 -17.97)"/><path d="M142.59,23.36h5.06c.22,2.88.49,5.31.57,7.75.29,8.31.3,16.64.84,24.93a69.35,69.35,0,0,0,2.28,13.24c.86,3.28,2.3,6.58,6.08,8.07,2.88-3.09,3.21-6.84,3.44-10.37.42-6.79.45-13.61.4-20.42,0-7-.43-14-.57-21a12.48,12.48,0,0,1,.73-3.15c3.84-.56,4.77-.08,5.42,2.63a7.37,7.37,0,0,1,.16,1.48c.32,10.49.89,21,.86,31.45,0,5.28-1.12,10.55-1.79,15.82a17.29,17.29,0,0,1-.81,2.87c-1.09,3.55-3,6.59-6.92,7-3.75.41-6.7-1.59-9-4.49-4.2-5.33-5.24-11.75-6.23-18.19-1.82-11.75-1-23.58-1.12-35.39A13.8,13.8,0,0,1,142.59,23.36Z" transform="translate(-80.97 -17.97)"/><path d="M429.79,56.69c.56,6.47,1.1,12.58,1.61,18.69a21.67,21.67,0,0,1,.17,4.47c-.33,2.45-1.28,2.9-5.14,2.65a22.43,22.43,0,0,1-1.21-3.94c-2.65-21.4-3.67-49.6-2-54.87,5.67-3.89,11.91-5.42,18.71-2.9,7.85,2.91,11.73,10.38,9.8,18.46C449.5,48.74,440.39,56.21,429.79,56.69Zm-.35-7.46a7.14,7.14,0,0,0,7.25-.35,19.38,19.38,0,0,0,9-11.52,8.79,8.79,0,0,0-4.6-10.06c-4-2-7.94-1.87-12.24.63C429,35.08,428.75,42.31,429.44,49.23Z" transform="translate(-80.97 -17.97)"/><path d="M299.83,63.74c4.33-.86,5.11-.62,5.92,1.8.58,1.73.8,3.57,1.31,5.32.8,2.74,1.83,5.37,4.38,7,5.79.75,10.19-1.37,12.95-6.29,3.07-5.46,3-11.12.89-16.85a10.87,10.87,0,0,0-5.8-5.91c-2.83-1.41-5.75-2.66-8.48-4.23a13.91,13.91,0,0,1-2.84-22.14c5.6-5.66,15.19-4.5,18.76,2.71L324.15,28c-1.59-.78-2.75-1.4-3.95-1.92-3.71-1.64-6.83-.78-8.63,2.31-2.24,3.85-1.58,7.85,1.8,10.18a38.42,38.42,0,0,0,4.39,2.35c2.07,1.06,4.21,2,6.21,3.17a15.8,15.8,0,0,1,3.9,3.07c5.87,6.86,6.36,14.86,4,23.05-2.19,7.61-7.5,12.39-15.27,14.28A10.57,10.57,0,0,1,306,81.66C301.16,76.74,299.83,70.6,299.83,63.74Z" transform="translate(-80.97 -17.97)"/><path d="M292.7,21.64c.1,1.23.19,2.32.3,3.58-4.6,3.16-9.9.71-14.71,2.12.26,7.39.51,14.63.79,22.56,3.45,0,6.72,0,10,0,2.15,0,4,.37,4.48,3-.31,2.45-2,3.15-4.23,3.14h-10.6c.29,7.85.58,15.21.88,23.22,4.72-.71,8.76-1.36,12.82-1.91,3.62-.49,4.41.36,4.3,4.88a25.15,25.15,0,0,1-4.31,1.59c-3.75.71-7.54,1.24-11.33,1.74-5.19.7-7.53-1.12-7.74-6.45-.27-7-.08-14-.37-21-.43-10.62-1.07-21.23-1.7-31.84-.18-3,.92-4.92,3.61-5.71C277.2,19.92,289.49,20.51,292.7,21.64Z" transform="translate(-80.97 -17.97)"/><path d="M98.11,78.34c1-4,1.91-7.44,2.75-10.94.78-3.21-.1-7.12,3.58-9,2.84.27,3.93,1.91,3.49,4.14-1.1,5.69-2,11.49-3.9,16.92s-6.5,6.66-11.25,3.38a21.63,21.63,0,0,1-5.7-6.12A35.67,35.67,0,0,1,81,57.47a185.19,185.19,0,0,1,1.08-19.84c.46-4.4,2.82-8.15,6-11.2C93,21.8,103.47,23.25,107,29c1.63,2.65,1.18,3.79-2.55,5.65-3.14-2-5.85-6-11.12-4.28-3.09,2.24-4.7,5.78-5.39,9.83-1.84,10.69-1.75,21.2,3.3,31.16C92.6,74,94.05,76.64,98.11,78.34Z" transform="translate(-80.97 -17.97)"/><path d="M354.66,73.88c3.73-5.92,1.28-13.13,3.93-19.6h4.15c.43.89,1,1.48,1,2.07.11,6.67-.17,13.34-2.74,19.6-1.67,4-4.8,5.28-9,4a14.23,14.23,0,0,1-8.07-6.31A41,41,0,0,1,337.28,54a125.82,125.82,0,0,1,.87-19.86,18.12,18.12,0,0,1,5.08-10.65c4.42-4.65,11.49-3.61,14.51,2.16-1.9,5.23-5.52,1.1-8.58,1.42-2.31,1.06-3.41,3.36-4.07,5.73-3.51,12.52-2.71,24.67,3.51,36.26C349.88,71.46,351.46,73.57,354.66,73.88Z" transform="translate(-80.97 -17.97)"/><path d="M476.15,26.34c-.33,20.1-.67,40-1,60.35l-4.92.7c-.27-2.48-.65-4.39-.65-6.3q.12-25.19.34-50.39c0-1.31,0-2.62,0-4.5-3.36-.06-6.45-.16-9.54-.16-2.29,0-4.38-.23-5-3a3.07,3.07,0,0,1,3.23-3.06c10.45-.3,20.9-.6,31.9,0,.23,1.81.43,3.28.64,4.89C486.15,27,481.39,25.29,476.15,26.34Z" transform="translate(-80.97 -17.97)"/><path d="M114,24.07h4c2.14,2,1.84,4.43,2,6.73q1.07,21.2,2.15,42.37c.08,1.45.45,2.89.73,4.65l14.46-2.13.89,5.17a44,44,0,0,1-17.42,3.28,3.9,3.9,0,0,1-3.9-3.28,41.86,41.86,0,0,1-.85-6.4Q114.84,52,113.71,29.61A53.59,53.59,0,0,1,114,24.07Z" transform="translate(-80.97 -17.97)"/><path d="M405.91,23.3l5.26-.41a40.22,40.22,0,0,1,.9,5.3c.37,14.63.67,29.26,1,43.88.06,2.5.12,5,.15,7.49,0,2-.55,3.62-2.85,4.17-2.69-.32-3.29-2.22-3.36-4.6-.17-6.32-.45-12.63-.58-18.95-.21-10.64-.34-21.28-.5-31.92C405.89,26.8,405.91,25.35,405.91,23.3Z" transform="translate(-80.97 -17.97)"/><path d="M495.93,26.31c3,.67,3.2,2.81,3.17,5.07-.11,6.65-.19,13.3-.35,19.94-.19,7.81-.45,15.61-.71,23.42-.06,1.78-.23,3.56-.39,6L492,80.44c0-2.62,0-4.58,0-6.54.31-14.29.66-28.58.95-42.87C493,28.9,493.18,27,495.93,26.31Z" transform="translate(-80.97 -17.97)"/></svg>