<svg id="Layer_9" data-name="Layer 9" xmlns="http://www.w3.org/2000/svg" viewBox="0 0 563.75 68.12"><title>currentlocations</title><g id="RCtCzi.tif"><path d="M564.09,37.38c-.32,5.38-.78,9.8-.8,14.22,0,8,.15,16,.34,24,.09,3.83-1,5.12-4.62,5-1.75-1.62-1.87-3.79-1.86-6,0-4.5-.13-9,.19-13.49.83-11.33.35-22.64-.27-33.95a24.87,24.87,0,0,1-.06-3,3.15,3.15,0,0,1,2.65-3.18c1.5-.27,2.51.55,3.24,1.82,3.64,6.34,7.48,12.59,10.92,19A235.13,235.13,0,0,0,588,64.35c.25-4.11.66-7.41.62-10.7-.13-8.66-.43-17.31-.71-26a27.23,27.23,0,0,0-.51-4.94,4.24,4.24,0,0,1,1.32-4.52c2.12-.86,3.62-.06,4.37,1.93A13.27,13.27,0,0,1,594,24.5c.33,15.15.62,30.3.79,45.45a65.7,65.7,0,0,1-.83,8c-4.08,1.56-4.38,1.51-6.15-1.37Q582,67.22,576.38,57.8c-3.34-5.57-6.6-11.18-9.91-16.77C565.9,40.06,565.24,39.14,564.09,37.38Z" transform="translate(-69.37 -17.12)"/><path d="M265.76,36.66c0,1.64,0,3.27,0,4.91q.09,17.49.19,35c0,2.5.39,5.14-2.85,6.17-2.16-.35-3.12-1.68-3.18-3.78,0-1.67-.08-3.33-.11-5q-.36-24.22-.76-48.44c0-2.3-.05-4.4,2.77-5.23,2.75.35,3.9,2.5,5.27,4.67,6.77,10.73,12.09,22.19,17.33,33.7.55,1.2,1.23,2.34,2.23,4.23.12-2,.3-3.38.26-4.7-.24-9.32-.49-18.63-.84-27.94a54.16,54.16,0,0,0-.92-5.89c-.35-2.36,0-4.35,2.76-5.07,2.18.33,3,1.82,3.32,3.79.57,4.11,1.51,8.22,1.59,12.34.23,12.65.16,25.32.12,38a12.07,12.07,0,0,1-1,4.8c-1,2.2-3.36,2.41-4.84.49a22.45,22.45,0,0,1-2-4q-8.59-18-17.19-36a23.92,23.92,0,0,0-1.27-2.1Z" transform="translate(-69.37 -17.12)"/><path d="M146.06,22.14c5.82-4.5,16.32-5.08,22.17-1.26a26.34,26.34,0,0,1,3.57,2.73,11.44,11.44,0,0,1,2.25,14.5c-2.76,5-7.15,8.24-12.1,10.8-1.3.67-2.68,1.16-4.47,1.93.92,1.1,1.57,2,2.33,2.77,6.69,7,13.42,13.89,20.06,20.9a33.15,33.15,0,0,1,2.93,4.06c-.48,2.41-1.58,3.41-4.18,3.49-4.09-4-8.32-8.42-12.51-12.89s-8.62-8.67-13.42-13.45c0,3.65,0,6.7,0,9.74s.21,6.33.16,9.49,1,6.27-.32,9.71l-4,.58a21.2,21.2,0,0,1-1.41-4.35c-.43-4.8-.85-9.62-.9-14.44-.15-12.16-.11-24.32-.14-36.47Zm6.55,3.36V45a21.17,21.17,0,0,0,15.3-8.94c2.36-3.25,1.73-6.2-1.33-8.76C162.36,23.81,157.65,24.73,152.61,25.5Z" transform="translate(-69.37 -17.12)"/><path d="M197.21,50.13c7.71,9.61,15.11,18.8,22.47,28a8.1,8.1,0,0,1,.9,2.2c-2.7,3.2-3.82,3.4-6.27.56-4.23-4.91-8.25-10-12.36-15l-9.5-11.55c-1.21,10.5,1.13,19.71,1.56,28.73-3.74,2.79-5.58,2.43-6.25-1.34A106.07,106.07,0,0,1,186,66.89c-.26-7.82,0-15.65,0-23.47,0-5.49.13-11,.16-16.47,0-3.46.35-4.31,3.43-5.17,5.81-1.62,11.73-2.45,17.71-.87A12.62,12.62,0,0,1,215.05,26c3.7,5.58,2.93,9.66-.31,13.73a24.52,24.52,0,0,1-11.59,8.33C201.27,48.73,199.41,49.38,197.21,50.13ZM192.91,27v17.5c6.36-.92,11.87-2.49,15.87-7.25,3.65-4.33,1.87-9.93-3.68-10.95A23.56,23.56,0,0,0,192.91,27Z" transform="translate(-69.37 -17.12)"/><path d="M601.62,56.49c2.54.66,3,2.78,3.69,4.87A38.9,38.9,0,0,0,609,69.94c3,4.54,5.79,4.92,10.63,2.24,5.84-3.24,8.53-9.8,6.43-15.65-1.18-3.27-2.78-4.43-6.25-4.66A73.86,73.86,0,0,1,610,51c-11.47-2.4-16.34-15.93-7.43-25.23,5.29-5.52,11.39-7.31,18.54-4.78a14.26,14.26,0,0,1,5.11,3.73,3.2,3.2,0,0,1-.11,4.52c-1.3,1.21-2.68,1-4.1.12A15.88,15.88,0,0,0,618,27.32c-5.57-1.33-9.51.64-12.63,5.62a6.78,6.78,0,0,0,2.86,10.11,23.76,23.76,0,0,0,6.66,1.79,34.42,34.42,0,0,0,5,.07,12.29,12.29,0,0,1,11.9,8.22,20.9,20.9,0,0,1-13.39,27.16,10.65,10.65,0,0,1-10.71-2.05c-5.43-4.56-7.85-10.59-8.84-17.34C598.55,58.77,598.93,56.85,601.62,56.49Z" transform="translate(-69.37 -17.12)"/><path d="M518,51.44a47,47,0,0,1,9.68-28.2,16,16,0,0,1,5.8-4.48c2.8-1.37,5.57-.91,8.46.8,5.79,3.41,7.81,8.79,8.77,14.86a72.25,72.25,0,0,1-2,30.54,22,22,0,0,1-4.08,7.84c-3.67,4.51-8.71,5.34-13.91,2.72-8.44-4.24-11.82-11.68-12.74-20.59A33.84,33.84,0,0,1,518,51.44Zm16.08-26c-.42.59-1.28,1.82-2.15,3a41.35,41.35,0,0,0-7.82,21.28c-.43,6.12.73,12,5.37,16.57,5.79,5.75,11.07,4.58,13.25-3.28a66.19,66.19,0,0,0,1.58-28.16C543.48,29.28,541,26,534.12,25.42Z" transform="translate(-69.37 -17.12)"/><path d="M106.63,21.18l4-.25c.57.69,1,1,1.17,1.46a22,22,0,0,1,1.07,4.32c.76,8.44,1.25,16.91,2.18,25.33.74,6.76,1.88,13.48,3,20.18.51,2.94,2,5.3,5.6,5.64,3.27-.44,4.93-2.79,6.18-5.68a53.35,53.35,0,0,0,4-20.91c.06-8.48-.42-17-.59-25.44-.05-2.25-.77-4.71,1.43-6.54,2.37-.92,3.89,0,4.55,2.3a15.25,15.25,0,0,1,.54,3.92c.1,9.66.24,19.32.16,29a54.41,54.41,0,0,1-4.62,20.8,14,14,0,0,1-7.3,7.81c-5,2.17-11,.71-13.55-4A33.43,33.43,0,0,1,111,68.82a293.69,293.69,0,0,1-4.15-39.14c0-1.32-.55-2.62-.59-3.94A41.43,41.43,0,0,1,106.63,21.18Z" transform="translate(-69.37 -17.12)"/><path d="M476.05,76.85c-2.59.64-3.72-.77-4.45-2.56-1.18-2.92-2.27-5.89-3.31-8.86-.94-2.65-1.76-5.35-2.73-8.33-5.15-1.5-10.4-.8-15.64-1.1-2.29,6.82-1.7,13.86-4.56,20.43l-3.89-1.15c-1.07-3.6-.18-6.64.4-9.74q4.11-22,8-44c.34-1.92.75-3.57,2.79-4.37,3.37-.21,5.14,1.83,6.24,4.65,2.72,7,5.45,13.92,8,20.93,3.42,9.36,6.65,18.78,10.05,28.14C477.78,73,478.3,75,476.05,76.85ZM462.86,49.1c-2.61-6.71-4.93-12.69-7.64-19.64-2.36,6.84-3.25,12.92-4.36,19.34,1.45.13,2.4.27,3.35.29C456.84,49.12,459.47,49.1,462.86,49.1Z" transform="translate(-69.37 -17.12)"/><path d="M376.5,52.09c.49-5.28.62-10.63,1.61-15.81a50.66,50.66,0,0,1,4-11.15c1.23-2.72,3.65-4,6.81-4.21,8.25-.53,12.38,2,14.93,9.92a29.87,29.87,0,0,1,1.71,9.25c-.13,9.11-.39,18.28-2.86,27.13a22,22,0,0,1-3.85,7.42c-4.4,5.63-11.83,6-17,1A15.72,15.72,0,0,1,377,65c-.28-4.28-.06-8.6-.06-12.9Zm14.7,20.79c3.47-1.55,4.88-4.71,5.74-8.17,2.25-9,2.52-18.09,2.09-27.26a16.29,16.29,0,0,0-1.14-4.82c-2.09-5.5-3.9-6.35-10.28-4.85A51.59,51.59,0,0,0,385.06,34c-2.83,10.09-2.48,20.45-1.83,30.73C383.57,70,386,71.84,391.2,72.88Z" transform="translate(-69.37 -17.12)"/><path d="M252.11,25.05c-3.91,2.89-7.88,1.62-11.59,1.85s-7.26,0-11,0c.21,6.83.41,13.19.63,20.12h13.79c1.79,4.37,1.22,5.74-2.31,5.91s-7.29,0-10.84,0c-1.09,3.85-1.21,15.92-.23,22.84,1.37,0,2.82.09,4.26,0,4.8-.35,9.6-.77,14.41-1.15.65,0,1.48-.31,1.91,0A5.41,5.41,0,0,1,253.33,77a3.07,3.07,0,0,1-1,2.56,5.79,5.79,0,0,1-3.14,1.31c-6.13.48-12.27,1-18.42,1.11-5.25.12-6.75-1.6-6.76-6.9,0-10,.18-20,0-30-.15-6.3-.88-12.59-1.44-18.87-.25-2.79.34-4,2.95-4.89a7.82,7.82,0,0,1,2.43-.47c6.66-.09,13.32-.19,20-.12a6.34,6.34,0,0,1,3.56,1.31C252,22.55,251.89,23.89,252.11,25.05Z" transform="translate(-69.37 -17.12)"/><path d="M88.21,77.72c2.62-1.16,3.06-3.43,3.61-5.46a72.31,72.31,0,0,0,1.33-7.34c.37-2.24,1-4.28,3.75-4.59a3.41,3.41,0,0,1,2.69,4.15,79.84,79.84,0,0,1-3,13C94.45,83.28,90,85,84.07,83.19A16.81,16.81,0,0,1,73.19,73.6a46,46,0,0,1-3.64-22.88A67.45,67.45,0,0,1,74.1,31.39,39.87,39.87,0,0,1,77,25.07c4.66-7.61,11.16-8.59,19-5.84a7.21,7.21,0,0,1,2.1,1.34c2.6,2.19,2.4,3.71-1,6.23-1.07-.51-2.24-1.08-3.43-1.62-5.45-2.43-9.33-1.22-11.93,4.25a72.58,72.58,0,0,0-4.3,11.67,49,49,0,0,0-.42,25.17C78.57,72,81.36,76.81,88.21,77.72Z" transform="translate(-69.37 -17.12)"/><path d="M433.62,33c-1.25-1.2-2.25-2.3-3.38-3.24-3.55-3-7.3-2.34-9.56,1.67a45.89,45.89,0,0,0-5.58,21c-.18,4.31-.47,8.65,1.12,12.84s3.81,7,8.71,7.15c2.49-.46,3.74-2.43,4.52-4.69.7-2,1.08-4.17,1.58-6.26.28-1.13.42-2.29.8-3.38.48-1.38,1.54-2.44,3-1.9A4.94,4.94,0,0,1,437,58.59a5.48,5.48,0,0,1,.2,2.45A24.47,24.47,0,0,1,434.05,73c-4.34,7.87-12.8,9-19.13,2.49a20.45,20.45,0,0,1-5.79-13c-.73-10.19-.26-20.33,3.87-29.93a41.59,41.59,0,0,1,3.43-6.63c4.31-6.42,14.16-6.71,18.92-.67C437.66,28.18,437.34,30.14,433.62,33Z" transform="translate(-69.37 -17.12)"/><path d="M316.73,24.75c0,10.32.06,20,0,29.61-.06,7.16-.26,14.32-.46,21.47-.09,3.21-.16,3.21-3.1,5-2.33-.52-3.11-2.16-3.07-4.4.1-5.17.25-10.33.26-15.5,0-11.8,0-23.59,0-35.44-2.87-1.25-5.54-.49-8.13-.69a38.34,38.34,0,0,1-4.92-.52,2.43,2.43,0,0,1-2.16-2.88,4.19,4.19,0,0,1,2-2.49,9.39,9.39,0,0,1,3.87-.65c7.33-.1,14.67-.1,22-.2,2.17,0,4,.36,4.76,2.72-.14,2.21-1.41,3.23-3.54,3.38C322,24.3,319.66,24.51,316.73,24.75Z" transform="translate(-69.37 -17.12)"/><path d="M488.27,26.17c0,4.85-.07,9.47,0,14.09.07,3.48.25,7,.54,10.44.61,7.43,1.32,14.86,2,22.28a13.27,13.27,0,0,1,.1,2,2.88,2.88,0,0,1-2.2,3,2.78,2.78,0,0,1-3.52-2,19.79,19.79,0,0,1-1.11-4.83c-.76-12.26-1.42-24.53-2.11-36.79-.16-2.79-.32-5.58-.51-8.91l-7.2-.28a33.52,33.52,0,0,1-3.48-.15A3,3,0,0,1,468,22a3.18,3.18,0,0,1,2.24-3.49,12,12,0,0,1,3.93-.35c5.81.16,11.62.43,17.43.58a39.84,39.84,0,0,0,5.46-.24c2.65-.29,4.09.86,4.65,3.79C498.82,28.05,493,24.61,488.27,26.17Z" transform="translate(-69.37 -17.12)"/><path d="M355.68,71.29l10-1.63a25.21,25.21,0,0,1,3.43-.54c3.59-.09,4.3,1,3.1,5.57l-10.37,2c-1.79.35-3.59.69-5.39,1-4.54.75-6.94-1.14-7.17-5.88a79.12,79.12,0,0,1,.15-9,211.11,211.11,0,0,0,0-32.4,57.42,57.42,0,0,1-.22-8c.15-3.25,1.17-3.79,5.27-3,1.27,3.49,1.39,7.31,1.41,11.08.07,9.48-.08,19-.13,28.45C355.67,62.82,355.68,66.63,355.68,71.29Z" transform="translate(-69.37 -17.12)"/><path d="M506,17.28c3.38,1,3.34,3.82,3.64,6.16.56,4.44.89,8.92,1.07,13.4.46,11.78.8,23.56,1.16,35.35a16.35,16.35,0,0,1-.18,4c-.34,1.54-1.32,2.8-3.08,2.74s-2.55-1.42-2.66-3c-.29-4.14-.55-8.28-.72-12.43-.46-11.28-.84-22.56-1.33-33.84-.1-2.31-.59-4.6-.81-6.91S503.28,18.32,506,17.28Z" transform="translate(-69.37 -17.12)"/></g></svg>