<svg id="Layer_10" data-name="Layer 10" xmlns="http://www.w3.org/2000/svg" viewBox="0 0 543.95 67.25"><title>currentschools</title><g id="_9zTPlo.tif" data-name="9zTPlo.tif"><path d="M203.5,52.68c5,6.82,10.89,11.79,16.2,17.28,1.62,1.67,3.3,3.29,4.94,4.94s2.19,3.31.76,5.39c-2.28,1.63-3.94.46-5.59-1.2q-8.44-8.52-17-17c-1-1-2.12-2-3.84-3.52.22,4.17.51,7.47.54,10.78,0,3.13-.13,6.26-.33,9.39-.1,1.62-.9,2.85-3.16,3.21l-2.81-2c.2-9.54.57-18.83.53-28.12s-.49-18.61-.79-28.66a14.06,14.06,0,0,1,2.52-1.77,36.39,36.39,0,0,1,16.39-3.58,14.86,14.86,0,0,1,14.28,15.45,11.73,11.73,0,0,1-3.33,7.58,41.14,41.14,0,0,1-14.8,9.93C206.7,51.39,205.35,51.93,203.5,52.68Zm-3.53-6c7-2,12.9-4.74,17.76-9.61,3.17-3.17,2.78-6.58.15-9.73a7.85,7.85,0,0,0-6-3.12c-4.07.05-8.27.22-11.88,3Z" transform="translate(-78.95 -17.83)"/><path d="M272.14,35.23c-.36,12-.73,23-.95,33.92a58.15,58.15,0,0,0,.7,6.92,4.25,4.25,0,0,1-3,4.92l-2.59-1.32a57,57,0,0,1-.61-17.1c.56-5.61.3-11.31.32-17,0-6.16-.05-12.32-.06-18.47,0-1.32.12-2.63.2-4.42l3.82-1a19,19,0,0,1,1.45,1.4c8.84,10.88,15,23.51,22.68,35.13a20,20,0,0,0,4.74,5.35c.06-1.92.09-3.83.18-5.74.25-5.31.74-10.62.72-15.93s-.54-10.61-.8-15.92c-.08-1.63,0-3.27,0-5.36l4-.8c2,2,2,4,2,6q.06,12.48.09,25c0,7.16,0,14.31.08,21.47,0,2.72-.57,5-3.72,5.63-2.51-.7-3.5-2.88-4.74-4.83q-10.68-16.83-21.38-33.65C274.46,38.28,273.55,37.17,272.14,35.23Z" transform="translate(-78.95 -17.83)"/><path d="M158,22.4c5.09-4.51,14.06-5.95,19.41-3.08a12.8,12.8,0,0,1,6.49,9.59c1,5.73-.27,11.07-4.63,15.07-3.14,2.89-6.83,5.17-10.52,7.91.59.64,1.5,1.7,2.49,2.69q7.76,7.77,15.57,15.49c1.93,1.9,3,4,1.63,7.15l-2.88.87L163.22,56.86c-.06,1.14-.21,2.71-.21,4.27q0,8.74.08,17.48c0,1.94-.17,3.7-2.93,4.35l-3-1.87C155.86,61.41,158.37,42,158,22.4Zm6.25,23.12c5.25-1.33,8.33-3.14,11-6.39,3.79-4.67,3.68-8.93-.33-13.77a10.78,10.78,0,0,0-10.64.61Z" transform="translate(-78.95 -17.83)"/><path d="M548.05,49.32A51.82,51.82,0,0,1,544.75,67c-3,8.4-9.55,13.21-18,14.72-7.74,1.37-17.15-2.25-19.78-13.94-1.24-5.55-.34-10.93.33-16.3A56.31,56.31,0,0,1,514,30.82a30,30,0,0,1,3.17-5.05c5.4-6.28,9.3-7,16.66-3.61a17.86,17.86,0,0,1,8.07,7.21C545.53,35.6,548.66,42,548.05,49.32Zm-20.63-24c-5,3.52-4.92,3.59-7.64,7.86-5,7.93-6.88,16.78-7.66,25.94a22.1,22.1,0,0,0,1.82,10.2c1.67,4.12,7,7.3,11.29,6.38,6.32-1.37,11.39-4.61,13.72-11a89.58,89.58,0,0,0,2.84-9.51c2-8.09-.28-15.46-4.55-22.21C535,29.37,531.89,26.24,527.42,25.32Z" transform="translate(-78.95 -17.83)"/><path d="M594.17,39.25a8.31,8.31,0,0,0,5.92,2.88c3.93.48,7.9.93,11.76,1.78,7.95,1.76,12,9.65,10.85,16.77-1.83,11.21-8.09,19.64-21.21,22-2.65.46-4.94-.43-7.15-1.58-7.33-3.8-11.72-12.61-10.15-20.5.52-2.56,1.28-5.25,4.95-5.55l1.68,2.36c-2.35,7.94,0,14.08,6.86,18.44,9.42,2.36,20.41-8.16,18.38-19.84a7,7,0,0,0-4.85-5.81A33.22,33.22,0,0,0,605.38,49c-2.62-.39-5.28-.53-7.87-1-7.94-1.52-11.69-7.75-9.44-15.5a14.47,14.47,0,0,1,13.07-10.58c4-.24,8-.54,11.83.9,2.63,1,2.64.94,5.06,4.34l-2.14,2.51c-4.51-.66-8.23-1.58-12-1.66C596.77,27.84,593.52,31.74,594.17,39.25Z" transform="translate(-78.95 -17.83)"/><path d="M119.07,23.69c2-2.09,3.63-2.13,5.73-.25.36,3.67.85,7.76,1.14,11.86.74,10.27,1.34,20.55,2.14,30.81a21.1,21.1,0,0,0,1.55,6.23c1.4,3.43,3.15,4.37,7.58,4.58,3.52-2.26,4.1-6.22,4.71-9.87a90.74,90.74,0,0,0,1-13.39c.15-9,0-18,.07-27,0-1.61.2-3.22.27-4.41,2-1.7,3.44-1.72,5.37-.28a24.28,24.28,0,0,1,.48,3.5c0,11.83-.06,23.65-.08,35.47a39.65,39.65,0,0,1-2.68,13.6c-1.69,4.65-4.13,8.33-9.69,8.66-6.07.36-10.09-2.63-12.81-7.75-2-3.77-2.35-8-2.68-12.07-.92-11.25-1.46-22.54-2.11-33.82C119,27.62,119.07,25.63,119.07,23.69Z" transform="translate(-78.95 -17.83)"/><path d="M504,49.55c.34,6.86-.38,13.64-3.14,20a28,28,0,0,1-5.33,8.26c-5.15,5.27-11.54,5.12-17.51.73a16.12,16.12,0,0,1-5.7-8,36.12,36.12,0,0,1-1.69-14.16c.2-3,.1-6,.39-9,.66-6.62,1.73-13.17,5.58-18.84,3.46-5.09,8.1-7.57,14.41-6.63a11.77,11.77,0,0,1,7.8,4.85c3.38,4.35,4.55,9.53,5.14,14.83A73.21,73.21,0,0,1,504,49.55ZM491.88,28.19c-6.39-.79-9.63,1.87-11.61,6.41a55,55,0,0,0-4.19,21.78,39.12,39.12,0,0,0,1.07,10.31c1.73,6.56,6.41,9.79,12.06,8.13,3.52-2,5.3-5.35,6.74-8.95s1.82-7.69,2.54-11.59c1.31-7.13,0-13.87-2.63-20.39C495,31.7,493.1,29.9,491.88,28.19Z" transform="translate(-78.95 -17.83)"/><path d="M99.07,78.91c4.46-.8,6.25-3.44,6.94-7,.86-4.37,1.55-8.78,2.38-13.51l2.55-1.31a4.46,4.46,0,0,1,3,4.92c-.33,5.48-.93,10.92-3.48,15.9-2.62,5.14-6.88,7.59-12.62,7.06a18.79,18.79,0,0,1-14.2-8.21,25.18,25.18,0,0,1-4.55-12.5c-.66-9.19.29-18.19,3.84-26.84A37.73,37.73,0,0,1,94.54,22.11c4.54-3.65,9.59-4.38,14.93-1.92,3.13,1.44,3.79,2.38,5.19,6.39a9.59,9.59,0,0,1-1.14,2,8.68,8.68,0,0,1-2.12,1.18c-1.17-.9-2.37-2-3.71-2.83A40.87,40.87,0,0,0,104,25c-5.5,1-8.82,4.56-11.58,8.52a39,39,0,0,0-6.5,17.55c-.67,5.14-1.35,10.23.17,15.29,1.31,4.36,3,8.54,7.49,10.66A46.1,46.1,0,0,0,99.07,78.91Z" transform="translate(-78.95 -17.83)"/><path d="M440.07,50.06c-2.11,10-.29,19.58-.33,28.91-2.21,1.53-3.79,1.58-5.47-.29-.06-1-.21-2.1-.21-3.24q0-24.25,0-48.49c0-2.42-.05-4.74,2.78-5.8A2.67,2.67,0,0,1,440,23.57a40.53,40.53,0,0,1,.42,6.41c-.1,4.46-.38,8.91-.59,13.46l19.85-1.68c1.1-6.77-1.51-13.47-.64-20.12C462,19.57,464,20,464.81,22.73a13.39,13.39,0,0,1,.28,3.48c0,8.33-.11,16.66.1,25,.2,7.47.82,14.93,1.16,22.4a28.23,28.23,0,0,1-.56,4.5l-4.39-.57C459,67.79,461,58.08,459.81,48.4c-3.52-.67-6.77-.11-10,.4C446.67,49.29,443.55,49.62,440.07,50.06Z" transform="translate(-78.95 -17.83)"/><path d="M237,28.91V50.82c6.31.84,12.6-.48,18.66.46,1.94,1.86,1.92,3.55,0,5.46l-18.3,1.14c-1,5-.19,9.78-.51,14.68,7.14-.17,13.74-2,20.76-1.61.21,1.61.37,2.85.6,4.53a29.71,29.71,0,0,1-4.71,1.59q-7.37,1.13-14.78,1.93c-3.82.41-4,.29-7.2-1.34a11.13,11.13,0,0,1-.87-5.63c.32-12.45,1-24.92-.34-37.36a64.36,64.36,0,0,1-.25-8,14.54,14.54,0,0,1,.86-3.27A163.62,163.62,0,0,1,258,22.36c1.23.06,2.43.88,3.49,1.28.43,3.84-.31,5-3.54,5.16-3.82.19-7.65.09-11.48.11C243.49,28.92,240.52,28.91,237,28.91Z" transform="translate(-78.95 -17.83)"/><path d="M361.18,60.48l3.87-.6c.65.61,1.13.89,1.36,1.3,1.19,2.19,2.28,4.43,3.47,6.61a36.71,36.71,0,0,0,2.81,4.68c2.72,3.57,4.67,4,9.11,2.72a12.63,12.63,0,0,0,6.92-4.37c1.26-4.29-.18-7.75-3.1-10.54-3.11-3-6.56-5.59-9.82-8.43-3.72-3.24-6.37-7-7.15-12.14-1.13-7.36,3.34-15.61,8.25-18.55,3.55-2.14,7.47-1.51,11.2-.94,2.32.35,5,1,5.87,4.36-.38.59-.73,1.82-1.43,2.07a8.58,8.58,0,0,1-3.85.27c-2.6-.31-5.17-.84-7.3-1.2-5.92,4-7.28,9.18-6.25,15.07,2.14,5.26,6.75,7.87,10.74,11.08,4.36,3.51,7.86,7.49,9.31,13.15a11.13,11.13,0,0,1-3.39,11.73A19.64,19.64,0,0,1,376.7,82a10.59,10.59,0,0,1-6.23-2.82c-4.85-4.18-7-10-9.43-15.63C360.76,62.9,361.09,62,361.18,60.48Z" transform="translate(-78.95 -17.83)"/><path d="M327.13,27.19c-5.8-1.25-11.47,1-16.33-1.61-1.32-1.91-1.25-3.4,0-4.8,3.41-.87,31.35-1.08,35.78-.17.16,1.17.36,2.53.54,3.83-4.19,3.09-8.85.69-13.07,2.27-.29,3.86-.8,7.8-.84,11.74-.12,12.32,0,24.64-.12,37,0,2.73,1.58,5.6-.77,8.24-2.89,1-4.08.73-4.76-1.74a18.85,18.85,0,0,1-.49-4.93q0-22,.06-43.95Z" transform="translate(-78.95 -17.83)"/><path d="M416.26,73c3.71-2.65,2.88-7.64,5.63-11.15l3.52.63c1.32,5.75-1.52,13.43-5.8,16.2a6.76,6.76,0,0,1-5.68.89c-5.71-1.5-9.19-5.31-10.92-10.64-4.4-13.57-4.92-27,2.39-39.91A32.07,32.07,0,0,1,409,23.69a10,10,0,0,1,9.4-3.45c3,.5,5.82,1.59,6.6,5.05-1.64,2.92-2.19,3.41-4.42,2.48a9,9,0,0,0-6.07-.65c-3.19,2.78-4.94,6.78-6.39,10.79-3.35,9.21-3,18.58,0,27.79a20.71,20.71,0,0,0,3.66,5.82A4,4,0,0,0,416.26,73Z" transform="translate(-78.95 -17.83)"/><path d="M552,23.44c4-2.27,5.64-1.62,6,2.19.37,4.14.59,8.29.76,12.43.5,11.47.91,22.94,1.42,34.4A35.74,35.74,0,0,0,561,77l21.23-2.31,2.87,3.07c-.77,1.12-1.48,2.16-2,2.89L557.92,84c-3.57-2-3.63-5.07-3.71-8-.18-6.66,0-13.34-.29-20-.45-9.28-1.26-18.55-1.87-27.83C551.94,26.54,552,24.89,552,23.44Z" transform="translate(-78.95 -17.83)"/></g></svg>