<svg id="Layer_2" data-name="Layer 2" xmlns="http://www.w3.org/2000/svg" viewBox="0 0 700.52 427.82"><defs><style>.cls-1{fill:#231f20;}</style></defs><title>SMGandSTLUCYbox</title><g id="_9TPVpf.tif" data-name="9TPVpf.tif"><path class="cls-1" d="M714,407v5c-1.89,8.32-9.55,9.05-15.69,11.81L697,429c-1.63.93-3,1.85-4.53,2.53a13.72,13.72,0,0,1-2.9.63,394.3,394.3,0,0,1-69.41,7.55c-29,.63-58,.34-87,.4-4.32,0-8.66-.18-13-.41-22.95-1.18-45.9-3.4-68.85-3.45-77-.15-154,.48-230.94.78-23.17.09-46.33-.14-69.49.19-40.31.56-80.62,1.49-120.94,2.11a25.44,25.44,0,0,1-9.16-1.83c-1.54-.59-3.39-2.53-3.61-4.07-1.24-8.67-2.7-17.4-2.8-26.13-.13-11.71-1-23.41,1.22-35.21,1.69-8.9,1.14-18.25,1.3-27.41C17.37,317.85,18,291,18,264.21c0-61.14,1.72-122.3-1-183.43-.28-6.15-.23-12.43-1.5-18.4a101.74,101.74,0,0,1-1.32-31.65c.33-3.32,2.06-7.37,4.54-9.42A28.53,28.53,0,0,1,36.57,15c21.82-.49,43.63-1.58,65.45-1.79,48.66-.45,97.31-.34,146-.78,73.66-.67,147.28,1.35,220.92,2.77,27.14.52,54.26,2.4,81.4,2.58,46,.31,92-.25,138-.42a47.61,47.61,0,0,1,6,.23c5.78.69,7.92,3.11,8.87,8.84.61,3.73,1.21,7.73,3,10.93a21.76,21.76,0,0,1,3,10.24C710,72.75,710.51,97.9,708,123c-.47,4.74-1.73,9.43-1.94,14.17-.58,13.3-.51,26.64-1.25,39.94-1,18.54-1.41,37.11-4.46,55.56-2,11.93-1.87,24.23-2.17,36.38-.23,9.14.06,18.33.74,27.44.51,6.88,1.92,13.7,3.08,20.52,2.39,14,2.72,28.28,5.53,42.36,2.9,14.52,6.54,29.17,5.84,44.27A15.41,15.41,0,0,0,714,407ZM38.46,28.08c.61,10.84,1.17,21.15,1.78,31.45.29,4.82.53,9.66,1,14.46.8,7.37,2.37,14.7,2.63,22.08.45,12.32.27,24.66.08,37-.28,18.91.66,37.85-2.76,56.67-2.31,12.69-3.41,25.6-5.11,38.4-2,15-4.29,29.85-6,44.83a286,286,0,0,0-2,30.38c-.15,28.41-.72,56.87,3.91,85.08,1.27,7.72,2,15.52,3.17,23.26.59,4.07,2.42,7.06,7.1,7.55,7.75.81,15.48,2.69,23.21,2.68q196.2-.3,392.42-1c21-.07,42-.63,63-1.21,25.31-.7,50.6-1.77,75.91-2.49,19.81-.57,39.64-.63,59.45-1.32,10.67-.38,21.15-2.17,30.92-8.73-.2-4-.23-8.31-.69-12.56-.68-6.38-2.35-12.72-2.42-19.09-.63-62.31.71-124.63-2-186.94-1.32-30.61-.46-61.31-.67-92-.09-12.87,1.12-25.82-3.82-38.32-2.28-5.76-3.39-12-4.66-18.12-.91-4.37-3.34-6.65-7.6-7.26-2-.29-3.93-.75-5.92-.88q-26.16-1.68-52.35-3.26c-35-2.13-69.94-2-104.93-1.36-32.15.58-64.3,2.06-96.45,2-78-.08-156-.87-233.95-1.25-43.16-.21-86.32-.19-129.48-.26C41.17,27.88,40,28,38.46,28.08ZM24.71,28c.27,3.32.38,6.13.77,8.9.36,2.58,1.34,5.1,1.49,7.68.42,7,.74,14,.75,21q.11,66.93.07,133.85v32.77C39.56,164.22,37.35,96.21,30.15,28Zm666.62-.74h-7.75c3.51,2.43,4.07,5.8,4.57,9.33,2.12,14.78-.35,29.74,2.56,44.63,2,10.32,1.27,21.24,1.33,31.89.13,23.33,0,46.67,0,70v8.11a39.55,39.55,0,0,0,1.54-8.41c1.4-13.19,3.79-26.37,4-39.58.45-32.82-.25-65.65-.15-98.48C697.38,38,695.17,32.57,691.33,27.23Zm-582,403.55v-.28c-16.12-.54-32.23-1-48.34-1.64-10-.39-20-.45-29.05-5.61-2.43-1.38-5-2.4-8.33-3.94L25.28,432Zm594-56.35-1.27.25c-3.5,13.51-1.69,27.22-2.23,41.76l5.65-3Q704.47,394,703.4,374.43Zm-44.89,51.8-74.76,2.2C608.64,429.36,633.51,429.65,658.51,426.23Zm-145.15,5.3,0,1.66h39.79C542,432.89,527.71,430.78,513.36,431.53Z" transform="translate(-13.48 -12.3)"/></g></svg>