<svg id="Layer_7" data-name="Layer 7" xmlns="http://www.w3.org/2000/svg" viewBox="0 0 369.01 67.93"><title>thanks</title><path d="M379.57,84.74a9.6,9.6,0,0,1-2.28-1.49c-5.26-6-10.16-12.26-13.83-19.49-4.37-8.6-9.27-16.93-14-25.37-.88-1.57-1.89-3.07-3-4.91,0,11,0,21.64,0,32.24,0,4.33.31,8.65.45,13,0,.83.2,1.87-.21,2.44-.71,1-1.81,2.3-2.78,2.33a3.7,3.7,0,0,1-2.8-2.19,31.11,31.11,0,0,1-.88-7.41c-.19-11.66-.23-23.33-.39-35-.06-4.82-.27-9.65-.48-14.47-.11-2.52.17-4.69,3.22-5.35,2.87,1,4.65,3.05,6.08,5.58q11,19.59,22.12,39.14a28.72,28.72,0,0,0,5.05,6.89,31.22,31.22,0,0,0,.32-3.17c-.05-12.33-.1-24.66-.25-37a69,69,0,0,0-.73-7.42c-.32-2.7.5-4.48,2.3-4.86s3.26,1,4,3.64a11.8,11.8,0,0,1,.47,2.95q.52,27.48,1,55C383,82.13,382.56,84.11,379.57,84.74Z" transform="translate(-176.57 -16.96)"/><path d="M473.51,19.72c4.75.76,9.52,1.43,14.25,2.33a16.47,16.47,0,0,1,4.59,1.84,3.11,3.11,0,0,1,1.56,4.24c-.84,1.84-2.43,2.08-4.22,1.29-5.95-2.62-12.28-2.84-18.62-2.74-5.13.09-8.47,3.2-9.14,8.13-.47,3.49.55,5.62,4,6.32,4.71.93,9.56,1.15,14.33,1.81,4.1.57,8.19,1.24,12.25,2,10.22,2,14.13,16.78,8.4,24.36a32,32,0,0,1-7.47,7.23,33.85,33.85,0,0,1-18.36,5.63c-8,.21-14.14-3.19-18.62-9.67a38,38,0,0,1-6-15.75,3.63,3.63,0,0,1,3-4.63,3.06,3.06,0,0,1,2.35,1.43A13.87,13.87,0,0,1,457,57.37a32,32,0,0,0,5.59,12.68,14.34,14.34,0,0,0,13.08,5.86c6.61-.53,12.73-2.54,17.66-7.24,2.35-2.24,4.05-4.87,3.8-8.34-.43-5.91-2.75-8.69-7.15-9.47-3.75-.68-7.51-1.33-11.3-1.79-4.29-.52-8.65-.53-12.9-1.26-6.39-1.11-10.47-5.8-10.58-11.53-.14-8.06,6.71-15.59,14.76-16.18,1.16-.08,2.33,0,3.5,0Z" transform="translate(-176.57 -16.96)"/><path d="M240.94,42.79l28.88-1.72a38.13,38.13,0,0,0,.42-3.84c0-4.67-.05-9.33-.09-14,0-.83-.08-1.66,0-2.49a3.12,3.12,0,0,1,2.57-3.25c2-.31,3.11,1,3.51,2.78a20.94,20.94,0,0,1,.57,4.44q.06,26.22,0,52.43a8.53,8.53,0,0,1-.7,3.85,3.61,3.61,0,0,1-2.61,1.79,3.55,3.55,0,0,1-2.55-1.88,11.52,11.52,0,0,1-.66-4.36c-.06-7.66,0-15.32,0-23,0-1.66,0-3.32,0-5.43-9.95-1-19.61,1-29.65.94a32.87,32.87,0,0,0-.44,4c.15,7.32.39,14.64.57,21.95a25.12,25.12,0,0,1-.09,6,3.81,3.81,0,0,1-2.67,2.4,3.87,3.87,0,0,1-2.92-2,12.75,12.75,0,0,1-.8-4.87c-.15-6.49-.27-13-.22-19.47,0-5.91-.36-11.81,0-17.74s0-11.64-.07-17.47c0-.5,0-1,0-1.5,0-1.71.86-2.95,2.58-3.14a2.93,2.93,0,0,1,3.28,2.49,45,45,0,0,1,.87,7.42c.13,3.82,0,7.65,0,11.48C240.71,39.86,240.84,41.15,240.94,42.79Z" transform="translate(-176.57 -16.96)"/><path d="M322.64,52.36c.64,2.68,1.11,5.27,1.89,7.76,1.65,5.23,3.47,10.4,5.21,15.61a19.25,19.25,0,0,1,.81,2.88c.32,1.91-.63,3.62-2.19,3.94a3,3,0,0,1-3.58-2c-1.37-3.56-2.6-7.18-3.83-10.79-1.4-4.09-2.72-8.19-4-12.17-4.14-1-15.44-.73-20.53.52-.77,4.94-1.61,10.14-2.39,15.35-.22,1.48-.18,3-.44,4.47-.56,3.13-1.84,4.48-3.88,4.32s-3.07-1.73-2.65-5c.73-5.6,1.7-11.17,2.57-16.75.1-.65.24-1.3.29-1.58-1-1.82-2.62-3.47-2.4-4.82s2.27-2.42,3.83-3.4C294,41.39,297,32,297.9,22.24a4.87,4.87,0,0,1,3.15-4.57c2.82-1.23,4.11-1,5.84,1.73A45.48,45.48,0,0,1,310,25.12c3.12,7,6.12,14,9.26,21C320.14,48.18,321.4,50.11,322.64,52.36ZM304.71,28.47l-1.08.28c-1.73,7.29-3.47,14.57-5.33,22.41L314.1,50Z" transform="translate(-176.57 -16.96)"/><path d="M409.38,47.26a34.6,34.6,0,0,0,3.43,3.42c6.63,5,13.32,10,20,14.93,3.2,2.38,6.43,4.74,9.57,7.19a8.51,8.51,0,0,1,2.28,2.58,2.5,2.5,0,0,1-2,3.71,6.36,6.36,0,0,1-3.69-1q-11.58-8.24-23-16.7c-3.46-2.56-6.73-5.37-10.61-8.48-.11,1.67-.24,2.87-.25,4.07,0,7.33,0,14.66,0,22a10.92,10.92,0,0,1-.32,3.94c-.36.89-1.65,2-2.43,2a4.12,4.12,0,0,1-3-1.94c-.57-1.28-.37-2.93-.38-4.42,0-12.83,0-25.65-.06-38.47,0-5-.4-10-.62-15a18.92,18.92,0,0,1-.08-2c.1-1.63.73-3,2.5-3.26,2-.31,3.19.8,3.62,2.63a22.08,22.08,0,0,1,.61,4.43c.12,3.49.08,7,.15,10.49,0,1.1.15,2.21.27,3.73,5-2.87,8.9-6.46,12.78-10,3.67-3.39,7.18-6.95,10.76-10.44.35-.35.66-.75,1-1.07,2-1.68,3.48-1.82,4.82-.47s1.3,2.77-.39,4.88a35.53,35.53,0,0,1-3.77,4C423.73,34.26,416.82,40.51,409.38,47.26Z" transform="translate(-176.57 -16.96)"/><path d="M205.72,23.09c.14,17.92.29,34.89.41,51.85a13.13,13.13,0,0,1-.26,4.45c-.38,1-1.7,2.32-2.63,2.34a4.11,4.11,0,0,1-2.88-2.14c-.55-1.09-.37-2.6-.37-3.92-.05-10,.06-20-.12-30-.13-7-.65-14-1-21.4-2.42,0-4.68-.09-6.92,0-3.32.16-6.63.5-9.95.7a10.61,10.61,0,0,1-3-.17c-1.68-.39-2.75-1.73-2.35-3.28a4.17,4.17,0,0,1,2.62-2.48,34.78,34.78,0,0,1,6.93-.77c11.8-.49,23.6-1,35.41-1.34,3.23-.1,4.91,1,5.09,2.83.19,2-1.64,3.23-5.16,3.26C216.26,23.12,211,23.09,205.72,23.09Z" transform="translate(-176.57 -16.96)"/><path d="M529.21,19c2.66,0,5.33-.13,8,0a19.43,19.43,0,0,1,5.35,1c2.49.91,3.47,3,2.88,5.58a18.34,18.34,0,0,1-1.18,3.28q-6,13.44-12,26.85a9.21,9.21,0,0,1-1.85,2.9c-2.33,2.24-5.22,1.85-6.42-1.18-4.14-10.48-8.54-20.91-10.63-32.07-.66-3.52,1.31-5.88,5.37-6.22,3.47-.28,7-.06,10.47-.06Zm-8.07,6.44c-.09,5.91,4.16,18.66,7.51,23,1.69-3.82,3.48-7.55,5-11.39s4.08-7.06,4.45-11.63A112.47,112.47,0,0,0,521.14,25.43Z" transform="translate(-176.57 -16.96)"/><path d="M529.63,81c-5.32-.28-8-3.37-7.67-8.91.35-6,3.25-9.17,8.38-9A9,9,0,0,1,529.63,81Zm-.38-11.26c-.4,1-1.06,1.89-1,2.72s.82,2,1.41,2.06a2.65,2.65,0,0,0,2.15-1.36C532.45,71.52,532.24,70,529.25,69.76Z" transform="translate(-176.57 -16.96)"/></svg>