<svg id="Layer_1" data-name="Layer 1" xmlns="http://www.w3.org/2000/svg" viewBox="0 0 174.74 185.25"><defs><style>.cls-1{fill:#ffd400;stroke:#f7941d;stroke-miterlimit:10;stroke-width:2px;}</style></defs><title>summericon</title><g id="uG1J7h.tif"><path class="cls-1" d="M107.83,105c-.77-1.43-1.45-2.56-2-3.75a5.24,5.24,0,0,1,.85-6.06A5.47,5.47,0,0,1,113,93.56c4.16,1.55,6.3,4.79,6.91,9a15,15,0,0,1-9,15.76c-7,2.89-13.75,2.3-19.93-2.14s-8.16-10.73-7.25-18c2-15.71,14.15-25.25,29.78-23.36,19.18,2.3,31.61,19.58,27.66,38.43-5.14,24.55-29.3,38.44-54.09,31.24-14.9-4.33-24.48-14.15-28.67-28.73C52.79,96.18,56.83,78.43,71,63.53c10.5-11,23.43-14.8,38.32-11.09,2.9.73,5.72,1.78,8.54,2.77A15.5,15.5,0,0,1,121,56.79c3.3,2.12,4.58,5.22,3.37,8-1.36,3.09-4.5,4.06-8.56,2.78-4.26-1.35-8.52-2.78-12.86-3.86-5.81-1.45-11.25,0-16.32,2.9A30.58,30.58,0,0,0,75.38,77.05c-8.46,13.8-10,28-2.1,42.64,6.12,11.32,20.16,16.14,32.81,14,11.91-2,21.13-11.54,23.37-23.73,2.51-13.71-10.4-26.07-23.89-22.85-6,1.45-11.2,10.22-9.5,16.19C97.46,108.2,103.51,109.26,107.83,105Z" transform="translate(-13.7 -8.39)"/><path class="cls-1" d="M172.12,30.65a22.59,22.59,0,0,1-2.48,4.27c-2.59,3-5.37,5.92-8.21,8.71-4,4-8.18,7.82-12.35,11.65a21.24,21.24,0,0,1-4.36,3.27A5.91,5.91,0,0,1,137.09,57c-1.56-2.16-1.45-5,.59-7.34A73.2,73.2,0,0,1,143,44.36c5.81-5.49,11.6-11,17.49-16.38a16.79,16.79,0,0,1,5-3.24C169,23.35,172.24,25.86,172.12,30.65Z" transform="translate(-13.7 -8.39)"/><path class="cls-1" d="M32.22,33.76a15.4,15.4,0,0,1,3.86,1.54q9.84,6.8,19.46,13.91A18.32,18.32,0,0,1,59.83,54a5.51,5.51,0,0,1-.66,6.91,5.91,5.91,0,0,1-6.91,1,10.6,10.6,0,0,1-1.7-1c-6.82-5-13.65-10-20.43-15.11a13.23,13.23,0,0,1-3.47-3.49C24.28,38.3,26.88,33.82,32.22,33.76Z" transform="translate(-13.7 -8.39)"/><path class="cls-1" d="M42.21,169.52c-4.56-.13-7.26-4.05-5.5-7.74a14.71,14.71,0,0,1,3.78-4.52c5.66-4.89,11.44-9.65,17.19-14.45a15.71,15.71,0,0,1,2-1.51c2.84-1.69,5.78-1.42,7.77.68s2,5,.16,7.8a1.68,1.68,0,0,1-.3.4c-7.4,6.16-14.78,12.36-22.25,18.44A7.5,7.5,0,0,1,42.21,169.52Z" transform="translate(-13.7 -8.39)"/><path class="cls-1" d="M111.63,174.43c.15,3.33.35,6.66.44,10a14.56,14.56,0,0,1-.3,4,5.45,5.45,0,0,1-5,4.25,5.39,5.39,0,0,1-5.33-3,11.13,11.13,0,0,1-1.25-4.27c-.46-7.64-.79-15.29-1.11-22.94a9.31,9.31,0,0,1,.39-3,5.71,5.71,0,0,1,5.33-4.5,5.54,5.54,0,0,1,5.62,4.11,17.56,17.56,0,0,1,.71,4.91c.11,3.49,0,7,0,10.48Z" transform="translate(-13.7 -8.39)"/><path class="cls-1" d="M170.72,94.21c3.35,0,6-.12,8.65,0a15.47,15.47,0,0,1,4.82,1,5.61,5.61,0,0,1-.12,10.23,11.53,11.53,0,0,1-3.85.82q-8.21.36-16.42.47a12.36,12.36,0,0,1-3.9-.65,5.54,5.54,0,0,1-4.15-5.55A5.45,5.45,0,0,1,160.5,95C164.09,94.47,167.76,94.42,170.72,94.21Z" transform="translate(-13.7 -8.39)"/><path class="cls-1" d="M170.3,155.24a5.39,5.39,0,0,1-6.15,5.58,9.91,9.91,0,0,1-4.1-1.61c-4.79-3.28-9.49-6.69-14.19-10.1a10,10,0,0,1-2.1-2.1,5.77,5.77,0,0,1-.31-6.95,5.63,5.63,0,0,1,6.66-2,18.51,18.51,0,0,1,4.35,2.35c4,2.73,7.86,5.56,11.77,8.36C168.46,150.39,170.29,152.24,170.3,155.24Z" transform="translate(-13.7 -8.39)"/><path class="cls-1" d="M105.88,25.5c0,2.5.08,5,0,7.5a14,14,0,0,1-.69,3.9,5.69,5.69,0,0,1-6,4.18c-2.68-.26-4.6-2.25-5.09-5.33a13.29,13.29,0,0,1-.12-2c-.06-5.5-.15-11-.17-16.49,0-4.91,2.15-7.83,5.74-7.88,3.32,0,5.89,2.69,6.27,7.13.26,3,.05,6,.05,9Z" transform="translate(-13.7 -8.39)"/><path class="cls-1" d="M24.86,115.9a35.05,35.05,0,0,1-4.47,0c-3.58-.49-5.7-2.73-5.69-5.8,0-2.88,1.87-5.09,5.2-5.75,2.27-.44,4.61-.5,6.92-.73,3.62-.37,7.24-.83,10.88-1.1s6.58,1.72,7.08,4.8A5.85,5.85,0,0,1,40.1,114c-5,1.1-10.13,1.53-15.21,2.25Z" transform="translate(-13.7 -8.39)"/></g></svg>