<svg id="Layer_3" data-name="Layer 3" xmlns="http://www.w3.org/2000/svg" viewBox="0 0 164.47 188.07"><defs><style>.cls-1{fill:#83d4f0;stroke:#1b75bc;stroke-miterlimit:10;stroke-width:2px;}</style></defs><title>wintericon</title><g id="Qidyrr.tif"><path class="cls-1" d="M107.48,173.16c-.57,7.07-1.07,13.3-1.51,18.74-.93,1-1.12,1.37-1.43,1.52-6.17,3.1-9.12,1.32-9.48-5.53-.17-3.19-.66-6.36-1-9.93-3.55.72-6.27.41-8.18-2.38-2.15-3.16-2.33-4.89.11-7.85a88.87,88.87,0,0,1,6.78-7.08c2.17-2.11,2.89-4.48,1.85-7.91-1.18.91-2.12,1.58-3,2.31-1.39,1.16-2.73,2.37-4.12,3.54-1.89,1.59-3.87,1.85-6,.36a5.42,5.42,0,0,1-2.26-6.2,20.46,20.46,0,0,1,3.29-5.56c2.39-3,5-5.72,7.61-8.54a14.1,14.1,0,0,0,4-10.84c-.26-4,0-8-.07-12,0-1.39-.29-2.77-.51-4.69-5,2.83-9.63,5.35-14.16,8-1.86,1.07-2.15,2.78-1.54,4.73,1.91,6.09.51,12.25.35,18.37a5.2,5.2,0,0,1-.38,1.59c-1.12,3.23-3.5,5-6.5,4.74s-5.15-2.28-5.48-5.78a71.68,71.68,0,0,1,.11-7.61c0-1.75,0-3.49,0-5.34-5.17,1.13-5.63,1.68-6.23,5.79a93.06,93.06,0,0,1-2.19,12.28c-1.48,5.09-3.28,5.85-8.56,4.74a9,9,0,0,1-1.33-.48c-2.94-2.68-.72-5.93-1.12-9.55C44.6,144,43.2,145,41.73,146c-3,2-6,4.09-9.24,5.73s-6.13.68-7.73-1.76a6.47,6.47,0,0,1,1-8,42.63,42.63,0,0,1,4.3-3.31,107,107,0,0,0,9.64-8.26c-5.07-1-10.47-.8-13.27-6.63.08-2.64,1.7-4.64,4.61-5.46,3.48-1,7-1.93,10.69-1.29,3.94.67,7.91,1.09,11.85,1.77,2.26.39,4.21.28,6.1-2.07-1.75-.81-3.16-1.48-4.59-2.13a31.36,31.36,0,0,1-3.94-1.82c-3-1.94-4.06-5.15-2.7-8s4.45-4.13,7.83-2.9c4.94,1.81,9.82,3.81,14.72,5.72l3.15,1.21L90.91,98.6c-4.26-3.55-7.8-5.5-12.87-3.75-5.82,2-11.86,3.42-17.85,4.92-2.79.7-5.65,1.42-8.4-.5s-3.53-4.81-1.22-7.33a14.52,14.52,0,0,1,4.52-2.82c1.29-.61,2.83-.72,4.12-1.34,1.59-.76,3-1.81,4.92-3-3.81-2.26-7.27-2.86-11.32-1.47s-8.1,2-12.17,2.94a15.33,15.33,0,0,1-2.68.46c-3.66.19-6.52-1.62-7.24-4.49-.79-3.2,1-6.09,4.7-7.55,1.48-.58,3-1,5-1.68-1.84-3-4.68-3.74-7.06-5.13a62.07,62.07,0,0,1-8.18-5.11,6.06,6.06,0,0,1-1.38-8.3c1.58-2.24,4.7-3,7.89-1.75A48.5,48.5,0,0,1,36,55.17c4.42,2.37,8.86,4.69,13.44,7.11,1.41-2.2.63-4,.08-5.89A27.65,27.65,0,0,1,48.29,50c-.33-6.44,1.27-8.1,8.11-8.81,2.29,1.22,3.06,3.5,3.43,5.83.92,5.72,1.7,11.48,2.41,17.23C63,70.22,65.7,73,72.37,73.9c-.26-1.14-.45-2.13-.7-3.11-1.28-5,0-8.41,3.68-9.41s7.33,1.32,8.72,6A54.3,54.3,0,0,1,86.12,77c.43,4.19,2.36,6.67,6.86,7.54,1.38-4.43,1-8.91.76-13.33A4.36,4.36,0,0,0,92,68.57c-3.24-2.61-6.63-5-9.89-7.63a19.46,19.46,0,0,1-3.85-3.73c-1.95-2.73-1.8-5.37,0-7.53a6.17,6.17,0,0,1,7.49-1.31c2.11,1,4,2.38,6.06,3.59l2.64,1.58c.67-3.64-.18-6-2.87-8.21-4.08-3.3-8-6.83-11.75-10.52s-4.14-7.27-1.55-10.06,6.34-2.36,10.16.95c1.87,1.62,3.66,3.32,6.45,5.86.26-5.11.44-8.85.66-12.6a32.4,32.4,0,0,1,.53-5.4c.69-2.91,2.53-4.64,4.56-4.73A5.65,5.65,0,0,1,106.39,13a67.17,67.17,0,0,1,1.7,9.58,62.74,62.74,0,0,1,0,6.85c2.75-1.88,4.85-3.49,7.13-4.78a11.66,11.66,0,0,1,5-1.78c4-.17,6.33,3.12,5.25,6.94a9.71,9.71,0,0,1-3.93,5.68c-3.16,2.14-6.05,4.72-9.35,6.59-5.16,2.92-6,7.22-4.92,13.1,2-1,3.74-1.93,5.48-2.74a85.51,85.51,0,0,1,8.46-3.72A5.09,5.09,0,0,1,127.34,51a4.83,4.83,0,0,1-.71,6,31.74,31.74,0,0,1-5.32,4.63c-3.71,2.59-7.48,5.13-11.39,7.4a5.81,5.81,0,0,0-3.33,5.68c.1,3.94,0,7.89,0,11.91,3.76-.74,13.67-5.86,15.52-8a6.56,6.56,0,0,0,1.4-2.29c1.57-5.17,3-10.38,4.59-15.54,1.45-4.7,4.19-6.84,7.62-6.19s5.17,3.72,4.69,8.56c-.12,1.23-.34,2.45-.54,3.82A2.57,2.57,0,0,0,143.3,65c1.36-5.24,4.91-9.65,5.22-15.35.19-3.55,4-6,7-5.45s5,3.08,4.94,6.83c0,.9-.19,1.81-.28,2.71s-.16,1.71-.26,2.84c2.88-.15,4.59-1.94,6.68-2.85,4-1.74,7.89-3.63,12-5,3.21-1,4.78-.19,6,2a5.62,5.62,0,0,1-1.26,7,22.56,22.56,0,0,1-4.12,2.59c-3.13,1.76-6.28,3.46-9.75,5.36,8.68,4.2,9,4.77,7.57,11.89-2.28,2.43-5.26,2.07-8.11,1.64-3.41-.52-6.74-1.73-10.15-2-8.05-.58-7.65-1.91-13.33,3.59,2.17,1.31,4.39,1.21,6.72,1.3a9.62,9.62,0,0,1,5.39,1.93A5.65,5.65,0,0,1,156,93.56a8.19,8.19,0,0,1-4.22.75c-6.22-.91-12.46-1.8-18.57-3.23-2.87-.67-5.21-.83-7.73.82-2.85,1.86-5.89,3.46-9.59,5.6a67.77,67.77,0,0,0,12.2,8c1,.5,2.88,0,4-.61,6-3.49,12.72-4.13,19.4-4.67,3.1-.25,6.07,2.11,7.12,5a4.75,4.75,0,0,1-2.24,5.61,19.13,19.13,0,0,1-5,1.93c-1.89.52-3.85.77-5.89,1.15,2.84,4.52,7,6.57,11.25,5.45A72.19,72.19,0,0,0,167,116c5.83-2.52,8.75-1.47,10.92,4.44.19.5.33,1,.52,1.64-1.3,4.52-5.83,4.8-10.14,6.64,2.14,1.55,3.6,2.49,4.92,3.6a70.93,70.93,0,0,1,7.71,6.84c2.53,2.84,2.34,6,.16,8.39s-5.36,2.47-8.45.36c-3.59-2.45-7-5.12-10.59-7.61a28.81,28.81,0,0,0-3.57-1.81c-1.37,3.24-.76,6.26-.33,9.23.57,3.85-1,6.82-4.12,7.64s-6.24-1.31-7.27-5a11.45,11.45,0,0,1-.46-3.76c.36-5.41-1.64-10.34-3-15.4-.77-3-1.5-3.41-6.8-5.31.48,1.83.82,3.34,1.29,4.81.33,1,1,2,1.24,3,.79,3.52-1.08,7-4.08,7.95-3.27,1-6.51-.54-7.67-4.29a73.23,73.23,0,0,1-2.78-12.75c-.53-4.43-2-7.78-6-10.24-3.5-2.15-6.65-4.86-10.43-6.69-1.57,4.19-1.84,18.92-.57,24.54,5.44,2.54,9.76,6.69,13.76,11.11a16,16,0,0,1,3.36,6.65,5.4,5.4,0,0,1-2.76,6,4.91,4.91,0,0,1-6.46-.78c-1.17-1.12-2.31-2.28-3.47-3.41l-4.64-4.53.7,10.44c2.73,1.91,5.69,4,8.62,6,1.78,1.26,3.43,2.7,5.27,3.85,3.61,2.27,2.06,8-2,8.94-2.78.66-5.68,1.31-8.29-.82A44.83,44.83,0,0,0,107.48,173.16Z" transform="translate(-21.76 -7.82)"/></g></svg>