<svg id="Layer_1" data-name="Layer 1" xmlns="http://www.w3.org/2000/svg" viewBox="0 0 678.85 80.59"><title>afterschoolstemclubs</title><path d="M483.1,29.63c-.2,2.24-.39,3.16-.36,4.08.41,12.15.88,24.3,1.27,36.45.08,2.53,1.13,5.66-2.53,6.67-2.29.64-3.79-1.43-4-6.21-.58-13.64-1-27.29-1.41-40.94-.09-2.49-.15-5-.25-7.49s-.41-4.9,2.66-5.66c2.8-.7,4.74.66,6.23,3,3.21,5.06,6.52,10.06,9.8,15.07,1,1.51,2,3,3.65,5.47,1.13-2.75,1.95-4.62,2.68-6.53,1.83-4.83,3.43-9.75,5.52-14.46.6-1.37,2.6-3.08,3.81-3s3.11,2.07,3.4,3.49a125.31,125.31,0,0,1,2,14.82c.83,10.29,1.44,20.6,2.14,30.9,0,.66.3,1.5,0,2a39.71,39.71,0,0,1-2.85,3.51c-1.2-1.15-3.18-2.15-3.43-3.49A102.27,102.27,0,0,1,510.2,54.9c-.42-6.14-.72-12.3-1.1-18.45a3.13,3.13,0,0,0-1.23-2.32c-.91,2.24-1.79,4.5-2.72,6.73a39.5,39.5,0,0,1-2.25,5c-2.33,4-5.54,4.25-8.31.6-2.41-3.17-4.4-6.66-6.63-10C486.62,34.48,485.17,32.55,483.1,29.63Z" transform="translate(-14.96 -10.97)"/><path d="M37.6,59.13,24.34,60.49c-.76,6-1.51,11.89-2.24,17.77-.14,1.15-.09,2.33-.26,3.48-.32,2.2-.75,4.6-3.61,4.51S14.89,83.87,15,81.56c.28-8.27.3-16.57,1-24.8.53-5.9,2.12-11.69,3.17-17.55C20.49,32,21.69,24.82,23,17.63c.59-3.31,3-4.4,5.2-2,2.36,2.66,4.8,5.74,5.79,9.06,4.92,16.56,9.4,33.26,14,49.92,1,3.53,1.61,7.14,2.42,10.7.57,2.5,1.34,5.52-2,6.13s-3.72-2.56-4.27-5c-1.66-7.29-3.29-14.59-5-21.87C38.7,63,38.22,61.4,37.6,59.13ZM36,52.66l-6.31-21-1.15.23L25.41,53.74Z" transform="translate(-14.96 -10.97)"/><path d="M649.81,36.1c11.64,4.11,14.54,12.26,8.29,22.38-4.46,7.22-11.69,11.13-18.77,15.19-1.4.8-2.66,1.84-4,2.72s-3.46,2.41-3.66,2.19C630.17,77,628,75,628.07,73.17c.47-13.1-1.67-26.08-1.51-39.15,0-3.81-.57-7.65-.34-11.44.09-1.43,1.46-3.62,2.69-4a36.67,36.67,0,0,1,11.16-1.94c3.84.09,8.06.67,11.41,2.4,5.42,2.8,6,8.32,2.07,13.05C652.5,33.37,651.31,34.51,649.81,36.1Zm-15,32.28c6.72-3,11.91-6.32,16-11A20.85,20.85,0,0,0,654.63,50a5.1,5.1,0,0,0-4.21-6.72,45.45,45.45,0,0,0-17.26.73C633.7,52,634.22,59.71,634.8,68.38ZM633.13,36c5.64-1.53,10.38-3,14-6.7.94-.95,2-2.72,1.71-3.68s-2.12-2.09-3.43-2.37a17.43,17.43,0,0,0-12.28,2Z" transform="translate(-14.96 -10.97)"/><path d="M147.14,44.34c4.73,6.57,9,12.48,13.24,18.35,1.86,2.55,4,4.9,5.76,7.5,1.28,1.87,2,4.2-.54,5.61-2.25,1.23-3.57-.5-4.87-2.19-5-6.56-10.16-13-15.85-20.32,0,3.33-.08,6,0,8.66.19,4.82.49,9.63.73,14.45.05,1.16.37,2.49-.08,3.43s-1.7,2.3-2.69,2.39a3.92,3.92,0,0,1-3-1.9,12.39,12.39,0,0,1-.93-4.84c-.72-18.29-1.37-36.58-2.07-54.87-.1-2.71.87-4.08,3.72-4.89,5.17-1.46,10.26-2.89,15.67-1.8,5.05,1,9,3.57,10.65,8.68,1.76,5.28.27,9.78-3.54,13.68A27.2,27.2,0,0,1,147.14,44.34Zm-3-6.63a18.3,18.3,0,0,0,14.47-5.86c2-2,3-4.4,2.09-7.22a6.52,6.52,0,0,0-6.49-4.55,93.68,93.68,0,0,0-10.07.89Z" transform="translate(-14.96 -10.97)"/><path d="M250.16,48.17H238.81c.2,4.31.29,8.42.58,12.5.43,6,1,12,1.49,17.92.07.83.12,1.66.13,2.5,0,2-.37,3.81-2.7,4.1s-3.27-1.27-3.55-3.31-.51-4-.66-5.95c-.65-8.8-1.44-17.59-1.85-26.4-.49-10.92-.66-21.86-1-32.8a10.55,10.55,0,0,1,.05-1.49c.26-2.05.61-4.28,3.23-4.27,2.94,0,3.28,2.35,3.29,4.63,0,5.5,0,11,0,16.49v8.78h12.31q-.79-9.55-1.59-19.14c-.14-1.65-.63-3.37-.3-4.92a4.07,4.07,0,0,1,2.54-2.5,3.23,3.23,0,0,1,2.76,1.49A20.67,20.67,0,0,1,255.08,22c.77,10.13,1.3,20.27,2,30.4.49,6.63,1.22,13.25,1.83,19.88.19,2,.71,4,.41,5.94-.18,1.17-1.53,2.88-2.52,3S254.41,80,253.55,79c-.55-.65-.47-1.89-.57-2.87q-1.09-10.42-2.15-20.84C250.6,53,250.4,50.72,250.16,48.17Z" transform="translate(-14.96 -10.97)"/><path d="M295.11,46.78A70.49,70.49,0,0,1,299.26,20c1.48-3.95,2.8-8.19,7.77-8.8a11.06,11.06,0,0,1,11.61,6.22c2.2,4.2,4.33,8.79,4.93,13.42a57.53,57.53,0,0,1-7.51,37c-1.94,3.35-4.08,6.72-8.74,6.3A11.6,11.6,0,0,1,297,66.63a26.67,26.67,0,0,1-1.79-7.7C294.89,55.46,295.11,51.94,295.11,46.78ZM308,16.31c-1.33,3.32-2.29,5.07-2.73,7-1.13,4.84-2.55,9.7-2.91,14.62-.55,7.59-.53,15.24-.32,22.85.09,3.42,1.73,6.34,6.05,7a43.92,43.92,0,0,0,2.59-3.7,52.78,52.78,0,0,0,6.4-32.18,32.09,32.09,0,0,0-3.49-10.25C312.66,19.77,310.49,18.59,308,16.31Z" transform="translate(-14.96 -10.97)"/><path d="M292.83,41.6c-1,6.22-1.45,11.56-2.76,16.68a33.52,33.52,0,0,1-4.67,10.36c-5,7.35-15.12,6.85-19.18-1.12a31.08,31.08,0,0,1-3-12.41c-.43-9.53,1.68-18.82,4.18-28a36.46,36.46,0,0,0,1.42-6.79c.23-3.15,2.07-4.08,4.68-3.78,9.05,1,13.9,3.06,16.81,12.25C291.68,33.17,292.12,37.85,292.83,41.6ZM275.21,24c-3.38,11.28-6.37,22.63-5.27,34.65a16.1,16.1,0,0,0,.49,2.45,14.5,14.5,0,0,0,.64,1.89c.93,2.37,2.66,4.27,5.17,3.91a6.79,6.79,0,0,0,4.52-3.16c5.27-11,6.78-22.5,2.85-34.35A8.81,8.81,0,0,0,283,28C281.43,25.08,279.1,23.58,275.21,24Z" transform="translate(-14.96 -10.97)"/><path d="M192.56,60.47c-.62-3.74-1-6.37-1.5-9a11,11,0,0,0-7.31-8.78c-.62-.24-1.21-.57-1.83-.81-10.32-4-11.86-10.8-7.46-21.59,2.74-6.72,13.88-8.41,18.87-3.21.81.85,1.31,3,.81,3.85s-2.41,1.06-3.74,1.39c-.4.09-.92-.31-1.39-.48-8.95-3.32-10.15,2.56-10,8.91a5.26,5.26,0,0,0,1.55,2.95,6,6,0,0,0,2.53,1.54c7.65,2.6,12.86,7.33,14.58,15.58,1.91,9.17,1.62,17.78-4.35,25.67-5.45,7.21-13.83,7.51-19.25.27-4.21-5.65-5.61-12.38-6.8-19.13-.35-2,.42-4,2.64-4a4.87,4.87,0,0,1,3.45,2.76c1.36,3.74,2,7.74,3.3,11.49,1.14,3.25,2.36,7,6.59,7.31s5.53-3.38,6.86-6.28S191.93,62.72,192.56,60.47Z" transform="translate(-14.96 -10.97)"/><path d="M611.11,70.84c.62-4.07,1.59-8.13,1.78-12.23.52-11.15.7-22.31,1-33.47a14.41,14.41,0,0,1,.18-4c.31-.94,1.43-2.25,2.19-2.24a4.93,4.93,0,0,1,3.17,1.71,4.61,4.61,0,0,1,.6,2.85c-.11,15,.71,30-2,44.87A25.89,25.89,0,0,1,615.94,75c-1.85,3.72-4.6,4.36-8.3,2.35a12.14,12.14,0,0,1-6.26-8.65,191.66,191.66,0,0,1-3-21.7c-.57-8.46-.3-17-.39-25.48,0-2.26,0-4.67,3-4.73,2.66-.06,3.16,2.13,3.23,4.2.22,6.83.13,13.67.56,20.48.51,7.95,1.32,15.89,2.29,23.8.24,2,1.57,3.81,2.4,5.71Z" transform="translate(-14.96 -10.97)"/><path d="M401.08,63.35c.16-5.34-2.47-10.14-7-14.05a89.46,89.46,0,0,1-7.81-7c-5.12-5.61-6-12.51-2.84-19,3.8-7.75,11.7-10.4,19.33-6.38a6.93,6.93,0,0,1,3,2.52,4.13,4.13,0,0,1,0,3.6c-.55.76-2.24.89-3.44.92-.72,0-1.44-.75-2.21-1.07-4.13-1.77-6.93-1.47-9.18,1C388.09,27,387.11,31.68,389,35a26.52,26.52,0,0,0,4.4,5.36c1.76,1.76,3.83,3.2,5.71,4.84,6.68,5.84,8.88,13.54,8.54,22a12.45,12.45,0,0,1-8.18,11.56c-5,2.08-9.5.87-13.46-2.52-4.64-4-6.56-9.55-8.12-15.17-.3-1.09,1.16-2.67,1.81-4a18.79,18.79,0,0,1,3.94,2.28c.77.73.9,2.11,1.36,3.18.8,1.83,1.53,3.7,2.49,5.44,2.28,4.13,5.53,5.89,8.83,4.95C399.89,71.87,401.33,69.22,401.08,63.35Z" transform="translate(-14.96 -10.97)"/><path d="M693.82,61.94c0,10.24-8.25,17.76-18.37,16.22-2.67-.41-5.48-2.36-7.43-4.37-3.64-3.76-4.18-9-4.77-13.92-.24-2,.44-3.75,2.76-4s3.23,1.33,3.64,3.28c.49,2.28.71,4.63,1.41,6.84.93,2.88,2.18,5.7,5.85,6A9.75,9.75,0,0,0,686,66.9a12.73,12.73,0,0,0-2.2-14.38c-3.3-3.51-6.81-6.84-10.42-10a12,12,0,0,1-4.23-11.61c.76-4.75,2.84-8.61,7.71-10.14,5.12-1.6,9.56.3,13.35,3.58.91.79.72,2.87,1,4.36a39.87,39.87,0,0,1-4.45.68c-.55,0-1.12-.66-1.71-1-4.28-2.22-6.78-2.06-8.44.52-2.07,3.2-1.43,6.39,1.7,9.28,3.3,3.06,6.59,6.13,9.72,9.34C692.33,51.94,693.84,56,693.82,61.94Z" transform="translate(-14.96 -10.97)"/><path d="M449.72,24.87V44.93c3,0,5.63.06,8.26,0,2-.06,3.88.15,4.18,2.49.32,2.55-1.51,3.53-3.68,3.81-2.77.35-5.57.53-8.65.81V69.65c4.46,1.13,8.34-.64,12.31-1.48,2.49-.52,5.65-2.43,6.68,1.42,1,3.6-2.44,4.34-5,4.86a96.19,96.19,0,0,1-14.26,2.19c-5,.26-6.48-1.53-6.51-6.59Q443,46.32,443,22.6c0-4.36.66-4.79,4.93-4.68,4.49.11,9,.06,13.47,0,2,0,3.89.08,4.25,2.4.4,2.51-1.38,3.71-3.54,3.91C458.16,24.56,454.18,24.64,449.72,24.87Z" transform="translate(-14.96 -10.97)"/><path d="M555.13,74.85c1.19-4.27,2.4-8.54,3.55-12.82.56-2.09.7-4.35,1.6-6.26.51-1.07,2.29-2.3,3.31-2.15s2.56,2.05,2.45,3c-.89,7.61-2,15.25-6,22-2.13,3.51-5.6,4.45-9.07,2.23-2.71-1.74-5.55-4.06-7-6.82-8.78-16.45-8.28-33,1.16-49,3.56-6,8.92-7.4,15.11-4.82,1.94.81,3.81,1.95,3.18,4.37s-2.66,2.45-4.85,2c-5.65-1.19-6.74-.95-9.19,4.07C543,43.63,542.47,56.87,549,70c1,2,2.81,3.47,4.24,5.18Z" transform="translate(-14.96 -10.97)"/><path d="M116.16,26.71V43.56c3.39,0,6.33,0,9.27,0,2.1,0,4.29.11,4.61,2.69.37,2.91-1.84,3.62-4.15,3.81-2.79.22-5.59.27-9.35.43.55,6.44,1.08,12.59,1.68,19.55,3.52-1.1,6.29-2,9-2.85,2.06-.67,4.16-.91,5.14,1.43s-.74,3.83-2.68,4.57a85.5,85.5,0,0,1-10.88,3.59c-3.28.79-5.43-.73-6.42-4a25.27,25.27,0,0,1-1-5.39Q109.9,46,108.5,24.57c-.17-2.58,1.19-4.27,3.72-4.38a73,73,0,0,1,11.46.26A4.73,4.73,0,0,1,127,23.39c.46,2.18-1.43,3.18-3.44,3.29C121.2,26.81,118.88,26.71,116.16,26.71Z" transform="translate(-14.96 -10.97)"/><path d="M58.42,23.36V38.08c3.14-.16,5.9-.22,8.65-.47,2.15-.2,4.25-.19,4.66,2.41s-1.47,3.57-3.59,3.92c-3.08.51-6.2.81-10,1.29.49,6.41.93,12.66,1.43,18.9.29,3.48.67,7,1,10.43.21,2.11.12,4.33-2.4,4.77-2.82.49-3.74-1.74-4-4-.77-7.28-1.67-14.55-2-21.85-.49-10.12-.54-20.27-.74-30.41-.11-5.33.6-6,5.83-6.3,4.48-.26,9-.76,13.43-1,2.24-.13,4.67.14,4.65,3.13,0,2.56-2.14,3-4.27,3.17C66.92,22.41,62.81,22.89,58.42,23.36Z" transform="translate(-14.96 -10.97)"/><path d="M218.34,69.88c1.25-4.63,2.41-8.89,3.55-13.17.3-1.12.24-2.46.86-3.33s2.22-2.21,2.95-2c1.14.37,2.77,1.94,2.7,2.89-.52,7-1.64,14-6,19.78-2,2.74-5.19,2.94-8.53,1-4.51-2.68-7.25-6.86-8.92-11.67C201,52,201.28,40.43,204.66,29a20.31,20.31,0,0,1,5.19-8.33c1.5-1.46,4.41-1.73,6.74-2,.75-.08,2.27,1.6,2.36,2.58a3.6,3.6,0,0,1-1.87,3c-4.82,1.09-6.12,5-7,8.82a53.66,53.66,0,0,0,.12,25.72C211.37,63.11,213.11,67.24,218.34,69.88Z" transform="translate(-14.96 -10.97)"/><path d="M88.57,25.47c-2.52-.53-4.32-.54-5.7-1.31a4.83,4.83,0,0,1-2.25-3.28c-.06-.76,1.66-2.32,2.64-2.37,6.31-.31,12.63-.46,18.94-.26,1.12,0,2.18,1.95,3.27,3-1.14,1-2.12,2.48-3.45,2.91-2,.64-4.19.55-7.09.86C96,42.35,97,59.26,98,76.17c.06,1,.64,2.11.35,2.94-.45,1.26-1.29,3-2.27,3.28a4.12,4.12,0,0,1-3.53-1.8,17.14,17.14,0,0,1-1.38-6.28c-.76-13.47-1.39-26.94-2.08-40.42C89,31.1,88.75,28.31,88.57,25.47Z" transform="translate(-14.96 -10.97)"/><path d="M419.53,24.14c-2,0-3.77.05-5.56,0-2-.08-3.72-.74-3.9-3s1.46-3.12,3.47-3.37c5.11-.65,10.22-1.32,15.34-1.95a4.66,4.66,0,0,1,2.45-.06,22.89,22.89,0,0,1,3.31,2.46c-.92,1.2-1.61,2.84-2.83,3.49-1.53.81-3.5.81-5.58,1.22.39,7.31.8,14.41,1.16,21.51q.71,13.71,1.33,27.41a5.65,5.65,0,0,1-.27,2.93c-.62,1-1.75,2.28-2.72,2.33A3.72,3.72,0,0,1,422.88,75a21.59,21.59,0,0,1-.77-5.87C421.37,55,420.69,40.91,420,26.79A25.91,25.91,0,0,0,419.53,24.14Z" transform="translate(-14.96 -10.97)"/><path d="M579.64,72.27c2.63,0,4.72,0,6.8,0,1.48,0,3.12-.26,4.4.28a4.19,4.19,0,0,1,2.08,2.92A3.22,3.22,0,0,1,591,78c-5.07,1.39-10.19,1.6-15.08-.79-2.67-1.3-2.93-3.79-2.93-6.39,0-7.82.07-15.64-.06-23.46-.14-8.8-.44-17.61-.75-26.42-.08-2.18.15-4.47,2.67-4.4,1.26,0,2.82,1.88,3.6,3.27.67,1.2.52,2.91.54,4.4q.35,20.7.61,41.42C579.66,67.56,579.64,69.51,579.64,72.27Z" transform="translate(-14.96 -10.97)"/><path d="M336.89,72.2c2.41,0,4-.3,5.35.1,1.09.32,2.71,1.48,2.72,2.29A4.63,4.63,0,0,1,343,78.08c-6.08,3.32-12.74-.69-12.74-7.52q0-24.95,0-49.89c0-.5,0-1,0-1.49,0-2.14.4-4.25,3-4.36s3.31,1.86,3.5,4c.12,1.32.1,2.66.1,4q0,21.71,0,43.4Z" transform="translate(-14.96 -10.97)"/></svg>