<svg id="Layer_1" data-name="Layer 1" xmlns="http://www.w3.org/2000/svg" viewBox="0 0 439.28 293.13"><title>leftarrow</title><path d="M472.44,264.68c-45.57,16.73-88.16,38.87-127.64,69.74-.7-3.47-1.47-5.53-1.49-7.6-.12-16.66-.11-33.32-.14-50V272c-8.81,0-17.26-.32-25.67.06-35,1.56-70,2.87-104.87-.57-26.42-2.61-52.74-7.08-78.79-12.33-22.11-4.47-40-17-53.39-35.31C64.24,201.75,49.64,178.5,44,151.27,39.25,128.52,35.63,105.48,35,82.1c-.3-11.81-1.33-23.6-1.86-35.41A22.38,22.38,0,0,1,34,41.32c9.23,0,17.35-.09,25.46,0,20.67.26,41.32.61,62,.89,3.6.05,6.73.61,7.37,5.7C126.16,54.24,123,61,120.41,68c-5.08,13.88-10.26,27.76-14.52,41.9-2,6.75-2.39,14.07-3,21.17-.85,10.79-1.92,21.63-1.64,32.42.36,13.76.86,27.7,3.32,41.19,2.81,15.47,15,24.65,28.41,30a264.77,264.77,0,0,0,49.2,14.16,496.92,496.92,0,0,0,65.34,7.77c31.58,1.53,63.26,1.05,94.9,1.41a10.33,10.33,0,0,0,1.84-.59c.93-18.09,1.88-36.53,2.83-55.07,21.25,11.22,41.29,22.49,61.94,32.51s41.72,18.69,62.62,28ZM93.08,76l-.48-1.32L42.93,96.73l.49,7.68ZM89.79,90.12l-.72-1.76-45,21.47v6.4Zm-5.14,13-.66-1.1L44.46,122.24l1.72,7.29ZM74.88,75.75l.4,1.07L118,60c.75-2.43,1.48-4.82,2.58-8.41ZM353,300.83l38.59-32.06-1-1.34-38.92,28C352.18,297.32,352.51,298.68,353,300.83ZM70.13,66.15l.44.84,44.31-19.68c-7.59-.56-14-.94-20.27,3.8C87,56.85,78.34,61.2,70.13,66.15ZM56.42,138.78l-7.35,2.75L52.51,152l18-12.11-.45-.86-11,4.2Zm23.74-26.61.51,1L101,106.15l3.11-10.81ZM392.8,278.79c-.34-.43-.67-.86-1-1.3l-38.66,29.64,1,1.32ZM76,148.77l-.63-1.12-20.89,9.54,2,4.93Zm16.41,1.53-13.3,11.06,13-3.92c.52-4.6,1-9.2,1.67-14.87L87,147.28ZM43.12,90.58,64.79,76.86l-.64-1.1-21,9.78Zm308,195.4,1.53,2L377.71,268l-.95-1.2Zm25.27-32.79.62,1,19.71-11.58-5.2-2.17ZM49.16,54.7l17.33-7-.26-1.17H56.09ZM370.65,251.77l-.86-1.05-16.7,10.36c.25,1.63.45,2.92.72,4.72ZM60.89,66.26l-.43-.8c-5.4,2.5-10.86,4.87-16.13,7.61-1.11.58-1.49,2.55-2.21,3.87l1.38.73ZM86,48.08,85.83,47H79.58L66.31,56.31l.4.78ZM367.5,240.8l-.8-.89-13.77,7.24c-.11,1.6-.2,3.14-.36,5.67ZM96.29,127.67,81.55,138.29l.49.88,13.35-5.91ZM97.45,79c10.8-1.8,14.93-4.35,15.46-9.38C107.52,72.85,102.48,75.91,97.45,79ZM63,179.3l11.54-9.63-.44-.68-13.13,5.65Zm29.88,14.64-6.53,6.83,7.37-2.1-1.09,7.65,4-1.88ZM421,263.35l.65.88,14.82-9.1-5.18-1.4ZM77.89,179.71l-.41-.77L65,184l2.09,4.14ZM424.3,252.52c-4-1.48-10.55,2.87-13.9,8.79ZM81.23,171.13l.49.81L91,169.49v-5.34ZM69.56,193.38l2.38,3.89,7.92-6.55-.62-1Zm316.21,43.77-4.24-1.86-6.47,6.08.64.9Zm26.94,12.66c-5.91-2.2-7.23,3.53-10.44,6.17Z" transform="translate(-33.16 -41.29)"/></svg>