<svg id="Layer_8" data-name="Layer 8" xmlns="http://www.w3.org/2000/svg" viewBox="0 0 340.65 64.41"><title>ourclubs</title><g id="Cv7wGx.tif"><path d="M469.92,42.63c2.18.66,3.89,1.16,5.58,1.7,12.44,4,16.05,16.49,7.67,26.52C478,77,470.76,79.52,463.38,81.69c-6.07,1.79-12.13,1.07-18.71-.28a39.6,39.6,0,0,1-.66-4.66c-.33-14-.54-27.91-.91-41.87-.09-3.44-.61-6.87-1-10.93,2.34-.6,4.33-1.46,6.35-1.55,5.14-.24,10.3-.28,15.45-.12a18.06,18.06,0,0,1,6.27,1.38c7.47,3.14,8.68,11,2.64,16.37C472,40.77,471.14,41.53,469.92,42.63ZM449.73,76.21a26.42,26.42,0,0,0,5.09.91,37.45,37.45,0,0,0,21.75-7.62,15,15,0,0,0,3.33-3.68C484,59.75,482.17,53,475.31,50.3a34.73,34.73,0,0,0-25.58-.48Zm21.35-43.12a5.32,5.32,0,0,0-4.72-4.8c-5.87-1-11.75-.63-18-.11.26,5.35.49,10.2.72,15C457.7,42.62,468.27,38.26,471.08,33.09Z" transform="translate(-186.22 -19.43)"/><path d="M186.22,56.24c.65-12.53,6.72-24.13,17.54-33.27,1.71-1.44,4.05-2.19,6.16-3.13a4,4,0,0,1,2.41-.34c3.34.84,6.84,1.44,9.9,2.93A20.31,20.31,0,0,1,229.05,28a26,26,0,0,1,5.44,18.74,115.92,115.92,0,0,1-3.14,17.6c-1.71,6.94-6.29,12-12.08,16-7.25,5-15.71,4.73-22.77-.55C190.06,74.89,186.15,66.64,186.22,56.24Zm27.95-29.52c-5.19-.52-9.22,1.7-12.54,6.08-4.7,6.22-8.24,12.84-9.48,20.62-1.13,7.14.22,13.62,4.91,19.17,5.55,6.58,13.14,7.4,20,2.36,4.42-3.26,7.87-7.31,9.11-12.73a132.56,132.56,0,0,0,2.76-16.17,22.19,22.19,0,0,0-3.06-12.93C223.33,28.58,219.71,26.24,214.17,26.72Z" transform="translate(-186.22 -19.43)"/><path d="M306.37,82c-9.47-7.82-16-18-24.89-27.22a32.92,32.92,0,0,0-.65,4c0,6.32,0,12.65,0,19,0,2,.05,4.09-2.46,4.91-2-.11-2.87-1.41-3-3.25-.11-1.33-.07-2.66-.07-4,0-12.48,0-25-.07-37.44a59.47,59.47,0,0,0-.64-8.43c-.37-2.48.18-4,2.6-5.17a28.83,28.83,0,0,1,13.43-3.11,13.07,13.07,0,0,1,12.23,7.2c2.69,5,2.07,10-1.2,14.57a19.93,19.93,0,0,1-9.4,7.16c-1.52.56-3,1.18-5,1.93.85,1.16,1.43,2.09,2.14,2.9,5.9,6.78,11.84,13.52,17.72,20.3C309.8,78.43,309.73,79.09,306.37,82ZM281,46.16c7.28.29,12.61-1.86,15.87-6.24A7.9,7.9,0,0,0,298,31.47a7.59,7.59,0,0,0-7.12-4.63A20.76,20.76,0,0,0,281,28.66Z" transform="translate(-186.22 -19.43)"/><path d="M263.64,23.74c3.72-.58,4.4-.28,5.1,2.23a14.58,14.58,0,0,1,.37,2.47c1.36,12.93,2,25.85-.42,38.74-1,5.2-2.79,9.9-7.29,13.17a12.46,12.46,0,0,1-18.77-4.1c-3-5.53-4-11.65-4.21-17.8-.35-10.14-.25-20.29-.34-30.44,0-.33,0-.66,0-1,.09-1.44.56-2.65,2.19-2.87,1.93-.26,2.72,1.06,3,2.61a23.6,23.6,0,0,1,.39,4.45c.07,7.65,0,15.31.16,23,.11,4.14.65,8.28,1.16,12.39a21.56,21.56,0,0,0,1.32,4.28c1.21,3.5,3,6.34,7.26,6.46,3.19.09,6.95-2.45,8.15-6.31a67.07,67.07,0,0,0,2.35-11.69c1.3-10.46.46-20.9-.75-31.32a18.67,18.67,0,0,1-.16-2.48A9.43,9.43,0,0,1,263.64,23.74Z" transform="translate(-186.22 -19.43)"/><path d="M431.76,24.86c2.08-1.21,3.46-.56,4.26,1.23a9,9,0,0,1,.74,3.36c.23,13,.06,26-2.07,38.85-1,6-3.54,11-9.49,13.75-7.46,3.44-15,.41-17.61-7.46a27.06,27.06,0,0,1-1.32-7.83c-.2-12-.2-24-.27-36,0-1.89.06-3.75,2.53-4.3,2.73.58,2.88,2.89,3,5,.18,2.49.09,5,.1,7.49,0,8.66,0,17.33.12,26a39.58,39.58,0,0,0,.67,5.93c.59,3.6,2.56,6.19,6.16,7.08,2.6.64,7.46-2.38,8.87-5.45a23.28,23.28,0,0,0,1.7-5.7c2.13-12.19,2.16-24.52,2.05-36.85,0-1.33,0-2.65,0-4A4,4,0,0,1,431.76,24.86Z" transform="translate(-186.22 -19.43)"/><path d="M511.68,46.08a36.32,36.32,0,0,1,5.45.46c7.3,1.73,11.47,9.15,9.06,16.79a21.31,21.31,0,0,1-4.78,8,25.31,25.31,0,0,1-15.79,7.8c-10.21,1.16-15.69-7.23-16.41-13.87-.18-1.69-.25-3.54,2-4s2.85,1.24,3.45,2.86c.05.16.06.33.11.49,2.95,9,7.85,11.26,16.26,7.13a32.83,32.83,0,0,0,7.23-5.2,9.14,9.14,0,0,0,2.93-7.68c-.31-4.28-2.65-6.76-6.92-7.06-2.15-.15-4.33.05-6.49,0-9.24-.31-14.33-6.06-13.58-15.29.82-10.08,11-17.35,20.28-14.28a12.45,12.45,0,0,1,4.44,3c1.16,1.11,1.49,2.93,0,3.94a3.74,3.74,0,0,1-3.53,0c-3-2.44-6-2.5-9.31-1a11.29,11.29,0,0,0-6.22,12.42c.68,3.2,2.91,4.81,5.86,5.39a42,42,0,0,0,6,.39Z" transform="translate(-186.22 -19.43)"/><path d="M330,49.64A36.82,36.82,0,0,1,334.86,31a18.78,18.78,0,0,1,8.36-7.62c3.44-1.76,6.87-1.1,10,.65a6.47,6.47,0,0,1,2.64,3.36c.61,1.79-1.07,3.23-2.92,2.81a6.61,6.61,0,0,1-.92-.38c-6.12-2.42-9.41-1.29-12.58,4.51-4.45,8.16-4.68,16.89-3.05,25.76.91,4.92,2.26,9.71,5.95,13.5,5.15,5.26,10.67,4.83,14.33-1.48a63.36,63.36,0,0,0,3.57-8.22c.49-1.23.69-2.58,1.22-3.8.67-1.56,1.57-3.2,3.66-2.56,1.75.54,2,2.22,1.64,3.74-1.47,6.2-3.4,12.27-7.72,17.12A13,13,0,0,1,341,80a23.46,23.46,0,0,1-7.74-10.24A52,52,0,0,1,330,49.64Z" transform="translate(-186.22 -19.43)"/><path d="M375.75,22.34a17.06,17.06,0,0,1,2,3.7,30.79,30.79,0,0,1,1,6.87c.22,12,.29,23.93.44,35.9,0,2,.18,3.92.3,6.28,5.64-.84,10.84-1.62,16-2.38,1.14-.16,2.46-.6,3.42-.22A4.53,4.53,0,0,1,401.46,75c.17.62-1.09,1.8-1.9,2.51-.43.38-1.26.31-1.92.42Q389.31,79.4,381,80.82a12,12,0,0,1-2,.18c-3.69,0-4.81-.92-5.12-4.53-.13-1.48-.05-3-.06-4.48-.14-11.47-.21-22.93-.46-34.4-.07-3.46-.6-6.92-1-10.38C372.14,25.09,372.11,23.15,375.75,22.34Z" transform="translate(-186.22 -19.43)"/></g></svg>