<svg id="Layer_1" data-name="Layer 1" xmlns="http://www.w3.org/2000/svg" viewBox="0 0 439.28 293.13"><title>rightarrow</title><path d="M33.91,262.79c20.9-9.27,42.06-18,62.62-28s40.69-21.29,61.94-32.51c.95,18.54,1.9,37,2.83,55.07a10.33,10.33,0,0,0,1.84.59c31.64-.36,63.32.12,94.9-1.41a496.92,496.92,0,0,0,65.34-7.77,264.77,264.77,0,0,0,49.2-14.16c13.43-5.31,25.6-14.49,28.41-30,2.46-13.49,3-27.43,3.32-41.19.27-10.79-.79-21.63-1.64-32.42-.57-7.1-.92-14.42-3-21.17-4.26-14.14-9.44-28-14.52-41.9-2.56-7-5.75-13.76-8.42-20.07.64-5.09,3.77-5.65,7.37-5.7,20.66-.28,41.32-.63,62-.89,8.12-.11,16.24,0,25.47,0a22.38,22.38,0,0,1,.84,5.37c-.53,11.81-1.56,23.6-1.86,35.41-.6,23.38-4.22,46.42-8.95,69.17-5.66,27.23-20.26,50.48-36.47,72.61-13.39,18.29-31.28,30.84-53.4,35.31-26,5.25-52.36,9.72-78.78,12.33-34.84,3.44-69.9,2.13-104.87.57-8.41-.38-16.86-.06-25.68-.06,0,1.87,0,3.34,0,4.8,0,16.67,0,33.33-.13,50,0,2.07-.79,4.13-1.49,7.6-39.48-30.87-82.07-53-127.64-69.74ZM462.17,104.41l.5-7.68L413,74.66,412.52,76Zm-.65,11.82v-6.4l-45-21.47-.72,1.76Zm-2.1,13.3,1.72-7.29-39.53-20.18-.66,1.1ZM385,51.56c1.11,3.59,1.84,6,2.59,8.41l42.69,16.85.4-1.07ZM153.88,295.45l-38.92-28-1,1.34,38.59,32.06C153.09,298.68,153.42,297.32,153.88,295.45ZM411,51.11c-6.29-4.74-12.67-4.36-20.26-3.8L435,67l.44-.84C427.26,61.2,418.6,56.85,411,51.11Zm35.59,92.07-11-4.2-.45.86,18,12.11,3.43-10.42-7.34-2.75Zm-45.1-47.84,3.11,10.81,20.35,7.06.51-1Zm-250,213.11,1-1.32L113.8,277.49c-.33.44-.67.87-1,1.3ZM449.12,162.12l2-4.93-20.89-9.54-.63,1.12Zm-30.53-14.84-6.71-4.71c.64,5.67,1.15,10.27,1.66,14.87l13,3.92-13.3-11.06Zm43.89-61.74-21-9.78-.64,1.1,21.67,13.72ZM128.84,266.82l-1,1.2L153,288l1.53-2Zm-14.75-26.35-5.2,2.17,19.71,11.58.62-1ZM449.51,46.54H439.36l-.25,1.17,17.33,7ZM151.79,265.8c.27-1.8.47-3.09.72-4.72l-16.7-10.36-.86,1.05ZM462.1,77.67l1.38-.73c-.72-1.32-1.1-3.29-2.21-3.87C456,70.33,450.54,68,445.14,65.46l-.43.8ZM438.89,57.09l.4-.78L426,47h-6.25l-.19,1.06ZM153,252.82c-.16-2.53-.26-4.07-.36-5.67l-13.77-7.24-.8.89ZM410.21,133.26l13.35,5.91.49-.88-14.74-10.62ZM392.69,69.59c.52,5,4.66,7.58,15.46,9.38C403.11,75.91,398.08,72.85,392.69,69.59Zm52,105L431.55,169l-.44.68,11.53,9.63ZM409,204.44l4,1.88-1.09-7.65,7.37,2.1-6.53-6.83ZM74.28,253.73l-5.18,1.4,14.82,9.1.65-.88Zm364.27-65.62,2.09-4.14-12.52-5-.41.77ZM95.19,261.31c-3.34-5.92-9.93-10.27-13.89-8.79Zm319.37-97.16v5.34l9.32,2.45.49-.81Zm11.8,25.59-.62,1,7.92,6.55,2.38-3.89ZM129.9,242.27l.64-.9-6.47-6.08-4.24,1.86ZM103.33,256c-3.22-2.64-4.53-8.37-10.44-6.17Z" transform="translate(-33.16 -41.29)"/></svg>