<svg id="Layer_5" data-name="Layer 5" xmlns="http://www.w3.org/2000/svg" viewBox="0 0 692.21 70.46"><title>clickfortopics</title><path d="M145.84,17c3.77,1.79,4.45,3.05,2.86,5.66a31.56,31.56,0,0,1-4.12,5c-2.39,2.54-4.92,5-7.34,7.48s-4.78,5.08-7.54,8c.78,1.13,1.71,2.66,2.82,4q10.24,12.62,20.55,25.14c1.52,1.85,3.1,3.62,1.41,6.24-2.92,2-4.62-.15-6.2-2C143.14,70.41,138.08,64.22,133,58a66,66,0,0,0-8.61-9.31c.47,4.87.9,9.74,1.4,14.6s1.08,9.83,1.59,14.47c-4,2.17-5.52,1.72-6.22-1.69a74,74,0,0,1-1.47-10.37c-.87-13.61-1.59-27.23-2.33-40.85a4.35,4.35,0,0,1,.34-2.43c.58-.89,1.58-2.16,2.35-2.13a4.25,4.25,0,0,1,3.06,1.85,9.9,9.9,0,0,1,.77,4.34c.1,3.59,0,7.18,0,11.77C132.74,31.6,138.7,23.53,145.84,17Z" transform="translate(-7.08 -15.42)"/><path d="M251.39,44.87c2.69,4.21,5.29,8,7.64,12,3.12,5.29,6.16,10.65,9,16.09,1.58,3,1.31,3.35-1.68,5.53-2.8-.72-3.41-3.36-4.67-5.44q-6.56-10.89-13.16-21.75c-.22-.36-.72-.56-1.17-.89,0,3.61-.15,7.05,0,10.48.32,6.31.9,12.61,1.25,18.92.22,3.73-.59,4.63-4.54,5.17a15.69,15.69,0,0,1-1-3.53c-.76-15-1.42-29.91-2.13-44.87-.19-4.15-.49-8.3-.62-12.45a27.3,27.3,0,0,1,.38-3.95A23.77,23.77,0,0,1,255.1,17,11.55,11.55,0,0,1,265,32.9C262.82,38.35,259.6,41.26,251.39,44.87Zm-4.85-21.1V38.92c5.47-.69,9.8-2.34,12.52-6.84,2.52-4.16.73-8.26-4.07-8.78C252.25,23,249.42,23.58,246.54,23.77Z" transform="translate(-7.08 -15.42)"/><path d="M311.67,47.14c1.9.9,4.57,1,4.16,4.45L313.21,55c1.44,5.48,2.91,11.09,4.4,16.7.59,2.25.81,4.32-2,5.3-3.08-.14-3.65-2.62-4.27-4.79-1.18-4.16-2.08-8.39-3.14-12.57-.36-1.41-.86-2.78-1.42-4.56l-10.19,2.65c-.26,3.15-.57,6.09-.72,9-.21,4.15-.22,8.31-.47,12.46-.12,2.19-.49,4.4-3.39,4.72-2.4-.61-3.07-2.44-3-4.56.39-8.62.71-17.25,1.36-25.86.71-9.59,1.72-19.17,2.69-28.74a37,37,0,0,1,1.21-5c5.95.75,9.69,3.25,11.36,8.39C307.68,34.35,309.59,40.54,311.67,47.14ZM301,32.46l-1.4.32c-.8,5.81-1.59,11.61-2.48,18.16l8.58-2.35Z" transform="translate(-7.08 -15.42)"/><path d="M464.18,19.6c2.43.84,4.48,1.51,6.51,2.25,5.31,1.95,9.18,5.49,10.9,10.9a49.85,49.85,0,0,1,2.27,10.71,63.72,63.72,0,0,1-2.08,22.79,31.2,31.2,0,0,1-4.42,9.39c-3.47,4.9-8.9,5.84-14.21,3a16.42,16.42,0,0,1-8.88-13.18c-1.32-12.66-.93-25.31,3.07-37.57C458.48,24.41,460.16,21.11,464.18,19.6Zm.1,7.59a50.69,50.69,0,0,0-2.34,6.08A92.54,92.54,0,0,0,459.8,62a17.14,17.14,0,0,0,2.44,7.47c3.65,6,9.08,5.6,12.2-.53a11.36,11.36,0,0,0,.77-1.84c2.92-9.53,3.94-19.18,1.78-29C475.58,31.7,471.86,27.82,464.28,27.19Z" transform="translate(-7.08 -15.42)"/><path d="M589.12,21.47a11.53,11.53,0,0,1,1.49-2c5-4.36,15.6-4.67,21.65-.7,5.32,3.49,8.5,12.34,6.52,18.62a15,15,0,0,1-8.35,9.45c-3.88,1.73-8.09,2.75-12.76,4.27a13.84,13.84,0,0,0-.24,2.5c.23,7.14.53,14.28.8,21.42,0,.49,0,1,0,1.49,0,2-.7,3.75-2.91,4s-3.27-1.34-3.51-3.36c-.3-2.64-.59-5.29-.66-7.94-.41-13.78-.71-27.56-1.13-41.34A58.56,58.56,0,0,0,589.12,21.47ZM597,43.05a14.64,14.64,0,0,0,13.9-4.75,7.31,7.31,0,0,0,1.72-6.5c-1.31-8.13-7.75-11.53-15.62-7.94Z" transform="translate(-7.08 -15.42)"/><path d="M212.35,19.13a21.74,21.74,0,0,0,3.67.42c7.29-.45,10.11,3.65,11.73,8.63a62.67,62.67,0,0,1,2.94,27.1c-.66,5.44-1.81,10.83-2.92,16.2a23,23,0,0,1-2,5.63c-3,6-7.29,7.12-12.51,3A19.33,19.33,0,0,1,208.4,74c-4-7.62-4.8-15.92-4.08-24.31.6-6.95,1.51-13.89,2.77-20.74C207.75,25.39,209,21.83,212.35,19.13Zm7.34,56.94c.78-1.72,1.72-3.42,2.36-5.22a70.55,70.55,0,0,0,3.52-22.59,46.66,46.66,0,0,0-3.53-19c-.84-2-2.12-3.44-4.48-3.29a5.15,5.15,0,0,0-5,3.52,20.31,20.31,0,0,0-.79,2.87,99.22,99.22,0,0,0-1.72,26.84c.33,4,1.8,8.08,3.22,12A7.3,7.3,0,0,0,219.69,76.07Z" transform="translate(-7.08 -15.42)"/><path d="M569,21.88c2.37.94,4.38,1.69,6.36,2.53,5.23,2.24,8.93,5.94,9.83,11.69,1.77,11.35.23,22.35-5.26,32.42-4.67,8.58-14.39,8.26-18.92-.4a23.63,23.63,0,0,1-2.67-8.5c-1-10.55-.15-21,3.91-30.88C563.47,25.68,565,22.64,569,21.88Zm-.29,7.72a60.08,60.08,0,0,0-4,28,23.14,23.14,0,0,0,1.69,6.71c.88,2.18,2.36,4,6.11,3.63a36.2,36.2,0,0,0,3.19-5.29,50.37,50.37,0,0,0,3.45-22.43C578.71,33.81,576,31,568.68,29.6Z" transform="translate(-7.08 -15.42)"/><path d="M683.51,68.31c6.58-1.23,9-3.41,9.27-8.52.39-6.81-1.49-10.16-6.34-11.51a26.12,26.12,0,0,1-7.32-3.12c-8.11-5.39-9.63-11.11-5.39-18.61a26.37,26.37,0,0,1,6.09-7.1c3.37-2.79,7.45-2.55,11.41-1.16,1.67.58,3,1.73,2.57,3.74a3.11,3.11,0,0,1-3.76,2.5c-2.64-.3-5.29-1.16-7.61.94a13.68,13.68,0,0,0-4.29,8.29c.7,3.22,2.94,5.12,5.77,6.4,2.12,1,4.3,1.82,6.5,2.58a11.86,11.86,0,0,1,8,8.87,22.57,22.57,0,0,1-.19,13.27c-2,5.8-6.42,8.83-12.18,9.82a8.85,8.85,0,0,1-5.67-1.1c-4.08-2.49-6.72-6.41-8.8-10.65a3.09,3.09,0,0,1,1.17-4.36c1.75-1.07,3.23-.37,4.35,1.09C679.28,62.55,681.4,65.48,683.51,68.31Z" transform="translate(-7.08 -15.42)"/><path d="M32.47,30.22c-4,2.49-6.19-2.49-9.59-1.81-3.28.9-4.46,3.88-5.51,6.56a54.08,54.08,0,0,0-3.24,27c.7,5.36,3.95,9.29,9.37,11.4,2.86-3.75,3.67-7.85,4.89-11.78a17.48,17.48,0,0,1,1.43-4.22c.52-.8,2-1.69,2.78-1.47a5.59,5.59,0,0,1,2.55,2.56,3.34,3.34,0,0,1,0,2.43c-1.68,5-3.07,10.2-5.28,15-1.94,4.22-4.76,5-9.15,3.27C14.17,76.62,9.6,71.75,8.29,65.1c-2.61-13.26-1.16-26.26,6.05-38,3.87-6.32,11.15-7.06,16.78-2.27C32.93,26.35,33,26.52,32.47,30.22Z" transform="translate(-7.08 -15.42)"/><path d="M541.9,25.78c-4,.23-7.46.5-10.94.61-2.37.08-4.77,0-5.48-3.07.34-2.48,2-3,4.22-3.3,9.06-1.14,18.09-2.46,27.13-3.66,2.26-.3,4.54-.37,6.59-.53,1.9,3.8,1.58,5.2-1.43,6.07s-5.84,1.25-8.77,1.89c-1.27.27-2.53.61-4.12,1-.25,5.61-.63,11.06-.72,16.51-.19,11.64-.24,23.28-.35,34.92,0,1.33.08,2.67,0,4-.34,3.58-1.3,4.11-6,2.9-.16-2-.51-4.26-.48-6.5.19-16.13.47-32.26.7-48.39A22.49,22.49,0,0,0,541.9,25.78Z" transform="translate(-7.08 -15.42)"/><path d="M661.68,21.89c-1.08,4.1-4.29,2.76-6.64,3.2-10,7.88-10.45,35.7-.28,45.84a24.42,24.42,0,0,0,2.17-3.71c1.56-4.2,3-8.46,4.43-12.69,1.3-3.71,2.56-4.13,6.37-2,0,1.16.34,2.57-.06,3.73-1.9,5.48-3.6,11.09-6.13,16.29-3.32,6.82-8.91,7.14-13.69,1.2-4.1-5.1-5.84-11.21-6.54-17.52-.9-8.13-.69-16.3,1.82-24.19a44.16,44.16,0,0,1,3.72-8.13,11.3,11.3,0,0,1,6.9-5.4C657.19,17.55,659.39,18.48,661.68,21.89Z" transform="translate(-7.08 -15.42)"/><path d="M489.71,18.88h18.86c1.93,4.21,1.23,5.66-2.62,6-1.81.18-3.66.1-5.49.11s-3.61,0-5.8,0V37.45c5.38,1.72,10.79-1.09,16.74-.14l.65,4.55c-5.71,3-11.54,1.73-17.5,2.6-.1,1.68-.29,3.29-.27,4.89q.18,15.49.43,31c0,2.36.33,4.79-2.75,5.56-2.37-.31-2.93-2-3.06-3.93-.24-3.49-.62-7-.64-10.46-.09-15.83-.08-31.65-.11-47.48C488.15,22,487.89,20,489.71,18.88Z" transform="translate(-7.08 -15.42)"/><path d="M106.21,29.09H98.87C88.5,38.69,87.73,67.92,98,74.35a67.88,67.88,0,0,0,2.75-6.75,93.31,93.31,0,0,0,2.08-9.23c.36-1.92.91-3.54,3.15-4.07,2.49.26,3.33,2,3.07,4.18-.75,6.28-1.82,12.53-5,18.12-2.62,4.59-6.63,5.61-10.89,2.57a14,14,0,0,1-4.8-5.52c-1.76-4.26-3.53-8.75-4-13.27a56.72,56.72,0,0,1,5.7-31c3-6,7.13-7.75,13.61-6.34C107.06,23.79,107.58,24.91,106.21,29.09Z" transform="translate(-7.08 -15.42)"/><path d="M406.66,25l-7.24-.59c-4.84,5.42-5.65,11.62-1.87,17a85.29,85.29,0,0,0,8.39,9.85,17.5,17.5,0,0,1,5.24,13,10.69,10.69,0,0,1-3.26,7.58c-6.58,6.63-14.2,5.77-19-2.25a29.31,29.31,0,0,1-2.62-5.37c-.73-2.1-.33-4,2.81-5A35.67,35.67,0,0,1,392,62.52c.86,1.21,1.33,2.69,2.15,3.93,2,3,4,3.79,6.66,2.68,3.23-1.34,5-3.85,4.16-7a17.18,17.18,0,0,0-3.22-6c-2.55-3.27-5.55-6.19-8.1-9.46C387.52,38.79,388.11,30,393,22a9.59,9.59,0,0,1,13.13-3C408.38,20.45,408.7,22.28,406.66,25Z" transform="translate(-7.08 -15.42)"/><path d="M195.24,25.23l-14,1.05a150.31,150.31,0,0,0,.21,15.4l13.18-.81v5.7l-13,1.87a28.54,28.54,0,0,0-.34,3.82c.34,8,.76,16,1.16,23.95a57.27,57.27,0,0,1,.29,6c-.13,2.17-1.35,3.3-4.34,2.61a29.77,29.77,0,0,1-1.27-5.36q-.81-16.22-1.35-32.44c-.24-6.83-.29-13.66-.44-20.49-.12-5.06.84-6.22,5.79-6.61,3.65-.28,7.31-.68,11-.63C195.35,19.32,195.9,20.4,195.24,25.23Z" transform="translate(-7.08 -15.42)"/><path d="M347.55,15.42c3.43,1.69,3,4.87,3.2,7.52.57,8.13.77,16.28,1.25,24.42.53,9,1.2,17.9,1.84,26.85a23.92,23.92,0,0,0,.67,3l11.55-4.09c3.87,2.71,4,4.9.33,6.57a57.88,57.88,0,0,1-9.34,3.46c-5.12,1.34-8.26-.59-8.87-5.82-.93-7.92-1.46-15.89-1.94-23.85-.66-10.79-1.08-21.6-1.65-32.39C344.46,18.71,344.11,16.31,347.55,15.42Z" transform="translate(-7.08 -15.42)"/><path d="M46.77,22.17c3.1.42,3.55,2.63,3.62,4.82.13,4.48,0,9,0,13.45v37.4l9.45-1.09a24.21,24.21,0,0,1,3.46-.37c3.08.11,3.77,1.17,3.42,4.91-4.13,2.39-16.45,3.55-22.46,1.83a23.62,23.62,0,0,1-1-5.19c.16-17.12.45-34.25.69-51.37C44,24.59,44.38,22.92,46.77,22.17Z" transform="translate(-7.08 -15.42)"/><path d="M629,15.48c2.91.58,3.17,2.56,3.24,4.64.13,3.82.29,7.65.34,11.47q.32,23.21.56,46.42c0,1.47,0,2.95,0,4.14-4,2.63-5.77,2.1-6.12-1.67-.46-5-.77-10-.83-14.94-.16-14.81-.16-29.62-.23-44.43C625.89,18.74,625.77,16.33,629,15.48Z" transform="translate(-7.08 -15.42)"/><path d="M426.9,77.82c-3.44-.83-3.77-3-3.89-5.19-.62-11.61-1.28-23.22-1.82-34.83-.18-3.77,0-7.56,0-11.25-3-1.32-7,.81-7.93-3.66.13-2.4,1.76-3.31,4-3.42,4.31-.23,8.63-.52,13-.52,3.89,0,4.59,1.33,3,5.64l-5.77,1.48a12.17,12.17,0,0,0-.33,2.28q.83,20.67,1.7,41.33c.06,1.49.46,3.06.13,4.46A14.61,14.61,0,0,1,426.9,77.82Z" transform="translate(-7.08 -15.42)"/><path d="M71,24.3c3.31.46,3.69,3,3.87,5.52.38,5.46.66,10.94.93,16.41.49,10,.93,19.92,1.42,29.88.12,2.38.37,4.78-3,5.57-3-1-4.14-3.28-4.29-6.36C69.65,69.67,69.28,64,69,58.4,68.63,49.26,68.3,40.13,68,31,67.85,28.31,67.78,25.61,71,24.3Z" transform="translate(-7.08 -15.42)"/><path d="M376.81,79.13c-2.19-.89-2.58-2.87-2.78-4.88-.64-6.45-1.45-12.9-1.76-19.37-.48-9.8-.6-19.61-.84-29.42-.1-4.06.33-4.57,4-5.21,2.16,1.36,2.06,3.68,2.16,5.77.2,4.15,0,8.32.26,12.47.66,11.78,1.43,23.56,2.18,35.33C380.3,77.9,380.35,77.9,376.81,79.13Z" transform="translate(-7.08 -15.42)"/></svg>