<svg id="Layer_2" data-name="Layer 2" xmlns="http://www.w3.org/2000/svg" viewBox="0 0 310.79 317.2"><defs><style>.cls-1{fill:#fff;}.cls-1,.cls-3{opacity:0.9;}.cls-2{fill:none;stroke:#50b849;stroke-miterlimit:10;stroke-width:5px;}.cls-3{fill:#f1f2f2;}.cls-4{font-size:35px;font-family:SpyAgency, Spy Agency;}.cls-4,.cls-5,.cls-8{fill:#231f20;}.cls-5{font-size:24px;font-family:Helvetica, Helvetica;}.cls-6{letter-spacing:-0.02em;}.cls-7{letter-spacing:-0.05em;}</style></defs><title>englishsubjectslist</title><rect class="cls-1" x="2.5" y="67.46" width="285" height="247.23"/><rect class="cls-2" x="2.5" y="67.46" width="285" height="247.23"/><polygon class="cls-3" points="280.02 2.5 2.5 2.5 2.5 51.98 280.02 51.98 249.39 27.24 280.02 2.5"/><polygon class="cls-2" points="280.02 2.5 2.5 2.5 2.5 51.98 280.02 51.98 249.39 27.24 280.02 2.5"/><text class="cls-4" transform="translate(12 37.99)">english</text><text class="cls-5" transform="translate(36.85 115.62)">Reading<tspan class="cls-6" x="0" y="28.8">W</tspan><tspan x="22.23" y="28.8">riting</tspan><tspan x="0" y="57.6">Spelling &amp; </tspan><tspan class="cls-7" x="114.74" y="57.6">V</tspan><tspan x="129.43" y="57.6">ocabulary</tspan><tspan x="0" y="86.4">Grammar</tspan><tspan x="0" y="115.2">Essay Prep</tspan></text><circle class="cls-8" cx="24.43" cy="107.14" r="3.59"/><circle class="cls-8" cx="24.43" cy="135.78" r="3.59"/><circle class="cls-8" cx="24.43" cy="164.41" r="3.59"/><circle class="cls-8" cx="24.43" cy="193.05" r="3.59"/><circle class="cls-8" cx="24.43" cy="221.69" r="3.59"/></svg>