<svg id="Layer_2" data-name="Layer 2" xmlns="http://www.w3.org/2000/svg" viewBox="0 0 290 317.2"><defs><style>.cls-1{fill:#fff;}.cls-1,.cls-3{opacity:0.9;}.cls-2{fill:none;stroke:#5b8dc4;stroke-miterlimit:10;stroke-width:5px;}.cls-3{fill:#f1f2f2;}.cls-4{font-size:35px;font-family:SpyAgency, Spy Agency;}.cls-4,.cls-6,.cls-8{fill:#231f20;}.cls-5{letter-spacing:-0.17em;}.cls-6{font-size:24px;font-family:Helvetica, Helvetica;}.cls-7{letter-spacing:-0.04em;}</style></defs><title>mathsubjectslist</title><rect class="cls-1" x="2.5" y="67.46" width="285" height="247.23"/><rect class="cls-2" x="2.5" y="67.46" width="285" height="247.23"/><polygon class="cls-3" points="280.02 2.5 2.5 2.5 2.5 51.98 280.02 51.98 249.39 27.24 280.02 2.5"/><polygon class="cls-2" points="280.02 2.5 2.5 2.5 2.5 51.98 280.02 51.98 249.39 27.24 280.02 2.5"/><text class="cls-4" transform="translate(12 37.99)">M<tspan class="cls-5" x="32.69" y="0">A</tspan><tspan x="57.71" y="0">TH</tspan></text><text class="cls-6" transform="translate(80.85 115.62)">Calculus<tspan class="cls-7" x="0" y="28.8">T</tspan><tspan x="13.78" y="28.8">rigonometry</tspan><tspan x="0" y="57.6">Geometry</tspan><tspan x="0" y="86.4">Algebra I/II</tspan><tspan x="0" y="115.2">Pre-Algebra</tspan><tspan x="0" y="144">K-8 Math</tspan></text><circle class="cls-8" cx="68.43" cy="107.14" r="3.59"/><circle class="cls-8" cx="68.43" cy="135.78" r="3.59"/><circle class="cls-8" cx="68.43" cy="164.41" r="3.59"/><circle class="cls-8" cx="68.43" cy="193.05" r="3.59"/><circle class="cls-8" cx="68.43" cy="221.69" r="3.59"/><circle class="cls-8" cx="68.43" cy="250.32" r="3.59"/></svg>