<svg id="Layer_4" data-name="Layer 4" xmlns="http://www.w3.org/2000/svg" viewBox="0 0 502.49 72.69"><title>meetthetutors</title><path d="M124.74,31.29c-4.52,6.51-7.1,12.93-9.64,19.36-.79,2-1.4,4.09-2.22,6.09s-2.07,3.95-4.3,3.4a6.58,6.58,0,0,1-3.69-3.43c-2.36-5.1-4.35-10.37-7.31-15.56a28.49,28.49,0,0,0-.39,3.41c0,10.16,0,20.31,0,30.47,0,4.11-.93,6-3.06,5.83-3.54-.28-3.42-3.24-3.45-5.64q-.31-23.72-.39-47.44A7.63,7.63,0,0,1,91,24.43c1.13-2.28,3.61-2.78,5.33-.91a20,20,0,0,1,3.15,5.05c3,6.47,5.94,13,9.09,19.93.61-1.1,1.13-2,1.6-2.89q6-11.47,12-23a4.2,4.2,0,0,1,1.1-1.64c1.3-.84,2.76-2.07,4.09-2,.93.05,2.08,1.88,2.55,3.13a15.84,15.84,0,0,1,1,5.38c.18,18.13.26,36.27.35,54.41a4.42,4.42,0,0,1-.34,2.43c-.72,1-1.83,2.26-2.77,2.25a3.93,3.93,0,0,1-2.77-2.24c-.53-1.31-.31-2.94-.31-4.43q0-21.48-.06-43C125,35.39,124.86,33.8,124.74,31.29Z" transform="translate(-90.24 -15.33)"/><path d="M540.08,38.5c5.56,7,10.81,13.62,16.08,20.23,1,1.3,2.17,2.53,3.16,3.86,1.19,1.6,1.77,3.56.12,5-1.91,1.61-3.75.56-5.15-1.17Q546.13,56.27,538,46.15a6,6,0,0,0-3-2.2c.51,7.21,1,14.43,1.54,21.64.35,4.31.92,8.61,1.33,12.92a5.24,5.24,0,0,1-.18,2.92c-.61,1-1.77,2.28-2.75,2.32s-2.36-1.11-2.85-2.1a11.47,11.47,0,0,1-.77-4.38Q529.67,50.12,528.19,23c-.24-4.33.64-5.6,4.81-5.87a98.09,98.09,0,0,1,16.35,0c2.3.25,4.85,2.22,6.47,4.11,3.19,3.7,2.55,8.53-1.4,11.4A44.38,44.38,0,0,1,546,36.86,45.49,45.49,0,0,1,540.08,38.5Zm-4.92-6c6-.93,11.74-1.39,16.19-5.62-2.56-4.5-8.31-5.46-16.19-3.15Z" transform="translate(-90.24 -15.33)"/><path d="M324.19,45.57l-10.71,1.54c0,7,0,13.67,0,20.3,0,2.49.32,5,.26,7.48,0,1.77-.84,3.32-2.9,3.46s-3-1.26-3.29-3a27.64,27.64,0,0,1-.37-4q-.58-22-1.12-43.95c0-.83-.26-1.89.15-2.44.8-1.08,1.89-2.38,3.06-2.61.74-.15,2.4,1.31,2.65,2.3a38.16,38.16,0,0,1,.84,7.42c.13,2.63,0,5.28,0,8.46l11.25-1.41c0-3.63,0-7.07,0-10.51a12.27,12.27,0,0,1,.22-3.95c.34-.93,1.56-2.19,2.34-2.16a4.44,4.44,0,0,1,3.08,1.89,7.62,7.62,0,0,1,.7,3.87c0,6.09.82,12.13.71,18.25-.13,8,.87,15.95,1.39,23.92.11,1.67.3,3.32.37,5,.07,2-.56,3.82-2.75,4.14s-3.18-1.42-3.52-3.37a44.23,44.23,0,0,1-.46-4.47c-.43-7.14-.83-14.29-1.28-21.44C324.77,49,324.49,47.65,324.19,45.57Z" transform="translate(-90.24 -15.33)"/><path d="M491.35,49.81c.87-9.77,3-19,8-27.59,1.5-2.59,3.18-3.43,6-3.32,8.45.36,12.36,2.8,14.67,10.85a48.91,48.91,0,0,1,1.9,14.68c-.25,8.55-2.94,16.65-7,24.21-3.37,6.35-8.29,7.64-14.58,4.12-4.92-2.76-7.14-7.34-8.08-12.56C491.62,56.8,491.62,53.28,491.35,49.81Zm24.63-10c-.69-2.34-1.82-6.8-3.32-11.13-.89-2.57-3.44-2.83-5.8-3.07s-3.1,1.62-3.85,3.24a53,53,0,0,0-4.68,29.06,16.48,16.48,0,0,0,3.93,8.29c2.76,3.15,5.45,2.47,7.37-1.25C513.31,57.78,515.24,50.11,516,39.81Z" transform="translate(-90.24 -15.33)"/><path d="M144.31,51.32v21.6a30.48,30.48,0,0,0,4.57-.49c4.81-1.24,9.62-2.53,14.37-4,1.83-.56,3.57-.67,4.18,1.21.38,1.12-.39,2.71-.88,4A2.45,2.45,0,0,1,165,74.78c-7,1.88-13.89,4.83-21.39,4.22-4.85-.4-5.59-1.34-5.7-6.23q-.55-24.7-1.13-49.42c-.07-3.19.76-4.18,4.09-4.15,5.5,0,11,.31,16.47.55,1,0,2.31.06,2.84.66a7.18,7.18,0,0,1,2,4c0,.58-2.16,1.79-3.38,1.84-4.78.22-9.58.09-14.71.09V44.87c4.41-.52,8.47-.9,12.48-1.53,2.16-.35,4.08-.52,4.93,2,.63,1.82-1,3.89-3.75,4.37C153.48,50.4,149.16,50.74,144.31,51.32Z" transform="translate(-90.24 -15.33)"/><path d="M565.78,68.17a31.73,31.73,0,0,1,.62-4.83c.53-1.82,1.56-3.6,3.84-3.11s2.52,2.23,2.41,4.3a27.74,27.74,0,0,0,.28,7.35c.87,3.89,2.48,4.49,6.2,3,6.67-2.73,9.47-11.67,5.13-17.64-1.9-2.6-4.75-4.58-7.37-6.59-2-1.51-4.3-2.52-6.37-3.91-5.41-3.64-7.45-8.8-6.37-15.15,1.14-6.76,4.77-11.69,11.33-14a10.39,10.39,0,0,1,12.41,4.92c.86,1.78,1.2,3.58-.67,4.92s-3,.27-4.33-1c-3.79-3.76-7.09-3.66-10.14.71-3.26,4.66-4.57,10.92,2.25,15a56.31,56.31,0,0,1,5.16,3c2.89,2.21,6.06,4.28,8.35,7a18.31,18.31,0,0,1-7.25,28.67c-7.36,2.9-12.36.46-14.49-7.16A54.21,54.21,0,0,1,565.78,68.17Z" transform="translate(-90.24 -15.33)"/><path d="M349.34,40.33,361.28,39c2.07-.21,4.28-.31,4.68,2.38s-1.51,3.51-3.64,3.81c-4.26.6-8.54,1.07-13,1.62V70c4.29.49,8-.72,11.77-2,.77-.27,1.52-1,2.24-1,1.2.08,2.89.28,3.4,1.07a3.88,3.88,0,0,1-.21,3.59,6.87,6.87,0,0,1-3.65,2.4,92.78,92.78,0,0,1-13.12,2.77c-5,.53-6.68-1.22-6.8-6.22-.15-6-.07-12-.07-18,0-7.12.1-14.23,0-21.34a69.82,69.82,0,0,0-.71-7.9c-.36-3,.25-4.24,3.1-4.5,7.62-.7,15.26-1.19,22.89-1.71a3.8,3.8,0,0,1,2.41.37,5.62,5.62,0,0,1,2.17,2.92c.11.76-1,2.16-1.9,2.5a16.44,16.44,0,0,1-4.88.77c-5.44.39-10.9.71-16.6,1.07Z" transform="translate(-90.24 -15.33)"/><path d="M182.24,25.7V44.94c3.28-.27,6.21-.48,9.13-.76,2.13-.2,4.24-.13,4.65,2.48s-1.64,3.53-3.68,3.82c-3.25.46-6.55.59-10.2.89v20c4.21-.84,8.21-1.61,12.19-2.44.8-.17,1.63-.9,2.32-.76,1.17.25,2.8.72,3.2,1.58a4.11,4.11,0,0,1-.71,3.53,6.64,6.64,0,0,1-3.43,1.79C191.85,76,188,77,184,77.57c-5.84.92-8.76-1.8-8.76-7.62q0-22.94-.06-45.86c0-4,.89-4.88,4.94-5.05,3.81-.16,7.62-.46,11.44-.68a31.2,31.2,0,0,1,4-.13c1.78.11,3.33.77,3.51,2.83s-1.19,3-3,3.32c-2.13.32-4.3.4-6.45.6Z" transform="translate(-90.24 -15.33)"/><path d="M452.16,75.94c3.11-5.31,3.7-10.33,3.67-15.27-.07-9.3-.61-18.6-1.13-27.89-.12-2.16-.38-4.23,2.21-4.74s3.64,1.47,4,3.54A104.09,104.09,0,0,1,462.42,45c.23,10.31.53,20.67-2.83,30.66-2.5,7.42-7.78,8.62-13.5,3.17a17.15,17.15,0,0,1-4.95-10.14A93.49,93.49,0,0,1,440,56.72c-.17-8-.07-16-.08-24,0-1-.29-2.18.14-2.95.64-1.15,1.66-2.61,2.76-2.87,1.95-.45,3,1.06,3.16,3,.11,1.32.07,2.66.11,4,.24,10,.42,20,.79,30a20.25,20.25,0,0,0,1.42,6.8C449.08,72.45,450.66,73.93,452.16,75.94Z" transform="translate(-90.24 -15.33)"/><path d="M288.16,24c-3.87.47-6.82.88-9.78,1.17a20.26,20.26,0,0,1-4,0c-1.83-.17-3.27-1.06-3.26-3.07s1.39-2.81,3.27-3.05c5.43-.67,10.85-1.42,16.27-2.1,4.12-.52,8.25-1,12.37-1.45a9.38,9.38,0,0,1,2.48-.06c1.79.24,3.52,1.11,3.2,3.06-.19,1.14-1.6,2.42-2.77,3s-2.93.37-4.41.55c-2.26.28-4.52.6-7.24,1,.42,14.5.7,28.59,1.33,42.67.26,6,1.24,11.88,2,17.81.25,2,0,3.85-2.15,4.43-2.61.7-3.75-1.25-4-3.3-.95-6.91-2-13.83-2.36-20.78-.58-11.12-.65-22.26-.92-33.39C288.12,28.45,288.16,26.49,288.16,24Z" transform="translate(-90.24 -15.33)"/><path d="M415.33,27c-2.64,0-5.1,0-7.56,0-2,0-4.1.31-6-.21-1.33-.37-3.1-1.75-3.32-2.93-.4-2.22,1.53-3,3.57-3.11,6.16-.21,12.32-.32,18.47-.64,3.82-.2,7.62-.71,11.43-1,1.33-.12,2.78-.45,4-.05s2.79,1.37,3.14,2.44c.6,1.83-.73,3.17-2.65,3.45-3,.43-5.95.72-8.92,1.06-1.63.19-3.26.34-5.38.56,0,1.71-.08,3.16,0,4.59Q423.54,52.32,425,73.5a53,53,0,0,0,1,5.39c.3,1.75.28,3.49-1.77,4.11A3.1,3.1,0,0,1,420,80.52a79.89,79.89,0,0,1-1.92-11.78c-.86-12.63-1.47-25.27-2.2-37.91C415.85,29.71,415.58,28.6,415.33,27Z" transform="translate(-90.24 -15.33)"/><path d="M225.94,23.8c0,3.4,0,6.37,0,9.35,0,8.32-.06,16.64.13,25,.13,5.64.6,11.27,1.05,16.89.17,2.11.44,4.28-2.18,4.78s-3.58-1.44-4-3.52a48.93,48.93,0,0,1-1-7.89c-.25-12.31-.34-24.62-.53-36.94,0-2.11-.23-4.22-.36-6.44h-7.32c-2.15,0-4.25-.43-4.51-2.9-.28-2.68,1.84-3.12,4-3.35q12.9-1.39,25.78-2.85c.5-.05,1.11-.32,1.47-.12,1.19.66,3,1.34,3.21,2.28a4,4,0,0,1-2,3.37A43.62,43.62,0,0,1,231.91,23C230,23.32,228.06,23.52,225.94,23.8Z" transform="translate(-90.24 -15.33)"/><path d="M473.5,25c-2.7,0-5.18.11-7.64,0-1.89-.12-3.36-1.34-2.9-3.24A4.42,4.42,0,0,1,465.87,19c7-1.3,14.1-2.3,21.16-3.4.66-.11,1.49-.47,1.94-.2,1.16.69,2.88,1.56,3,2.56a4,4,0,0,1-2.13,3.26,88.25,88.25,0,0,1-9.94,2.1c.51,6.9,1,13.81,1.52,20.71.79,9.78,1.75,19.55,2.45,29.34.18,2.44,1.24,5.69-2.55,6.6-2.07.5-3.49-1.57-3.75-5.84-1-15.27-2.38-30.5-3.65-45.75C473.86,27.28,473.66,26.16,473.5,25Z" transform="translate(-90.24 -15.33)"/></svg>