<svg xmlns="http://www.w3.org/2000/svg" xmlns:xlink="http://www.w3.org/1999/xlink" viewBox="0 0 850 540"><defs><style>.cls-1{fill:#fff;}.cls-1,.cls-3{opacity:0.9;}.cls-1,.cls-3,.cls-5,.cls-6,.cls-7,.cls-8{isolation:isolate;}.cls-2,.cls-4{fill:none;stroke:#d46e28;stroke-miterlimit:10;}.cls-2{stroke-width:5px;}.cls-3{fill:#f2f2f2;}.cls-4{stroke-width:4px;}.cls-5{font-size:35px;font-family:SpyAgency, Spy Agency;}.cls-5,.cls-7,.cls-8,.cls-9{fill:#231f20;}.cls-7,.cls-8{font-size:24px;font-family:Helvetica, Helvetica;}.cls-8{letter-spacing:-0.02em;}</style></defs><title>Tutor_Science</title><g id="Layer_1" data-name="Layer 1"><image width="850" height="540" xlink:href="mathsubjects.png"/></g><g id="Layer_3" data-name="Layer 3"><image width="850" height="540" xlink:href="sciencesubjects.png"/><rect class="cls-1" x="276.96" y="178.78" width="285" height="247.23"/><rect class="cls-2" x="276.96" y="178.78" width="285" height="247.23"/><polygon class="cls-3" points="554.48 113.82 276.96 113.82 276.96 163.3 554.48 163.3 523.85 138.56 554.48 113.82"/><polygon class="cls-4" points="554.48 113.82 276.96 113.82 276.96 163.3 554.48 163.3 523.85 138.56 554.48 113.82"/><text class="cls-5" transform="translate(286.46 149.31)">science</text><g class="cls-6"><text class="cls-7" transform="translate(311.31 226.94)">Physics</text><text class="cls-8" transform="translate(311.31 255.74)">Chemistry</text><text class="cls-6"></text><text class="cls-7" transform="translate(311.31 284.54)">Biology</text><text class="cls-6"></text><text class="cls-6"></text><text class="cls-7" transform="translate(311.31 313.34)">Environmental Science</text><text class="cls-7" transform="translate(311.31 342.14)">General Science</text></g><circle class="cls-9" cx="298.89" cy="218.46" r="3.59"/><circle class="cls-9" cx="298.89" cy="247.1" r="3.59"/><circle class="cls-9" cx="298.89" cy="275.73" r="3.59"/><circle class="cls-9" cx="298.89" cy="304.37" r="3.59"/><circle class="cls-9" cx="298.89" cy="333.01" r="3.59"/></g></svg>