<svg xmlns="http://www.w3.org/2000/svg" xmlns:xlink="http://www.w3.org/1999/xlink" viewBox="0 0 850 540"><defs><style>.cls-1{fill:#fff;}.cls-1,.cls-3{opacity:0.9;}.cls-1,.cls-11,.cls-12,.cls-3,.cls-4,.cls-5,.cls-6,.cls-7,.cls-8{isolation:isolate;}.cls-10,.cls-2{fill:none;stroke-miterlimit:10;stroke-width:5px;}.cls-2{stroke:#50b849;}.cls-3{fill:#f2f2f2;}.cls-11,.cls-4{font-size:35px;font-family:SpyAgency, Spy Agency;}.cls-11,.cls-12,.cls-4,.cls-6,.cls-7,.cls-8,.cls-9{fill:#231f20;}.cls-12,.cls-6,.cls-7,.cls-8{font-size:24px;font-family:Helvetica, Helvetica;}.cls-7{letter-spacing:-0.02em;}.cls-8{letter-spacing:-0.05em;}.cls-10{stroke:#5b8ec3;}.cls-11{letter-spacing:-0.17em;}.cls-12{letter-spacing:-0.06em;}</style></defs><title>Tutor_Math</title><g id="Layer_4" data-name="Layer 4"><image width="850" height="540" xlink:href="readingsubjects.png"/><rect class="cls-1" x="275.76" y="178.33" width="285" height="247.23"/><rect class="cls-2" x="275.76" y="178.33" width="285" height="247.23"/><polygon class="cls-3" points="553.28 113.36 275.76 113.36 275.76 162.84 553.28 162.84 522.65 138.1 553.28 113.36"/><polygon class="cls-2" points="553.28 113.36 275.76 113.36 275.76 162.84 553.28 162.84 522.65 138.1 553.28 113.36"/><text class="cls-4" transform="translate(285.26 148.85)">english</text><g class="cls-5"><text class="cls-6" transform="translate(310.11 226.49)">Reading</text><text class="cls-7" transform="translate(310.11 255.29)">W</text><text class="cls-6" transform="translate(332.34 255.29)">riting</text><text class="cls-6" transform="translate(310.11 284.09)">Spelling &amp; </text><text class="cls-8" transform="translate(424.85 284.09)">V</text><text class="cls-6" transform="translate(439.54 284.09)">ocabulary</text><text class="cls-6" transform="translate(310.11 312.89)">Grammar</text><text class="cls-6" transform="translate(310.11 341.69)">Essay Prep</text></g><circle class="cls-9" cx="297.69" cy="218.01" r="3.59"/><circle class="cls-9" cx="297.69" cy="246.65" r="3.59"/><circle class="cls-9" cx="297.69" cy="275.28" r="3.59"/><circle class="cls-9" cx="297.69" cy="303.92" r="3.59"/><circle class="cls-9" cx="297.69" cy="332.56" r="3.59"/></g><g id="Layer_1" data-name="Layer 1"><image width="850" height="540" xlink:href="mathsubjects.png"/><rect class="cls-1" x="275.5" y="178.46" width="285" height="247.23"/><rect class="cls-10" x="275.5" y="178.46" width="285" height="247.23"/><polygon class="cls-3" points="553.02 113.5 275.5 113.5 275.5 162.98 553.02 162.98 522.39 138.24 553.02 113.5"/><polygon class="cls-10" points="553.02 113.5 275.5 113.5 275.5 162.98 553.02 162.98 522.39 138.24 553.02 113.5"/><g class="cls-5"><text class="cls-4" transform="translate(285 148.99)">M</text><text class="cls-11" transform="translate(317.69 148.99)">A</text><text class="cls-4" transform="translate(342.71 148.99)">TH</text></g><g class="cls-5"><text class="cls-6" transform="translate(353.85 226.62)">Calculus</text><text class="cls-12" transform="translate(353.85 255.42)">T</text><text class="cls-6" transform="translate(367.63 255.42)">rigonometry</text><text class="cls-6" transform="translate(353.85 284.22)">Geometry</text><text class="cls-6" transform="translate(353.85 313.02)">Algebra I/II</text><text class="cls-6" transform="translate(353.85 341.82)">Pre-Algebra</text><text class="cls-6" transform="translate(353.85 370.62)">K-8 Math</text></g><circle class="cls-9" cx="341.43" cy="218.14" r="3.59"/><circle class="cls-9" cx="341.43" cy="246.78" r="3.59"/><circle class="cls-9" cx="341.43" cy="275.41" r="3.59"/><circle class="cls-9" cx="341.43" cy="304.05" r="3.59"/><circle class="cls-9" cx="341.43" cy="332.69" r="3.59"/><circle class="cls-9" cx="341.43" cy="361.32" r="3.59"/></g></svg>