<svg xmlns="http://www.w3.org/2000/svg" xmlns:xlink="http://www.w3.org/1999/xlink" viewBox="0 0 850 540"><defs><style>.cls-1{fill:#fff;}.cls-1,.cls-3{opacity:0.9;}.cls-1,.cls-3,.cls-4,.cls-5,.cls-6,.cls-7,.cls-8{isolation:isolate;}.cls-2{fill:none;stroke:#50b849;stroke-miterlimit:10;stroke-width:5px;}.cls-3{fill:#f2f2f2;}.cls-4{font-size:35px;font-family:SpyAgency, Spy Agency;}.cls-4,.cls-6,.cls-7,.cls-8,.cls-9{fill:#231f20;}.cls-6,.cls-7,.cls-8{font-size:24px;font-family:Helvetica, Helvetica;}.cls-7{letter-spacing:-0.02em;}.cls-8{letter-spacing:-0.05em;}</style></defs><title>Tutor_English</title><g id="Layer_1" data-name="Layer 1"><image width="850" height="540" xlink:href="mathsubjects.png"/></g><g id="Layer_3" data-name="Layer 3"><image width="850" height="540" xlink:href="sciencesubjects.png"/></g><g id="Layer_4" data-name="Layer 4"><image width="850" height="540" xlink:href="readingsubjects.png"/><rect class="cls-1" x="275.76" y="178.33" width="285" height="247.23"/><rect class="cls-2" x="275.76" y="178.33" width="285" height="247.23"/><polygon class="cls-3" points="553.28 113.36 275.76 113.36 275.76 162.84 553.28 162.84 522.65 138.1 553.28 113.36"/><polygon class="cls-2" points="553.28 113.36 275.76 113.36 275.76 162.84 553.28 162.84 522.65 138.1 553.28 113.36"/><text class="cls-4" transform="translate(285.26 148.85)">english</text><g class="cls-5"><text class="cls-6" transform="translate(310.11 226.49)">Reading</text><text class="cls-7" transform="translate(310.11 255.29)">W</text><text class="cls-6" transform="translate(332.34 255.29)">riting</text><text class="cls-6" transform="translate(310.11 284.09)">Spelling &amp; </text><text class="cls-8" transform="translate(424.85 284.09)">V</text><text class="cls-6" transform="translate(439.54 284.09)">ocabulary</text><text class="cls-6" transform="translate(310.11 312.89)">Grammar</text><text class="cls-6" transform="translate(310.11 341.69)">Essay Prep</text></g><circle class="cls-9" cx="297.69" cy="218.01" r="3.59"/><circle class="cls-9" cx="297.69" cy="246.65" r="3.59"/><circle class="cls-9" cx="297.69" cy="275.28" r="3.59"/><circle class="cls-9" cx="297.69" cy="303.92" r="3.59"/><circle class="cls-9" cx="297.69" cy="332.56" r="3.59"/></g></svg>