<svg xmlns="http://www.w3.org/2000/svg" xmlns:xlink="http://www.w3.org/1999/xlink" viewBox="0 0 850 540"><defs><style>.cls-1{fill:#fff;}.cls-1,.cls-3{opacity:0.9;}.cls-2{fill:none;stroke:#773895;stroke-miterlimit:10;stroke-width:5px;}.cls-3{fill:#f1f2f2;}.cls-4{font-size:35px;font-family:SpyAgency, Spy Agency;letter-spacing:-0.01em;}.cls-4,.cls-5,.cls-9{fill:#231f20;}.cls-5{font-size:24px;font-family:Helvetica, Helvetica;}.cls-6{letter-spacing:-0.02em;}.cls-7{letter-spacing:-0.07em;}.cls-8{letter-spacing:-0.05em;}</style></defs><title>Tutor_TestPrep</title><g id="Layer_1" data-name="Layer 1"><image width="850" height="540" xlink:href="mathsubjects.png"/></g><g id="Layer_3" data-name="Layer 3"><image width="850" height="540" xlink:href="sciencesubjects.png"/></g><g id="Layer_2" data-name="Layer 2"><image width="850" height="540" xlink:href="testprepsubjects.png"/><rect class="cls-1" x="276" y="178.87" width="285" height="247.23"/><rect class="cls-2" x="276" y="178.87" width="285" height="247.23"/><polygon class="cls-3" points="553.52 113.9 276 113.9 276 163.38 553.52 163.38 522.89 138.64 553.52 113.9"/><polygon class="cls-2" points="553.52 113.9 276 113.9 276 163.38 553.52 163.38 522.89 138.64 553.52 113.9"/><text class="cls-4" transform="translate(285.5 149.39)">test prep</text><text class="cls-5" transform="translate(323.35 227.02)">AC<tspan class="cls-6" x="33.34" y="0">T</tspan><tspan x="47.58" y="0" xml:space="preserve"> Math</tspan><tspan x="0" y="28.8">PS</tspan><tspan class="cls-7" x="32.02" y="28.8">A</tspan><tspan class="cls-6" x="46.25" y="28.8">T</tspan><tspan x="60.49" y="28.8" xml:space="preserve"> Math</tspan><tspan x="0" y="57.6">S</tspan><tspan class="cls-7" x="16.01" y="57.6">A</tspan><tspan class="cls-6" x="30.25" y="57.6">T</tspan><tspan x="44.48" y="57.6" xml:space="preserve"> Math</tspan><tspan x="0" y="86.4">S</tspan><tspan class="cls-7" x="16.01" y="86.4">A</tspan><tspan class="cls-6" x="30.25" y="86.4">T</tspan><tspan x="44.48" y="86.4" xml:space="preserve"> II Math</tspan><tspan x="0" y="115.2">A</tspan><tspan class="cls-6" x="16.01" y="115.2">P</tspan><tspan x="31.59" y="115.2" xml:space="preserve"> Calculus</tspan><tspan class="cls-8" x="130.3" y="115.2"> </tspan><tspan x="135.66" y="115.2">AB/BC</tspan><tspan x="0" y="144">A</tspan><tspan class="cls-6" x="16.01" y="144">P</tspan><tspan x="31.59" y="144" xml:space="preserve"> Statistics</tspan></text><circle class="cls-9" cx="310.93" cy="218.55" r="3.59"/><circle class="cls-9" cx="310.93" cy="247.18" r="3.59"/><circle class="cls-9" cx="310.93" cy="275.82" r="3.59"/><circle class="cls-9" cx="310.93" cy="304.45" r="3.59"/><circle class="cls-9" cx="310.93" cy="333.09" r="3.59"/><circle class="cls-9" cx="310.93" cy="361.72" r="3.59"/></g></svg>