<svg id="Layer_3" data-name="Layer 3" xmlns="http://www.w3.org/2000/svg" viewBox="0 0 653.9 69.64"><defs><style>.cls-1{fill:#fff;}</style></defs><title>wantmoreinfo_white</title><path class="cls-1" d="M491.44,38.92c2.42-6.63,4.39-12.1,6.4-17.56a13.11,13.11,0,0,1,1.21-2.73c1.81-2.76,4.93-2.72,6.19.36A26.17,26.17,0,0,1,507,27.22c.73,12.3,1.24,24.62,1.85,36.92.12,2.5.33,5,.49,7.48.13,1.82-.28,3.48-2.31,3.85-2.26.41-3.48-1.13-3.77-3.07a98.43,98.43,0,0,1-1-10.43c-.4-9.48-.66-19-1-28.44l-1-.2c-.58,1.84-1.18,3.68-1.74,5.52a72.35,72.35,0,0,1-2.36,7.62c-.57,1.34-1.89,3.18-3,3.26s-3-1.28-3.82-2.48c-2.37-3.36-4.39-7-7.13-11.42-.16,2.24-.33,3.45-.32,4.66q.09,15,.22,30c0,1.17.34,2.49-.1,3.46-.54,1.18-1.69,2.81-2.67,2.88s-2.66-1.25-3.16-2.35a15.47,15.47,0,0,1-.9-5.38c-.49-9.65-.82-19.3-1.36-28.95-.34-6.14-1-12.27-1.35-18.41-.08-1.49.18-3.51,1.12-4.41,1.64-1.58,3.46-.32,4.73,1.13A49.59,49.59,0,0,1,483.63,25C486.31,29.37,488.67,33.93,491.44,38.92Z" transform="translate(-21 -14.25)"/><path class="cls-1" d="M189.37,34.49c0,7.73-.16,14.86,0,22,.17,5.64.8,11.28,1.16,16.92.14,2.1-.12,4.24-2.72,4.56s-3.4-1.77-3.61-3.84c-.42-4.3-.75-8.62-.94-12.94-.51-11.47-.94-23-1.38-34.43-.08-2.12-.69-4.6,2-5.58s4.84.57,6.31,2.79c3.19,4.84,6.3,9.75,9.87,15.3,1.39-2.66,2.57-4.9,3.73-7.16,2-3.84,3.8-7.77,6-11.49.65-1.09,2.55-2.4,3.45-2.14a5.64,5.64,0,0,1,3.17,3.28,19.87,19.87,0,0,1,.56,5.91c.32,13.47.59,27,.93,40.43.05,1.82.56,3.63.59,5.44s-.71,3.7-2.73,3.39A4.83,4.83,0,0,1,212.46,74a69,69,0,0,1-1.18-11.4C211,53.82,211,45,210.91,36.17a3,3,0,0,0-.87-2.11c-1.24,2.45-2.46,4.92-3.72,7.36a28.11,28.11,0,0,1-2.18,3.91c-2.5,3.37-5.15,3.48-7.61.11S192,38.53,189.37,34.49Z" transform="translate(-21 -14.25)"/><path class="cls-1" d="M119.34,54.56q-1-12.9-2-25.8c-.08-1.16-.62-2.47-.24-3.43a5.31,5.31,0,0,1,2.66-3c.73-.24,2.56,1,2.93,1.94a21.26,21.26,0,0,1,1.27,6.3c.72,10.12,1.25,20.25,2,30.36.28,4,.93,7.9,1.33,11.85.19,1.91,0,3.89-2.39,4.26-2.59.4-3.22-1.55-3.9-3.58a34.23,34.23,0,0,0-3.08-7.16c-4.69-7.6-9.58-15.06-15.1-23.68,0,2.93,0,4.8,0,6.67.07,7.32.16,14.63.23,22,0,1.33.34,2.84-.17,4a6.22,6.22,0,0,1-3.08,3.2c-.7.23-2.31-1.42-3-2.53a6.85,6.85,0,0,1-.65-3.37c-.42-12.63-.86-25.26-1.11-37.9a16.13,16.13,0,0,1,1.4-6.21c.49-1.2,2-3,2.82-2.85a5.76,5.76,0,0,1,3.58,2.72c4.15,7.19,8.07,14.51,12.12,21.76,1,1.7,2.11,3.28,3.17,4.91Z" transform="translate(-21 -14.25)"/><path class="cls-1" d="M623.66,42.29q.6,14.19,1.19,28.39c.07,1.83.21,3.66.23,5.49s-.92,3.63-2.79,3.34a4.77,4.77,0,0,1-3.13-3.07A58.46,58.46,0,0,1,618.05,66c-.24-8.66-.23-17.32-.44-26-.07-3.15-.44-6.29-.73-9.43-.22-2.44.58-4.4,3-5.11s3,1.24,4,2.86c6.13,10,12.37,20,18.25,29.49,0-7.68,0-16,0-24.33,0-1.5-.36-3.08,0-4.47.3-1.08,1.53-2.74,2.27-2.7,1.19.06,3,1.1,3.32,2.11a28.07,28.07,0,0,1,1,7.39c.19,6.32,0,12.66.35,19,.31,6.13,1,12.25,1.63,18.35.21,2,.34,4-1.76,4.56a5,5,0,0,1-4.17-1.57A74.62,74.62,0,0,1,638.87,67c-4-7.26-7.93-14.61-11.92-21.9a36.56,36.56,0,0,0-2.13-3.17Z" transform="translate(-21 -14.25)"/><path class="cls-1" d="M33.11,63.77a8.61,8.61,0,0,0,.73-1.8c.39-2.28,1.24-4.72,3.72-4.57,1.83.11,4,1.57,5.25,3C45,62.9,46.51,65.85,49,69.62c.74-7.37,1.52-13.56,2-19.77.51-7.47.73-15,1.07-22.43,0-.83-.26-1.86.13-2.46.81-1.26,1.84-3.09,3-3.26,2.27-.35,3,1.6,2.9,3.66C57.7,30.67,57.19,36,56.9,41.29c-.62,11.3-1.11,22.61-1.7,33.91-.14,2.6.35,5.77-3,6.7-3.15.87-4.22-2.1-5.59-4.05-2.37-3.38-4.53-6.91-7.26-11.12C38.78,69,38.36,70.46,38,72c-.48,2.11-.78,4.26-1.38,6.33s-1.62,4.24-4.36,4c-2.49-.27-3-2.32-3.3-4.38-1.13-7.23-2.23-14.47-3.43-21.69-1.31-7.87-2.76-15.72-4.09-23.59a39.41,39.41,0,0,1-.46-5c-.07-1.85.6-3.38,2.63-3.61s3.09,1,3.4,2.88c.37,2.3.65,4.61,1,6.92q2.1,15,4.22,30Z" transform="translate(-21 -14.25)"/><path class="cls-1" d="M260.78,55.57c.48,5.69,1,11.38,1.43,17.07.1,1.32.44,2.77,0,3.92A4.05,4.05,0,0,1,259.71,79c-.95.09-2.25-1-3-1.92a5.31,5.31,0,0,1-.6-2.87c-.75-15.94-1.43-31.88-2.23-47.82-.16-3.06,1-4.39,4-5.22,4.15-1.18,8.09-3.13,12.55-1.5,6.3,2.3,10.65,6.53,11.24,13.31.57,6.6-3.15,11.34-8.59,14.67a51.56,51.56,0,0,1-6.19,2.8l15.28,17.25c.56.62,1.13,1.22,1.63,1.89,1.1,1.45,1.61,3,.07,4.45s-3.11,1.11-4.44-.17c-1.55-1.49-2.89-3.2-4.35-4.79Q268.57,62,262.05,55Zm0-28.94V44.47c5-.32,9-1.25,11.94-4.59,4.74-5.35,2.26-12.94-4.8-14.09C265.65,25.42,263.16,26.31,260.79,26.63Z" transform="translate(-21 -14.25)"/><path class="cls-1" d="M534.09,47.72l-10.91,1.8c-.42,4.81-.82,9.24-1.2,13.67-.23,2.66-.38,5.32-.66,8-.21,2-.93,3.78-3.25,3.68-2.54-.11-3.18-2.08-3.15-4.26.05-4.33.24-8.66.24-13,0-3.08,1.35-6.29-.82-9.2a1.63,1.63,0,0,1,0-1.43c3.34-5.32,2.21-11.63,3.86-17.32.93-3.19,1.77-6.42,2.85-9.56a11.45,11.45,0,0,1,2.22-3.84c2.3-2.59,5.18-2.43,7,.52A37.33,37.33,0,0,1,533,23.13c2.49,6.51,5.6,12.87,7.2,19.59,1.94,8.19,5.31,15.67,8.8,23.2.91,2,1.07,4-1.39,5-2.19.88-3.46-.6-4.27-2.39C540.37,61.9,537.42,55.21,534.09,47.72Zm-6.46-20.81-1.13.23c-.81,5.11-1.62,10.23-2.5,15.72l8.41-1.54Z" transform="translate(-21 -14.25)"/><path class="cls-1" d="M369.54,50.74c0-5.68.09-10.42,0-15.16-.09-3.66-.64-7.31-.54-11,0-1.09,1.5-2.93,2.43-3a4.18,4.18,0,0,1,3.21,2.31,21.13,21.13,0,0,1,1,6.37q.78,15.47,1.36,30.93a11.56,11.56,0,0,1-.84,4.84c-1.22,2.81-4,3.1-5.91.7a18.2,18.2,0,0,1-1.91-3.5c-4.22-8.67-8.41-17.35-12.64-26-.55-1.15-1.26-2.21-2.44-4.26,0,7.31-.07,13.51,0,19.72.06,3.49.46,7,.62,10.46.05,1.32.22,2.85-.35,3.92a5.2,5.2,0,0,1-3.12,2.58c-.81.14-2.19-1.26-2.8-2.28a7.3,7.3,0,0,1-.52-3.38q-.48-18.72-.88-37.45c-.05-2.11-.64-4.6,2-5.62s4.72.4,6.09,2.32a116.55,116.55,0,0,1,7.13,11.38C364.18,39.66,366.61,44.88,369.54,50.74Z" transform="translate(-21 -14.25)"/><path class="cls-1" d="M250.53,47.22c-.52,4.62-.9,9.26-1.6,13.84A25.32,25.32,0,0,1,242.84,74c-4.54,5.21-10.5,5.6-15.7.94a17.82,17.82,0,0,1-6-11.19c-1.47-11.71-.54-23.27,3.73-34.31a16.51,16.51,0,0,1,5.91-7.62c5.84-3.73,11.58-2.07,15.47,3.81C250.62,32.18,250.81,39.64,250.53,47.22Zm-6.24-1.72-.29,0c0-2.33.37-4.74-.09-7a34.13,34.13,0,0,0-3-9.36c-2-3.65-6-3.7-8.61-.4a14.85,14.85,0,0,0-2.15,4.46c-3,9-3.63,18.25-3,27.61a12.91,12.91,0,0,0,4.28,9.28c2.78,2.41,4.72,2.53,6.63-.49a37.56,37.56,0,0,0,4.8-10.75C243.86,54.55,243.84,50,244.29,45.5Z" transform="translate(-21 -14.25)"/><path class="cls-1" d="M445.52,49.5V66.73c0,1.81.31,3.71-.14,5.41a3.81,3.81,0,0,1-2.67,2.37c-.94,0-2.35-1.15-2.84-2.15a10.79,10.79,0,0,1-.7-4.38c-.14-5.82-.11-11.65-.26-17.47-.2-8.31-.47-16.62-.76-24.93-.13-3.83.57-5.56,4.18-6.2a45.11,45.11,0,0,1,12.74-.68c4.3.48,6.95,3.68,7.93,8s-.58,7.89-4.1,10.47c-2.8,2-5.79,3.84-9.16,6a36.69,36.69,0,0,0,2.71,4c3.66,4.08,7.4,8.1,11.15,12.1,1,1.09,2.2,2,3.27,3.07,1.52,1.49,2.86,3.22.94,5.13-1.77,1.76-3.68.83-5.32-.57-.89-.76-1.76-1.53-2.57-2.37C455.21,59.61,450.52,54.71,445.52,49.5Zm-.22-24.7V38.28c3.73-2.37,7-4.08,9.78-6.3,3.09-2.44,2.3-6.17-1.57-7.07C450.91,24.31,448.06,24.8,445.3,24.8Z" transform="translate(-21 -14.25)"/><path class="cls-1" d="M612.84,45.93c-.72,4-1.57,10.65-3.12,17.09-1.14,4.69-3.36,9-7.68,11.89-5.06,3.33-10.7,2.33-13.72-2.94a22.19,22.19,0,0,1-3.05-8.86c-.77-9.8-.68-19.66,1.79-29.25a26.33,26.33,0,0,1,4.3-8.86c4.15-5.57,11.22-5.42,15.57.16C611.06,30.46,612.68,36.69,612.84,45.93Zm-22,8.14c.29,3.37.33,6,.8,8.62.56,3,.69,7,4.58,7.35s5.41-3.42,6.56-6.48a53.24,53.24,0,0,0,3.12-24.45,23.88,23.88,0,0,0-3.17-8.78c-2.13-3.84-5.32-3.7-7.6.16A15.81,15.81,0,0,0,593,36C592.13,42.24,591.51,48.5,590.86,54.07Z" transform="translate(-21 -14.25)"/><path class="cls-1" d="M78.69,53.44l-7.78.69c-.34,4.08-.69,8-1,11.94-.31,4.37-1.35,6.16-3.63,6.12S62.63,70.26,63,66c1.18-12.56,2.67-25.09,4.11-37.63.26-2.29,1.35-4.1,3.88-4.59,2.82-.55,4.5,1,5.48,3.3,1.58,3.66,2.79,7.47,4.38,11.12,1.45,3.34,1,7.77,5.23,9.59.22,3.43.17,6.91.72,10.28.71,4.43,1.88,8.77,2.86,13.15.1.49.21,1,.28,1.47.34,2.27.42,4.66-2.48,5.08-2.67.38-3.64-1.51-4.1-3.95-1-5.55-2.26-11.06-3.45-16.58C79.7,56.09,79.23,55,78.69,53.44ZM77,46.82c-1.21-3.53-2.24-6.49-3.26-9.45l-1.2.19c-.29,3-.57,6.09-.88,9.36a16.07,16.07,0,0,0,2.3.3C74.79,47.19,75.6,47,77,46.82Z" transform="translate(-21 -14.25)"/><path class="cls-1" d="M408,51.6c.49-9.86,1.9-18.49,5-26.87,1.14-3.13,3-4.1,6-3.75,4.92.57,8.15,3.47,10.52,7.54,4.78,8.24,5.44,17,2.85,26a36.43,36.43,0,0,1-3.83,9.66c-4.36,6.79-10.86,6.94-16,.77A18,18,0,0,1,408,51.6ZM420,63c5.26-3.23,8.5-13,7.11-22.14-.8-5.27-2-10.6-8.05-13.43-3.89,8.93-4.6,17.82-4.5,26.78C414.58,57.85,416.51,60.87,420,63Z" transform="translate(-21 -14.25)"/><path class="cls-1" d="M388.88,23c.39,2.74.66,4.67,1,7h10.68c2.16,0,4.25.44,4.28,3.05s-2.06,3.08-4.22,3.09c-3.3,0-6.61,0-10.32,0,0,4-.06,7.58,0,11.16.21,9.64.48,19.28.71,28.92,0,.82.24,1.83-.14,2.45-.63,1-1.75,2.55-2.51,2.47-1.17-.13-2.91-1.27-3.16-2.29a42.71,42.71,0,0,1-.93-8.4c-.52-12.79-1-25.59-1.44-38.38-.14-3.47-.57-6.94-.42-10.39.13-2.86,1.43-4.75,5-4.94,4.11-.23,8.18-1.34,12.27-2.07,2.36-.42,4.62-.16,5,2.65.3,2.53-1.87,3.23-3.93,3.61C396.94,21.55,393.2,22.2,388.88,23Z" transform="translate(-21 -14.25)"/><path class="cls-1" d="M295.88,41.73c1.94,0,3.73,0,5.53,0,1.16,0,2.32-.25,3.47-.16,1.82.14,3.3.94,3.34,3s-1.42,3-3.19,3.19c-3.1.35-6.22.48-9.56.72V70.08c2.52-.25,4.63-.52,6.74-.65,1.48-.1,3.11-.38,4.42.11a4.23,4.23,0,0,1,2.22,2.81,3.13,3.13,0,0,1-1.72,2.57,116.74,116.74,0,0,1-14.8,1c-2.48,0-3.34-2.4-3.31-4.82.07-3.82.19-7.65.15-11.48-.12-12-.26-23.94-.52-35.91-.06-2.53,1-3.77,3.33-4q7.44-.84,14.88-1.53c2-.18,3.85.28,4.24,2.53.45,2.64-1.48,3.49-3.61,3.8-3.75.56-7.52,1-11.61,1.5Z" transform="translate(-21 -14.25)"/><path class="cls-1" d="M559,21.45c-.1,1.72-.27,3.33-.26,4.95q.19,26.43.44,52.86c0,2.09.15,4.37-2.51,4.61-2.88.26-3.51-2.09-3.64-4.35-.21-3.65-.29-7.31-.3-11,0-15.28,0-30.56,0-46.37-2.07,0-3.32-.07-4.56,0s-2.63.42-4,.47c-2.08.1-4.25-.13-4.57-2.71s1.71-3.37,3.79-3.67c2.79-.39,5.61-.63,8.42-.9,4.46-.42,8.92-1,13.39-1.08a4.72,4.72,0,0,1,3.7,2.28c.84,2.09-.85,3.4-2.82,3.82C563.92,20.89,561.62,21.09,559,21.45Z" transform="translate(-21 -14.25)"/><path class="cls-1" d="M148,27.36c.8,16,1.5,31.67,2.45,47.37.26,4.36-.1,6.28-2.45,6.53s-3.65-1.31-3.91-5.84c-.76-13.26-1.3-26.54-1.92-39.81-.12-2.45-.23-4.9-.36-7.73-2.61,0-4.74.09-6.86,0s-4.13-.76-4.07-3.37c.05-2.36,2-2.86,3.89-3q9.19-.68,18.39-1.24c2.17-.13,4.2.48,4.36,3,.15,2.27-1.72,3-3.62,3.37S150.37,27.07,148,27.36Z" transform="translate(-21 -14.25)"/><path class="cls-1" d="M667.55,21.13c-3.5-.56-6.13-.06-8,3.1-.44.77-2.66,1.41-3.3,1-1-.69-1.4-2.31-2-3.57-.11-.23.16-.63.25-.94,1.39-4.52,9-7.67,14.38-6a8.82,8.82,0,0,1,5.22,11.77,20.64,20.64,0,0,1-6.48,7.89c-3.88,2.77-5.21,5.91-4.67,10.5s.55,9.28.68,13.93a9.18,9.18,0,0,1-.6,3.87,2.72,2.72,0,0,1-5,.13,10.85,10.85,0,0,1-.84-4.33c-.21-5.81-.16-11.64-.48-17.44-.23-4.21,1-7.4,4.69-9.69a30.13,30.13,0,0,0,5-4.12C668.33,25.35,668.25,25.27,667.55,21.13Z" transform="translate(-21 -14.25)"/><path class="cls-1" d="M342.92,70.64c.16,2.66.37,5.31.49,8,.08,2-.32,3.89-2.63,4.15-2.6.29-3.49-1.7-3.64-3.81-.45-6.65-.66-13.31-1.11-20-.79-11.79-1.7-23.58-2.56-35.36-.07-1-.48-2.19-.07-2.94.63-1.15,1.7-2.5,2.84-2.8.76-.21,2.24,1.07,2.89,2a7,7,0,0,1,.75,3.36q1.72,23.66,3.38,47.33Z" transform="translate(-21 -14.25)"/><path class="cls-1" d="M578.7,46.31c.38,8.65.78,17.3,1.14,26,.18,4.34-.84,6.61-3,6.36-3.78-.44-3.38-3.69-3.46-6.21-.3-9.66-.4-19.32-.61-29-.11-5.33-.32-10.65-.45-16a10.89,10.89,0,0,1,.18-3.93,3.64,3.64,0,0,1,2.45-2.06A3.36,3.36,0,0,1,577.71,23a14.34,14.34,0,0,1,1.12,5.31c.13,6,0,12,0,18Z" transform="translate(-21 -14.25)"/><path class="cls-1" d="M665.8,82.49c-1.15-2-2.49-3.29-2.25-4.17a4.11,4.11,0,0,1,3-2.2c.66-.07,2.23,1.73,2.13,2.54C668.59,79.75,667.25,80.7,665.8,82.49Z" transform="translate(-21 -14.25)"/></svg>